<svg width="24" height="16" viewBox="0 0 24 16" fill="none" xmlns="http://www.w3.org/2000/svg">
<path d="M19.4601 6.95575V5.81823C19.4601 5.40573 19.3052 5.01826 19.0302 4.72572L16.4802 2.00574C16.1127 1.61823 15.5826 1.43574 15.0552 1.52326C14.7627 1.57079 14.4952 1.69824 14.2777 1.88828L13.6527 0.613273C13.5827 0.468289 13.4452 0.368258 13.2877 0.340742L11.8002 0.0932414C11.5277 0.0482414 11.2701 0.230726 11.2252 0.503211C11.1802 0.775742 11.3627 1.03323 11.6352 1.07818L12.8677 1.28565L13.6577 2.89065L13.6427 2.92314C13.1414 2.99907 11.6727 2.58774 10.6577 3.90067L19.4502 6.95069C19.4526 6.95073 19.4576 6.95322 19.4601 6.95575Z" fill="#A16969"/>
<path d="M17.2325 7.24095L2.47498 2.11849C2.32245 2.06599 2.15497 2.08849 2.02245 2.18346C1.88994 2.27595 1.8125 2.42848 1.8125 2.59095C1.8125 3.95595 2.48005 5.23591 3.59999 6.01596L4.37249 6.55343C7.14247 6.65346 9.365 8.93595 9.365 11.7284C9.365 12.0034 9.34246 12.2759 9.30004 12.541H9.50999C9.69247 12.541 9.86249 12.4384 9.95 12.276L10.7025 10.876H13.035L13.8225 12.2835C13.9101 12.4435 14.0775 12.541 14.2575 12.541H14.7C14.6576 12.276 14.6351 12.0035 14.6351 11.7285C14.635 9.81091 15.68 8.13593 17.2325 7.24095Z" fill="#A16969"/>
<path d="M19.8142 10.5488C19.1636 10.5488 18.6343 11.0781 18.6343 11.7285C18.6343 12.3821 19.1635 12.9136 19.8142 12.9136C20.4678 12.9136 20.9993 12.3821 20.9993 11.7285C20.9993 11.0781 20.4677 10.5488 19.8142 10.5488Z" fill="#A16969"/>
<path d="M19.815 7.54834C17.5101 7.54834 15.635 9.42334 15.635 11.7283C15.635 14.0358 17.51 15.9133 19.815 15.9133C22.1226 15.9133 24 14.0358 24 11.7283C24 9.42334 22.1226 7.54834 19.815 7.54834ZM19.8143 13.9138C18.6124 13.9138 17.6344 12.9336 17.6344 11.7288C17.6344 10.5269 18.6124 9.54911 19.8143 9.54911C21.0192 9.54911 21.9993 10.5269 21.9993 11.7288C21.9993 12.9336 21.0191 13.9138 19.8143 13.9138Z" fill="#A16969"/>
<path d="M4.18003 7.54834C1.875 7.54834 0 9.42339 0 11.7283C0 14.0358 1.875 15.9133 4.18003 15.9133C6.48755 15.9133 8.36503 14.0358 8.36503 11.7283C8.36503 9.42334 6.4875 7.54834 4.18003 7.54834ZM4.17923 13.9138C2.97736 13.9138 1.99931 12.9336 1.99931 11.7288C1.99931 10.5269 2.97736 9.54911 4.17923 9.54911C5.38411 9.54911 6.36427 10.5269 6.36427 11.7288C6.36431 12.9336 5.38406 13.9138 4.17923 13.9138Z" fill="#A16969"/>
<path d="M4.17921 10.5488C3.52858 10.5488 2.99927 11.0781 2.99927 11.7285C2.99927 12.3821 3.52853 12.9136 4.17921 12.9136C4.83278 12.9136 5.36425 12.3821 5.36425 11.7285C5.36425 11.0781 4.83278 10.5488 4.17921 10.5488Z" fill="#A16969"/>
</svg>
