<svg width="24" height="24" viewBox="0 0 24 24" fill="none" xmlns="http://www.w3.org/2000/svg">
<g clip-path="url(#clip0_121_8155)">
<path d="M14.1194 2.72648C14.1194 2.05719 13.5749 1.5127 12.9056 1.5127H11.0944C10.4251 1.5127 9.88062 2.05719 9.88062 2.72648V4.54114H14.1194V2.72648Z" fill="#3E91F3"/>
<path d="M12.1778 9.10631L19.2135 10.9447V6.40767C19.2135 6.1538 19.0069 5.94727 18.7531 5.94727H5.24703C4.99315 5.94727 4.78662 6.1538 4.78662 6.40767V10.9447L11.8223 9.10631C11.9388 9.07589 12.0612 9.07589 12.1778 9.10631Z" fill="#3E91F3"/>
<path d="M23.2968 21.0809C22.5208 21.0809 22.1708 20.9066 21.7275 20.6858C21.5194 20.5822 21.3 20.473 21.0382 20.3799C20.6747 20.2507 20.2292 20.1527 19.6187 20.1441L22.1931 13.6635C22.2501 13.5096 22.2045 13.3815 22.172 13.3185C22.1393 13.2551 22.0604 13.1423 21.8995 13.1003L12 10.5137L2.10047 13.1003C1.9395 13.1423 1.86061 13.2551 1.82794 13.3185C1.79545 13.3815 1.74985 13.5098 1.80699 13.6637L4.3756 20.1442C3.76538 20.1534 3.32035 20.252 2.95707 20.3817C2.69742 20.4744 2.47941 20.5829 2.27264 20.6859C1.82935 20.9066 1.47924 21.0809 0.703126 21.0809C0.314813 21.0809 0 21.3958 0 21.7841C0 22.1724 0.314813 22.4872 0.703126 22.4872C1.80994 22.4872 2.38875 22.199 2.89941 21.9447C3.09839 21.8457 3.27882 21.7562 3.48717 21.6874C3.74307 21.6028 4.04114 21.5497 4.46893 21.5497C4.56657 21.5497 4.65741 21.5525 4.74263 21.5578C5.33457 21.5944 5.65093 21.7519 6.03844 21.9448C6.5491 22.199 7.12791 22.4872 8.23473 22.4872C9.34149 22.4872 9.92026 22.199 10.431 21.9448C10.8742 21.7241 11.2243 21.5497 12.0003 21.5497C12.7764 21.5497 13.1264 21.7241 13.5697 21.9448C14.0803 22.199 14.6591 22.4872 15.7659 22.4872C16.8726 22.4872 17.4514 22.199 17.962 21.9448C18.3508 21.7512 18.668 21.5934 19.2635 21.5575C19.347 21.5525 19.4359 21.5497 19.5314 21.5497C19.9545 21.5497 20.2507 21.6018 20.5046 21.6847C20.7165 21.7539 20.8992 21.8444 21.1008 21.9448C21.6114 22.199 22.1902 22.4872 23.2969 22.4872C23.6853 22.4872 24.0001 22.1724 24.0001 21.7841C24.0001 21.3958 23.6852 21.0809 23.2968 21.0809ZM5.49947 14.112L11.8222 12.4599C11.9387 12.4295 12.0612 12.4295 12.1777 12.4599L18.5005 14.112C18.8762 14.2101 19.1012 14.5943 19.003 14.97C18.9204 15.2862 18.6353 15.4956 18.3232 15.4956C18.2644 15.4956 18.2046 15.4881 18.145 15.4726L12 13.867L5.85497 15.4726C5.47927 15.5707 5.09508 15.3457 4.99693 14.97C4.89877 14.5943 5.12377 14.2101 5.49947 14.112Z" fill="#3E91F3"/>
</g>
<defs>
<clipPath id="clip0_121_8155">
<rect width="24" height="24" fill="white"/>
</clipPath>
</defs>
</svg>
