<svg width="24" height="24" viewBox="0 0 24 24" fill="none" xmlns="http://www.w3.org/2000/svg">
<path d="M11.7 0.419922C10.172 0.512422 9.25998 1.55992 8.79998 3.12392C8.48298 4.19592 8.93048 4.67392 9.27798 4.87392C9.47593 3.99 9.81116 3.14256 10.2715 2.36242C10.6694 1.6609 11.1489 1.00888 11.7 0.419922Z" fill="#C59000"/>
<path d="M12.7155 0.45459C12.7155 0.45459 12.53 0.62509 12.2435 0.937089C11.7366 1.48316 11.2936 2.08521 10.923 2.73159C10.4726 3.48425 10.1549 4.30876 9.98401 5.16908C9.93802 5.41845 9.91194 5.67108 9.90601 5.92458C9.98373 6.0961 10.1231 6.23211 10.2965 6.30558C10.5441 6.38297 10.8067 6.3992 11.062 6.35287C11.3172 6.30655 11.5574 6.19905 11.762 6.03958C12.3248 5.56049 12.7091 4.90518 12.8525 4.18009C13.014 3.22359 13.6085 0.823089 13.6085 0.823089C13.3588 0.606447 13.0453 0.477082 12.7155 0.45459Z" fill="#C59000"/>
<path d="M5.62451 18.6094V23.6249H18.3745V18.6094C18.3745 18.6094 16.3245 19.9714 11.9945 19.9714C7.66451 19.9714 5.62451 18.6094 5.62451 18.6094Z" fill="#C59000"/>
<path d="M19.4951 0.424817C18.5839 0.336349 17.6648 0.37861 16.7656 0.550317C16.0676 0.674892 15.3778 0.841868 14.7001 1.05032L15.3951 2.49032L17.9501 2.04032C17.6699 2.99649 17.3155 3.92932 16.8901 4.83032C16.3401 5.78032 15.1601 7.32032 14.8851 7.32032C14.3379 7.21247 13.7984 7.06883 13.2701 6.89032V5.72982C13.2701 5.72982 14.0301 5.91982 14.1001 5.92982C14.4601 5.99482 14.8701 6.00482 15.0251 5.81482C15.2101 5.57982 15.0501 4.03982 15.0501 4.03982C15.0501 4.03982 15.3001 3.66932 15.3001 3.64582C15.0236 3.36832 14.8043 3.03927 14.6546 2.67732C14.6211 2.59232 14.2876 1.85182 14.1791 1.65482C14.1236 1.88532 14.0581 2.16132 13.9911 2.44882C13.8321 3.12532 13.6646 3.87332 13.5911 4.30482C13.5411 4.58884 13.4572 4.86583 13.3411 5.12982C13.0891 5.72508 12.6941 6.24892 12.1911 6.65482C11.7702 6.9571 11.269 7.12763 10.7511 7.14482C10.5642 7.14297 10.3788 7.11263 10.2011 7.05482C9.84701 7.17178 9.4842 7.26039 9.11608 7.31982C8.84108 7.31982 7.66108 5.77982 7.11108 4.82982C6.68534 3.92885 6.33059 2.99602 6.05008 2.03982L8.24508 2.41982C8.43261 1.89177 8.70632 1.39842 9.05508 0.959817C8.40767 0.780779 7.75126 0.636077 7.08858 0.526317C6.2363 0.372702 5.36678 0.33854 4.50508 0.424817C3.90008 0.509817 3.37508 1.73982 4.27508 4.18482C5.00191 5.91982 5.99744 7.52954 7.22508 8.95482C7.22508 8.95482 9.02008 14.2748 8.74508 16.2648C8.63287 16.9821 8.43652 17.6836 8.16008 18.3548C8.11008 18.4753 8.05658 18.6048 8.00208 18.7433C9.30704 19.0743 10.6494 19.235 11.9956 19.2213C13.3936 19.2383 14.7875 19.0666 16.1396 18.7108C16.0476 18.5533 15.9761 18.4263 15.9396 18.3548C15.5873 17.7051 15.3552 16.997 15.2546 16.2648C14.9596 14.2798 16.7746 8.95482 16.7746 8.95482C18.0022 7.52954 18.9977 5.91982 19.7246 4.18482C20.6251 1.73982 20.1001 0.509817 19.4951 0.424817ZM11.9951 16.0638C11.4241 16.0638 10.9616 15.7723 10.9616 15.4138C10.9616 15.0553 11.4241 14.7638 11.9951 14.7638C12.5661 14.7638 13.0286 15.0553 13.0286 15.4138C13.0286 15.7723 12.5666 16.0638 11.9956 16.0638H11.9951ZM11.9951 13.2088C11.3416 13.2088 10.8121 12.8753 10.8121 12.4638C10.8121 12.0523 11.3416 11.7188 11.9951 11.7188C12.6486 11.7188 13.1781 12.0523 13.1781 12.4638C13.1781 12.8753 12.6501 13.2088 11.9956 13.2088H11.9951ZM11.9951 10.3983C11.2201 10.3983 10.5921 10.0028 10.5921 9.51482C10.5921 9.02682 11.2201 8.63132 11.9951 8.63132C12.7701 8.63132 13.3981 9.02682 13.3981 9.51482C13.3981 10.0028 12.7706 10.3998 11.9956 10.3998L11.9951 10.3983Z" fill="#C59000"/>
</svg>
