<svg width="57" height="57" viewBox="0 0 57 57" fill="none" xmlns="http://www.w3.org/2000/svg">
<rect width="56.3636" height="56.3636" rx="28.1818" fill="#F75C4E"/>
<g clip-path="url(#clip0_202_3515)">
<path d="M39.9367 16.2391C40.9868 16.2001 40.986 14.6932 39.9367 14.6545H34.5176C34.1189 14.6545 33.7823 14.9508 33.7317 15.3463L33.1043 20.2497H28.3273C28.1512 18.8344 27.5093 17.5619 26.5605 16.5902C26.5285 16.5509 26.4911 16.5135 26.4518 16.4815C24.1031 14.0806 19.8969 14.0812 17.5488 16.4815C17.5095 16.5135 17.4722 16.5509 17.4401 16.5902C15.0392 18.9389 15.0398 23.1452 17.4401 25.4934C17.4722 25.5327 17.5095 25.57 17.5488 25.6021C18.6022 26.6306 20.0092 27.2981 21.5681 27.403C22.29 29.3816 24.0305 30.8715 26.1741 31.2263C26.4768 33.1849 28.0099 34.7419 29.956 35.0821V38.3699C29.956 38.839 29.7732 39.2797 29.4411 39.6106C29.11 39.9406 28.6704 40.1223 28.2025 40.1225H27.5397C26.4896 40.1615 26.4904 41.6685 27.5397 41.7071H28.1906C28.1946 41.7071 28.1986 41.7072 28.2027 41.7071H33.2332C33.2574 41.7077 33.2815 41.7091 33.3059 41.7091L33.9351 41.7071H33.9738C35.0239 41.6682 35.0231 40.1612 33.9738 40.1225H33.2342C32.3241 40.0816 31.5406 39.2798 31.5406 38.3699V35.0849C33.4948 34.7508 35.036 33.1906 35.3395 31.2263C38.1751 30.757 40.3057 28.3016 40.3057 25.3547L40.3032 24.138C40.3064 24.1046 40.3061 24.0705 40.303 24.0372L40.297 21.0404C40.2961 20.6034 39.9416 20.2497 39.5047 20.2497H34.7018L35.215 16.2391H39.9367ZM18.0998 23.8218C17.6852 23.2417 17.3968 22.5656 17.2745 21.834H20.0875L18.0998 23.8218ZM18.0998 18.2617L20.0875 20.2494H17.2745C17.3968 19.5178 17.6852 18.8418 18.0998 18.2617ZM26.7261 20.2494H23.9131L25.9008 18.2617C26.3154 18.8418 26.6038 19.5178 26.7261 20.2494ZM22.7926 19.129V16.316C23.5242 16.4383 24.2003 16.7266 24.7803 17.1412L22.7926 19.129ZM21.208 19.129L19.2203 17.1412C19.8003 16.7266 20.4764 16.4383 21.208 16.316V19.129ZM22.7854 21.8342H32.9015L32.7143 23.2973H22.7883L22.7854 21.8342ZM19.2203 24.9422L21.203 22.9594L21.2078 25.3563C21.2078 25.4953 21.2126 25.6332 21.222 25.7698C20.485 25.6489 19.804 25.3595 19.2203 24.9422ZM22.7924 25.3547L22.7915 24.8819H32.5115L31.8928 29.7166H26.937C24.612 29.6006 22.7924 27.6879 22.7924 25.3547ZM30.7568 33.5676C29.3454 33.5676 28.155 32.6045 27.8072 31.3012H33.7064C33.3586 32.6045 32.1682 33.5676 30.7568 33.5676ZM34.5765 29.7166H33.4903L34.109 24.8819H38.7201L38.7211 25.3563C38.7211 27.6879 36.9016 29.6006 34.5765 29.7166ZM38.7141 21.8342L38.717 23.2973H34.3118L34.4991 21.8342H38.7141Z" fill="white"/>
<path d="M27.2103 26.8016C27.2103 26.364 26.8556 26.0093 26.418 26.0093H26.4175C25.98 26.0093 25.6255 26.364 25.6255 26.8016C25.6645 27.8513 27.1717 27.8512 27.2103 26.8016Z" fill="white"/>
<path d="M29.6777 28.3551C30.7278 28.3162 30.727 26.8091 29.6777 26.7705H29.6771C28.627 26.8096 28.6284 28.3166 29.6777 28.3551Z" fill="white"/>
</g>
<defs>
<clipPath id="clip0_202_3515">
<rect width="27.0545" height="27.0545" fill="white" transform="translate(14.6545 14.6545)"/>
</clipPath>
</defs>
</svg>
