<svg width="74" height="74" viewBox="0 0 74 74" fill="none" xmlns="http://www.w3.org/2000/svg">
<path d="M37 74C57.4345 74 74 57.4345 74 37C74 16.5655 57.4345 0 37 0C16.5655 0 0 16.5655 0 37C0 57.4345 16.5655 74 37 74Z" fill="url(#paint0_linear_121_7878)"/>
<path d="M38.2816 30.5811C38.9886 30.5811 39.5631 30.0057 39.5631 29.2974C39.5631 28.589 38.9886 28.0136 38.2816 28.0136V30.5811ZM34.437 24.1622C34.437 24.8705 35.0115 25.4459 35.7186 25.4459V22.8783C35.0114 22.8784 34.437 23.454 34.437 24.1622ZM37 15.1758C30.64 15.1758 25.4664 20.3585 25.4664 26.7298C25.4664 33.101 30.64 38.2837 37 38.2837C43.36 38.2837 48.5336 33.101 48.5336 26.7298C48.5336 20.3585 43.36 15.1758 37 15.1758ZM42.1261 29.2974C42.1261 31.4211 40.4015 33.1487 38.2816 33.1487V34.4324C38.2816 35.1421 37.7083 35.7161 37 35.7161C36.2917 35.7161 35.7184 35.1419 35.7184 34.4324V33.1487C33.5985 33.1487 31.8739 31.4211 31.8739 29.2974C31.8739 28.5877 32.4471 28.0136 33.1555 28.0136C33.8638 28.0136 34.437 28.5878 34.437 29.2974C34.437 30.0057 35.0115 30.5811 35.7186 30.5811V28.0135C33.5986 28.0135 31.8741 26.2859 31.8741 24.1622C31.8741 22.0384 33.5986 20.3108 35.7186 20.3108V19.0271C35.7186 18.3175 36.2918 17.7434 37.0001 17.7434C37.7085 17.7434 38.2817 18.3176 38.2817 19.0271V20.3108C40.4017 20.3108 42.1262 22.0384 42.1262 24.1622C42.1262 24.8718 41.553 25.4459 40.8447 25.4459C40.1363 25.4459 39.5631 24.8717 39.5631 24.1622C39.5631 23.4538 38.9886 22.8784 38.2816 22.8784V25.446C40.4015 25.446 42.1261 27.1736 42.1261 29.2974ZM38.1464 38.9934C37.711 38.1233 36.2892 38.1233 35.8537 38.9934L30.7276 49.2636C30.5286 49.6611 30.55 50.1337 30.784 50.5122C31.018 50.8909 31.4298 51.1216 31.8741 51.1216H33.1556V57.5405C33.1556 58.2501 33.7288 58.8242 34.4372 58.8242H39.5633C40.2716 58.8242 40.8448 58.25 40.8448 57.5405V51.1216H42.1264C42.5707 51.1216 42.9824 50.8909 43.2164 50.5122C43.4504 50.1336 43.4717 49.6609 43.2728 49.2636L38.1464 38.9934ZM21.6219 25.446H19.0589C18.3506 25.446 17.7773 26.0202 17.7773 26.7298C17.7773 27.4393 18.3506 28.0135 19.0589 28.0135H21.6219C22.3302 28.0135 22.9034 27.4393 22.9034 26.7298C22.9034 26.0202 22.3302 25.446 21.6219 25.446ZM54.9411 25.446H52.3781C51.6698 25.446 51.0966 26.0202 51.0966 26.7298C51.0966 27.4393 51.6698 28.0135 52.3781 28.0135H54.9411C55.6494 28.0135 56.2227 27.4393 56.2227 26.7298C56.2227 26.0202 55.6494 25.446 54.9411 25.446ZM25.2198 36.7154L23.4077 38.5307C22.9072 39.0323 22.9072 39.8447 23.4077 40.346C23.9084 40.8476 24.7193 40.8476 25.2198 40.346L27.032 38.5307C27.5326 38.0292 27.5326 37.2168 27.032 36.7154C26.5313 36.214 25.7205 36.2139 25.2198 36.7154ZM48.7802 36.7154C48.2795 36.2139 47.4687 36.2139 46.968 36.7154C46.4674 37.2169 46.4674 38.0294 46.968 38.5307L48.7802 40.346C49.2808 40.8476 50.0916 40.8476 50.5923 40.346C51.0928 39.8445 51.0928 39.0321 50.5923 38.5307L48.7802 36.7154Z" fill="url(#paint1_linear_121_7878)"/>
<defs>
<linearGradient id="paint0_linear_121_7878" x1="37" y1="74" x2="37" y2="0" gradientUnits="userSpaceOnUse">
<stop stop-color="#FFE59A"/>
<stop offset="1" stop-color="#FFFFD5"/>
</linearGradient>
<linearGradient id="paint1_linear_121_7878" x1="37" y1="58.8242" x2="37" y2="15.1759" gradientUnits="userSpaceOnUse">
<stop stop-color="#FFDE00"/>
<stop offset="1" stop-color="#FD5900"/>
</linearGradient>
</defs>
</svg>
