<svg width="24" height="24" viewBox="0 0 24 24" fill="none" xmlns="http://www.w3.org/2000/svg">
<path d="M17.3228 2.09312H16.4406L16.4214 2.08012C15.7011 1.58262 14.299 0.616191 12.3792 0.892497C12.3823 0.896892 12.3837 0.902019 12.3867 0.906413C10.9627 1.14225 9.368 2.25261 8.83589 3.75023C8.32265 5.1931 8.7198 6.92857 10.0177 8.90996L12.0023 11.9426C15.0034 10.442 14.8961 8.15611 14.8322 6.79033C14.8227 6.5891 14.8165 6.44353 14.8165 6.31425C14.8165 5.92534 15.1312 5.61076 15.52 5.61076C15.9089 5.61076 16.2235 5.92534 16.2235 6.31425C16.2235 6.42357 16.2297 6.54717 16.2359 6.6812C16.3073 8.20647 16.4516 11.2911 12.6317 13.201C12.3933 13.3204 11.9978 13.5557 11.7572 13.5557C11.5263 13.5557 11.3016 13.4424 11.1677 13.2377L8.84011 9.68083C7.28939 7.31181 6.84151 5.15794 7.50984 3.27891C7.65871 2.86052 7.86379 2.50053 8.08754 2.166C3.56283 2.71275 0.00490494 6.57683 0.00307388 11.3405C-0.0135887 12.0497 -0.0282372 14.2076 1.85225 16.9791C2.50905 17.9479 2.85677 19.1584 2.85677 20.4802V22.4953C2.85677 22.8842 3.17135 23.1988 3.56026 23.1988H6.37423C6.76314 23.1988 7.06838 22.8842 7.06838 22.4953V18.9777H9.89186V22.4953C9.89186 22.8842 10.2066 23.1988 10.5955 23.1988H13.4095C13.7984 23.1988 14.1037 22.8842 14.1037 22.4953C14.1037 19.767 14.6716 17.3233 15.8217 15.0239L16.6208 13.4257L17.9783 13.6518C18.9999 13.8221 19.7413 14.6974 19.7413 15.7336V16.8672C19.7413 17.4436 18.9505 17.7734 18.5403 17.3645C18.2656 17.0897 17.8203 17.0897 17.5455 17.3645L15.5571 19.3528C15.2825 19.6277 15.2825 20.0728 15.5571 20.3477C16.7479 21.5397 18.4454 22.026 20.0943 21.6483C22.1912 21.168 23.9999 18.8389 23.9999 16.5627V8.73253C23.9999 5.07133 20.9842 2.09312 17.3228 2.09312ZM19.0378 9.1284C18.6494 9.1284 18.3343 8.81328 18.3343 8.42473C18.3343 8.03618 18.6494 7.72124 19.0378 7.72124C19.4263 7.72124 19.7415 8.03618 19.7415 8.42473C19.7415 8.81328 19.4263 9.1284 19.0378 9.1284Z" fill="#C59000"/>
</svg>
