<svg width="24" height="18" viewBox="0 0 24 18" fill="none" xmlns="http://www.w3.org/2000/svg">
<path d="M23.217 14.4814C22.7847 14.4814 22.4339 14.8319 22.4339 15.2645C22.4339 15.6962 22.0826 16.0475 21.6509 16.0475H20.359V14.4506C21.1425 14.3495 21.8674 13.9946 22.4359 13.4244C23.119 12.7397 23.4937 11.8308 23.4912 10.8652C23.4911 10.7992 23.5061 10.5388 23.4652 10.3758C23.2017 6.55336 20.0118 3.5189 16.1257 3.5189H15.6608V1.95281H22.7082C23.1405 1.95281 23.4912 1.60233 23.4912 1.16977C23.4912 0.737203 23.1405 0.386719 22.7082 0.386719H7.04737C6.61509 0.386719 6.26433 0.737203 6.26433 1.16977C6.26433 1.60233 6.61509 1.95281 7.04737 1.95281H14.0947V3.5189H1.56609V2.73586C1.56609 2.3033 1.21533 1.95281 0.783047 1.95281C0.350766 1.95281 0 2.3033 0 2.73586C0 3.25055 0 6.96365 0 7.43409C0 7.86661 0.350766 8.21709 0.783047 8.21709C1.21533 8.21709 1.56609 7.86661 1.56609 7.43404V6.87089L8.80313 8.68022C8.80364 8.68022 8.80364 8.68021 8.80364 8.6805C9.15281 8.7674 9.39652 9.07992 9.39652 9.43982C9.39652 11.5443 10.6927 13.3515 12.5287 14.1056V16.0475H10.1796C9.74728 16.0475 9.39652 16.398 9.39652 16.8306C9.39652 17.2631 9.74728 17.6136 10.1796 17.6136H21.6509C22.9462 17.6136 24 16.5599 24 15.2645C24 14.8319 23.6492 14.4814 23.217 14.4814ZM15.6608 5.0849H16.1257C18.944 5.0849 21.2997 7.11159 21.8166 9.78314H16.4438C16.0121 9.78314 15.6608 9.43186 15.6608 9.00009V5.0849H15.6608ZM18.793 16.0475H14.0947V14.4695C14.2082 14.4772 14.3225 14.4814 14.4378 14.4814H18.793V16.0475Z" fill="#A16969"/>
</svg>
