<svg width="24" height="24" viewBox="0 0 24 24" fill="none" xmlns="http://www.w3.org/2000/svg">
<circle cx="12" cy="12" r="11.5" stroke="white"/>
<path fill-rule="evenodd" clip-rule="evenodd" d="M12.0005 6C10.371 6 10.1665 6.00713 9.52651 6.03625C8.88776 6.0655 8.45176 6.16663 8.07026 6.315C7.67563 6.46825 7.34088 6.67325 7.00738 7.00688C6.67363 7.34038 6.46863 7.67513 6.31488 8.06963C6.16613 8.45126 6.06488 8.88739 6.03613 9.52589C6.0075 10.1659 6 10.3705 6 12C6 13.6295 6.00725 13.8334 6.03625 14.4734C6.06563 15.1122 6.16675 15.5482 6.315 15.9297C6.46838 16.3243 6.67338 16.659 7.007 16.9925C7.34038 17.3263 7.67513 17.5318 8.06951 17.685C8.45126 17.8334 8.88739 17.9345 9.52601 17.9638C10.166 17.9929 10.3704 18 11.9998 18C13.6294 18 13.8333 17.9929 14.4733 17.9638C15.112 17.9345 15.5485 17.8334 15.9303 17.685C16.3248 17.5318 16.659 17.3263 16.9924 16.9925C17.3262 16.659 17.5312 16.3243 17.6849 15.9298C17.8324 15.5482 17.9337 15.112 17.9637 14.4735C17.9924 13.8335 17.9999 13.6295 17.9999 12C17.9999 10.3705 17.9924 10.166 17.9637 9.52601C17.9337 8.88726 17.8324 8.45126 17.6849 8.06976C17.5312 7.67513 17.3262 7.34038 16.9924 7.00688C16.6587 6.67313 16.3249 6.46813 15.9299 6.315C15.5474 6.16663 15.1112 6.0655 14.4724 6.03625C13.8324 6.00713 13.6287 6 11.9986 6H12.0005ZM11.4625 7.08093C11.6223 7.08068 11.8005 7.08093 12.0008 7.08093C13.6028 7.08093 13.7927 7.08668 14.4253 7.11543C15.0103 7.14218 15.3278 7.23993 15.5393 7.32205C15.8193 7.4308 16.0189 7.5608 16.2288 7.7708C16.4388 7.98081 16.5688 8.18081 16.6778 8.46081C16.7599 8.67206 16.8578 8.98956 16.8844 9.57456C16.9132 10.2071 16.9194 10.3971 16.9194 11.9983C16.9194 13.5996 16.9132 13.7896 16.8844 14.4221C16.8577 15.0071 16.7599 15.3246 16.6778 15.5358C16.5691 15.8158 16.4388 16.0152 16.2288 16.2251C16.0188 16.4351 15.8194 16.5651 15.5393 16.6738C15.3281 16.7563 15.0103 16.8538 14.4253 16.8806C13.7928 16.9093 13.6028 16.9156 12.0008 16.9156C10.3987 16.9156 10.2088 16.9093 9.57629 16.8806C8.99129 16.8536 8.67379 16.7558 8.46216 16.6737C8.18216 16.565 7.98216 16.435 7.77216 16.225C7.56216 16.015 7.43216 15.8155 7.32316 15.5353C7.24103 15.3241 7.14316 15.0066 7.11653 14.4216C7.08778 13.7891 7.08203 13.5991 7.08203 11.9968C7.08203 10.3946 7.08778 10.2056 7.11653 9.57306C7.14328 8.98806 7.24103 8.67056 7.32316 8.45906C7.43191 8.17906 7.56216 7.97906 7.77216 7.76905C7.98216 7.55905 8.18216 7.42905 8.46216 7.32005C8.67366 7.23755 8.99129 7.14005 9.57629 7.11318C10.1298 7.08818 10.3443 7.08068 11.4625 7.07943V7.08093ZM15.2031 8.07772C14.8056 8.07772 14.4831 8.39985 14.4831 8.79748C14.4831 9.19498 14.8056 9.51748 15.2031 9.51748C15.6006 9.51748 15.9231 9.19498 15.9231 8.79748C15.9231 8.39998 15.6006 8.07747 15.2031 8.07747V8.07772ZM12.0006 8.91862C10.299 8.91862 8.91935 10.2982 8.91935 11.9999C8.91935 13.7015 10.299 15.0805 12.0006 15.0805C13.7022 15.0805 15.0814 13.7015 15.0814 11.9999C15.0814 10.2982 13.7021 8.91862 12.0005 8.91862H12.0006ZM12.0007 10C13.1052 10 14.0007 10.8954 14.0007 12C14.0007 13.1045 13.1052 14 12.0007 14C10.896 14 10.0007 13.1045 10.0007 12C10.0007 10.8954 10.896 10 12.0007 10Z" fill="white"/>
</svg>
