<svg width="36" height="36" viewBox="0 0 36 36" fill="none" xmlns="http://www.w3.org/2000/svg">
<circle cx="18" cy="18" r="17.5" stroke="white"/>
<path fill-rule="evenodd" clip-rule="evenodd" d="M18.0008 9C15.5565 9 15.2498 9.01069 14.2898 9.05438C13.3316 9.09825 12.6776 9.24994 12.1054 9.4725C11.5134 9.70238 11.0113 10.0099 10.5111 10.5103C10.0104 11.0106 9.70294 11.5127 9.47231 12.1044C9.24919 12.6769 9.09731 13.3311 9.05419 14.2888C9.01125 15.2488 9 15.5558 9 18C9 20.4443 9.01088 20.7501 9.05438 21.7101C9.09844 22.6682 9.25013 23.3222 9.4725 23.8945C9.70256 24.4864 10.0101 24.9886 10.5105 25.4888C11.0106 25.9894 11.5127 26.2977 12.1043 26.5276C12.6769 26.7501 13.3311 26.9018 14.289 26.9457C15.249 26.9894 15.5556 27.0001 17.9997 27.0001C20.4441 27.0001 20.7499 26.9894 21.7099 26.9457C22.668 26.9018 23.3228 26.7501 23.8954 26.5276C24.4872 26.2977 24.9886 25.9894 25.4886 25.4888C25.9892 24.9886 26.2967 24.4864 26.5274 23.8947C26.7486 23.3222 26.9005 22.668 26.9455 21.7103C26.9886 20.7503 26.9999 20.4443 26.9999 18C26.9999 15.5558 26.9886 15.249 26.9455 14.289C26.9005 13.3309 26.7486 12.6769 26.5274 12.1046C26.2967 11.5127 25.9892 11.0106 25.4886 10.5103C24.988 10.0097 24.4874 9.70219 23.8949 9.4725C23.3211 9.24994 22.6667 9.09825 21.7086 9.05438C20.7486 9.01069 20.443 9 17.998 9L18.0008 9ZM17.1938 10.6214C17.4334 10.621 17.7008 10.6214 18.0012 10.6214C20.4042 10.6214 20.689 10.63 21.638 10.6731C22.5155 10.7133 22.9917 10.8599 23.309 10.9831C23.729 11.1462 24.0284 11.3412 24.3432 11.6562C24.6582 11.9712 24.8532 12.2712 25.0167 12.6912C25.1399 13.0081 25.2867 13.4843 25.3267 14.3618C25.3698 15.3106 25.3792 15.5956 25.3792 17.9975C25.3792 20.3994 25.3698 20.6844 25.3267 21.6331C25.2865 22.5106 25.1399 22.9869 25.0167 23.3037C24.8536 23.7237 24.6582 24.0228 24.3432 24.3376C24.0282 24.6526 23.7292 24.8476 23.309 25.0108C22.9921 25.1345 22.5155 25.2808 21.638 25.3209C20.6892 25.364 20.4042 25.3734 18.0012 25.3734C15.598 25.3734 15.3132 25.364 14.3644 25.3209C13.4869 25.2804 13.0107 25.1338 12.6932 25.0106C12.2732 24.8474 11.9732 24.6524 11.6582 24.3374C11.3432 24.0224 11.1482 23.7232 10.9847 23.303C10.8615 22.9861 10.7147 22.5099 10.6748 21.6324C10.6317 20.6836 10.623 20.3986 10.623 17.9952C10.623 15.5918 10.6317 15.3083 10.6748 14.3596C10.7149 13.4821 10.8615 13.0058 10.9847 12.6886C11.1479 12.2686 11.3432 11.9686 11.6582 11.6536C11.9732 11.3386 12.2732 11.1436 12.6932 10.9801C13.0105 10.8563 13.4869 10.7101 14.3644 10.6698C15.1947 10.6323 15.5164 10.621 17.1938 10.6191V10.6214ZM22.8046 12.1166C22.2084 12.1166 21.7246 12.5998 21.7246 13.1962C21.7246 13.7925 22.2084 14.2762 22.8046 14.2762C23.4009 14.2762 23.8846 13.7925 23.8846 13.1962C23.8846 12.6 23.4009 12.1162 22.8046 12.1162V12.1166ZM18.0008 13.3779C15.4484 13.3779 13.3789 15.4474 13.3789 17.9998C13.3789 20.5523 15.4484 22.6208 18.0008 22.6208C20.5532 22.6208 22.6219 20.5523 22.6219 17.9998C22.6219 15.4474 20.5531 13.3779 18.0006 13.3779H18.0008ZM18.001 15C19.6577 15 21.001 16.3431 21.001 18C21.001 19.6568 19.6577 21 18.001 21C16.344 21 15.001 19.6568 15.001 18C15.001 16.3431 16.344 15 18.001 15Z" fill="white"/>
</svg>
