<svg width="24" height="24" viewBox="0 0 24 24" fill="none" xmlns="http://www.w3.org/2000/svg">
<g clip-path="url(#clip0_121_8114)">
<path d="M6.1763 19.4554C6.19611 19.4551 6.21574 19.4547 6.23589 19.4547C7.28525 19.4547 7.85848 19.8476 8.27701 20.1344C8.32863 20.1698 8.37529 20.2017 8.41945 20.2307C8.63935 20.3752 8.79174 20.4424 9.11784 20.4424C9.14776 20.4424 9.17578 20.4416 9.203 20.4405C9.53151 20.4268 9.67376 20.3298 9.95863 20.1345C10.1833 19.9805 10.4525 19.7961 10.8159 19.6582C10.7822 19.6341 10.749 19.609 10.7167 19.5822C10.0034 18.9888 9.90616 17.9296 10.4995 17.2162L12.217 15.1515C12.1353 15.1342 11.4156 14.9813 11.3339 14.9639C9.84771 14.6482 9.20362 12.8867 10.1356 11.6868C10.3476 11.4138 10.6197 11.2045 10.9235 11.0692C10.6597 10.475 10.7774 9.80314 11.1931 9.33569C5.243 8.12426 1.14716 14.5243 1.14716 14.5243C0.796522 16.1749 2.88525 18.1018 6.1763 19.4554Z" fill="#3E91F3"/>
<path d="M23.5282 20.0444C22.6615 20.0444 22.1952 20.3641 21.8204 20.6209C21.4852 20.8506 21.2204 21.0321 20.646 21.0321C20.0716 21.0321 19.8068 20.8506 19.4716 20.6209C19.0968 20.3641 18.6305 20.0444 17.7637 20.0444C16.897 20.0444 16.4307 20.3641 16.056 20.6209C15.7208 20.8506 15.456 21.0321 14.8816 21.0321C14.3073 21.0321 14.0425 20.8506 13.7073 20.6209C13.3326 20.3641 12.8663 20.0444 11.9996 20.0444C11.1329 20.0444 10.6666 20.3641 10.2919 20.6209C9.95676 20.8506 9.69203 21.0321 9.11772 21.0321C8.5434 21.0321 8.27863 20.8506 7.94342 20.6209C7.56872 20.3641 7.10235 20.0444 6.23571 20.0444C5.36907 20.0444 4.9027 20.3641 4.528 20.6209C4.19284 20.8506 3.92807 21.0321 3.35371 21.0321C2.77939 21.0321 2.51467 20.8506 2.1795 20.6209C1.80476 20.3641 1.33843 20.0444 0.471795 20.0444C0.211222 20.0444 0 20.2557 0 20.5162C0 20.7768 0.211222 20.988 0.471795 20.988C1.04611 20.988 1.31083 21.1695 1.646 21.3992C2.0207 21.656 2.48707 21.9757 3.35371 21.9757C4.22039 21.9757 4.68671 21.656 5.06146 21.3992C5.39662 21.1695 5.6614 20.988 6.23576 20.988C6.81012 20.988 7.07485 21.1695 7.41006 21.3992C7.78475 21.656 8.25112 21.9757 9.11776 21.9757C9.9844 21.9757 10.4507 21.656 10.8254 21.3992C11.1606 21.1695 11.4253 20.988 11.9996 20.988C12.574 20.988 12.8388 21.1695 13.174 21.3992C13.5487 21.656 14.015 21.9757 14.8817 21.9757C15.7484 21.9757 16.2147 21.656 16.5894 21.3992C16.9246 21.1695 17.1894 20.988 17.7638 20.988C18.3382 20.988 18.603 21.1695 18.9382 21.3992C19.313 21.6561 19.7793 21.9757 20.646 21.9757C21.5128 21.9757 21.9791 21.656 22.3539 21.3992C22.6891 21.1695 22.9538 20.988 23.5283 20.988C23.7888 20.988 24.0001 20.7768 24.0001 20.5162C24.0001 20.2557 23.7887 20.0444 23.5282 20.0444Z" fill="#3E91F3"/>
<path d="M18.3834 16.4614L15.931 15.9404L13.0825 19.3648C13.0221 19.4375 12.9567 19.5036 12.8875 19.5633C13.4072 19.7004 13.7591 19.9412 14.0408 20.1343C14.3493 20.3457 14.49 20.4422 14.8817 20.4422C15.2734 20.4422 15.4141 20.3457 15.7226 20.1343C16.1411 19.8474 16.7144 19.4545 17.7638 19.4545C18.6713 19.4545 19.2226 19.7483 19.6258 20.0133C19.7754 19.9122 19.9104 19.8046 20.0299 19.6909C20.4504 19.2906 20.2435 18.5812 19.6758 18.4606L19.2193 18.3637L19.3179 17.9001C19.457 17.2447 19.0387 16.6006 18.3834 16.4614Z" fill="#3E91F3"/>
<path d="M19.0082 4.19405C19.1906 3.19172 18.5258 2.23136 17.5235 2.04902C16.5212 1.86669 15.5608 2.53143 15.3785 3.53376C15.1962 4.53608 15.8609 5.49644 16.8632 5.67878C17.8655 5.86111 18.8259 5.19638 19.0082 4.19405Z" fill="#3E91F3"/>
<path d="M12.4631 11.3027L16.3745 10.6676C16.5544 10.6384 16.721 10.5546 16.8518 10.4276L18.9042 8.43483L17.3458 10.3873L18.0865 12.3774L14.9507 13.1487C14.7291 13.2032 14.5307 13.3273 14.3848 13.5027L10.9701 17.6077C10.5929 18.0611 10.6547 18.7345 11.1082 19.1116C11.5626 19.4897 12.2358 19.4259 12.6121 18.9736L15.802 15.1387C15.802 15.1387 20.1516 14.3104 20.3107 14.2961C22.0084 14.1428 23.127 12.4068 22.5212 10.7789L21.0301 6.80525C20.6265 5.72975 19.3487 5.2807 18.3611 5.86723L17.4781 6.39158C16.8774 6.74826 16.5437 7.40108 16.5758 8.06909L17.347 7.46591L15.8128 8.95555L12.1778 9.54576C11.6927 9.62451 11.3632 10.0817 11.442 10.5668C11.5208 11.0527 11.9784 11.3813 12.4631 11.3027Z" fill="#3E91F3"/>
</g>
<defs>
<clipPath id="clip0_121_8114">
<rect width="24" height="24" fill="white"/>
</clipPath>
</defs>
</svg>
