<svg width="57" height="57" viewBox="0 0 57 57" fill="none" xmlns="http://www.w3.org/2000/svg">
<rect width="56.3636" height="56.3636" rx="28.1818" fill="#6F64A6"/>
<g clip-path="url(#clip0_202_3516)">
<path d="M20.4347 28.0867C17.0173 31.5041 14.9652 36.0425 14.6564 40.8658C14.6419 41.0932 14.7258 41.3159 14.8869 41.477C15.048 41.638 15.2705 41.722 15.4981 41.7074C20.3211 41.3986 24.8594 39.3465 28.2768 35.9291L31.5426 32.6634L34.4798 35.6005C34.0588 36.4842 34.2132 37.5758 34.9438 38.3064L37.65 41.0125C38.5771 41.9396 40.0857 41.9396 41.0128 41.0125C41.9399 40.0854 41.9399 38.5769 41.0128 37.6497L38.3066 34.9436C37.576 34.2129 36.4845 34.0586 35.6007 34.4795L32.6635 31.5425L35.9129 28.2931C39.2354 24.9706 41.4047 20.4134 41.7077 15.4959C41.7217 15.2687 41.6373 15.0465 41.476 14.8858C41.3148 14.7251 41.0919 14.6414 40.8651 14.6562C36.037 14.9704 31.4932 17.0283 28.0705 20.4509L24.8211 23.7002L21.885 20.7641C22.2995 19.8981 22.1656 18.8029 21.4199 18.0572L18.7138 15.351C17.7867 14.4239 16.2782 14.4238 15.351 15.351C14.424 16.2781 14.424 17.7866 15.351 18.7137L18.0572 21.4199C18.7902 22.1529 19.881 22.304 20.7631 21.8839L23.7002 24.821L20.4347 28.0867ZM37.1857 36.0647L39.8918 38.7708C40.2009 39.0799 40.2009 39.5827 39.8918 39.8917C39.5828 40.2008 39.08 40.2007 38.7709 39.8917L36.0647 37.1856C35.7557 36.8765 35.7557 36.3737 36.0647 36.0646C36.3738 35.7557 36.8765 35.7556 37.1857 36.0647ZM19.1782 20.299L16.472 17.5929C16.1629 17.2838 16.1629 16.781 16.472 16.4719C16.781 16.163 17.2839 16.1628 17.593 16.4719L20.2991 19.1781C20.6088 19.4878 20.6089 19.9893 20.2991 20.2991C19.9901 20.608 19.4873 20.6081 19.1782 20.299ZM27.1559 34.8082C24.2304 37.7338 20.4126 39.5719 16.3212 40.0427C16.792 35.9511 18.6301 32.1331 21.5557 29.2076L24.8213 25.942L25.9546 27.0754C24.2937 28.9186 23.2087 31.0549 24.2588 32.105C25.4921 33.3384 27.9912 31.5753 29.288 30.4087L30.4217 31.5424L27.1559 34.8082ZM28.198 27.077C29.4856 25.9322 30.5228 25.4793 30.9334 25.4304C30.8845 25.841 30.4316 26.8782 29.2867 28.1657L28.198 27.077ZM28.1658 29.2866C26.8783 30.4315 25.841 30.8844 25.4305 30.9332C25.4793 30.5227 25.9322 29.4854 27.0771 28.1979L28.1658 29.2866ZM29.1915 21.5718C32.1227 18.6407 35.9474 16.7969 40.0448 16.3216C39.582 20.4032 37.7375 24.2267 34.792 27.1722L31.5426 30.4216L30.4089 29.2879C31.5852 27.9802 33.3352 25.4886 32.1052 24.2586C31.055 23.2084 28.9187 24.2936 27.0756 25.9545L25.9422 24.8211L29.1915 21.5718Z" fill="white"/>
</g>
<defs>
<clipPath id="clip0_202_3516">
<rect width="27.0545" height="27.0545" fill="white" transform="translate(14.6545 14.6545)"/>
</clipPath>
</defs>
</svg>
