<svg width="36" height="36" viewBox="0 0 36 36" fill="none" xmlns="http://www.w3.org/2000/svg">
<circle cx="18" cy="18" r="18" fill="white"/>
<path fill-rule="evenodd" clip-rule="evenodd" d="M11.2071 24.3909H24.4719C25.4299 24.3909 26.2088 23.6098 26.2088 22.6506V12.7419C26.2088 11.7811 25.4299 11 24.4719 11H11.2071C10.2491 11 9.47021 11.7811 9.47021 12.7419V22.649C9.47021 23.6098 10.2491 24.3909 11.2071 24.3909ZM16.5378 18.4252C16.8352 18.6836 17.1995 18.8117 17.5632 18.8117C17.927 18.8117 18.2907 18.6836 18.587 18.4269L24.9259 12.9633C25.1238 12.7935 25.1492 12.4905 24.9834 12.288C24.8176 12.0855 24.5218 12.0573 24.3234 12.2288L17.9811 17.693C17.7374 17.904 17.3836 17.904 17.1398 17.693L10.7975 12.2288C10.5996 12.059 10.3033 12.0855 10.1375 12.288C9.97166 12.4905 9.99709 12.7935 10.195 12.9633L16.5378 18.4252Z" fill="black"/>
</svg>
