<svg width="320" height="120" viewBox="0 0 320 120" fill="none" xmlns="http://www.w3.org/2000/svg">
<rect width="320" height="120" fill="#93D276"/>
<g clip-path="url(#clip0_237_3517)">
<path d="M65.5771 16.6394L33.0777 27.1926C25.3589 29.6991 21.1045 37.899 23.5752 45.5078C26.0459 53.1165 34.3061 57.2527 42.0249 54.7462L74.5243 44.193C82.2431 41.6865 86.4976 33.4865 84.0268 25.8778C81.5561 18.2691 73.2959 14.1329 65.5771 16.6394Z" stroke="black" stroke-miterlimit="10"/>
<path d="M55.1443 33.4743L51.4092 34.6872C50.3879 35.0188 49.8251 36.1037 50.152 37.1104L50.2057 37.276C50.5326 38.2827 51.6255 38.83 52.6467 38.4984L56.3819 37.2855C57.4032 36.9539 57.966 35.869 57.6391 34.8622L57.5854 34.6967C57.2584 33.6899 56.1656 33.1427 55.1443 33.4743Z" stroke="black" stroke-miterlimit="10"/>
<path d="M67.3651 23.0261L35.3818 33.4118C34.3606 33.7434 33.7977 34.8283 34.1246 35.835L37.5572 46.4059C37.8841 47.4126 38.977 47.9599 39.9982 47.6283L71.9815 37.2427C73.0027 36.9111 73.5656 35.8261 73.2387 34.8194L69.8061 24.2485C69.4792 23.2418 68.3863 22.6945 67.3651 23.0261Z" stroke="black" stroke-miterlimit="10"/>
</g>
<path d="M284.345 92.6432C284.301 92.5753 284.413 92.5636 284.382 92.4773C283.844 92.7336 283.296 92.9614 282.776 93.243C282.098 93.5732 281.394 93.8482 280.671 94.0653C279.01 94.6377 277.274 94.9685 275.516 95.0475C274.04 95.116 272.561 95.0293 271.103 94.7889C269.467 94.5205 267.868 94.0657 266.336 93.4335C264.687 92.7524 263.136 91.8543 261.727 90.7637C260.663 89.9203 259.678 88.9835 258.784 87.965C258.42 87.5659 258.108 87.1176 257.784 86.6826C257.722 86.5885 257.641 86.5082 257.546 86.4467C257.451 86.3853 257.344 86.344 257.232 86.3255C256.538 86.2202 255.857 86.0417 255.2 85.7932C253.998 85.3525 252.831 84.8241 251.707 84.2126C250.123 83.3357 248.723 82.166 247.583 80.767C246.628 79.545 245.937 78.1949 245.849 76.6216C245.787 75.712 245.982 74.8497 246.711 74.2323C247.704 73.381 248.85 73.0345 250.152 73.5106C251.133 73.9063 252.034 74.4758 252.811 75.191C254.154 76.3369 255.34 77.6242 256.593 78.8501C257.277 79.5328 257.917 80.2478 258.701 80.8209C258.929 80.9913 259.051 80.9951 259.175 80.7166C259.55 79.8975 259.948 79.0892 260.327 78.2738C260.349 78.1931 260.392 78.1197 260.452 78.0613C260.512 78.0029 260.587 77.9615 260.669 77.9414C260.724 77.9298 260.774 77.9041 260.815 77.8671C260.856 77.83 260.887 77.7827 260.904 77.7301C261.672 76.004 262.464 74.2911 263.344 72.6164C264.544 70.3377 265.788 68.0794 267.572 66.1728C268.162 65.5425 268.836 64.9362 269.747 64.8142C271.122 64.6356 272.199 65.1877 273.005 66.2996C273.367 66.8013 273.678 67.3523 274.215 67.7059C275.643 68.641 277.119 68.7944 278.644 67.9547C278.881 67.8235 279.126 67.6989 279.361 67.5671C280.316 67.0244 281.305 67.126 282.281 67.473C282.892 67.69 283.248 68.2194 283.547 68.7493C284.067 69.7672 284.416 70.8614 284.581 71.989C284.909 73.9672 285.091 75.9658 285.125 77.9688C285.187 79.6447 285.151 81.3195 285.132 82.9901C285.129 83.1929 285.119 83.3889 285.312 83.5381C285.431 83.6283 285.41 83.7795 285.412 83.9145C285.411 84.8047 285.419 85.6941 285.41 86.5826C285.407 86.846 285.477 86.9516 285.766 86.8981C286.52 86.7384 287.259 86.5219 287.979 86.2506C290.008 85.5381 292.006 84.7311 294.101 84.2131C294.761 84.0419 295.44 83.9528 296.123 83.948C297.427 83.9624 298.484 84.4623 299.191 85.6231C299.898 86.7839 299.687 87.8749 299.018 88.9472C298.432 89.8338 297.655 90.5797 296.742 91.1311C294.867 92.3409 292.744 92.8289 290.534 92.9827C288.718 93.091 286.894 92.962 285.11 92.5992C284.987 92.552 284.854 92.5315 284.722 92.5391C284.59 92.5467 284.461 92.5822 284.345 92.6432V92.6432Z" stroke="black" stroke-width="1.2" stroke-linecap="round" stroke-linejoin="round"/>
<path d="M260.668 77.9229C260.668 77.9229 270.384 84.5534 285.309 83.4821" stroke="black" stroke-width="1.2" stroke-linecap="round" stroke-linejoin="round"/>
<path d="M258.695 80.8008C258.695 80.8008 270.587 89.9406 285.254 86.7927" stroke="black" stroke-width="1.2" stroke-linecap="round" stroke-linejoin="round"/>
<path d="M247.196 73.8452C247.196 73.8452 252.941 75.749 255.39 82.2644C257.092 86.7909 261.041 90.9682 264.231 92.3987" stroke="black" stroke-width="1.2" stroke-linecap="round" stroke-linejoin="round"/>
<path d="M298.671 85.5981C298.671 85.5981 292.667 84.8513 287.658 89.684C284.175 93.0407 278.816 95.1182 275.322 95.0408" stroke="black" stroke-width="1.2" stroke-linecap="round" stroke-linejoin="round"/>
<path d="M266.917 70.4582C266.917 70.4582 269.651 70.4224 270.757 67.816" stroke="black" stroke-width="1.2" stroke-linecap="round" stroke-linejoin="round"/>
<path d="M282.751 74.0305C282.751 74.0305 280.297 72.8244 280.418 69.9956" stroke="black" stroke-width="1.2" stroke-linecap="round" stroke-linejoin="round"/>
<path d="M134.116 55H122.27L110.429 57.7518V105.385H122.27H134.116H145.957V57.7518L134.116 55Z" stroke="black" stroke-width="1.2" stroke-linecap="round" stroke-linejoin="round"/>
<path d="M110.429 57.7515L98 62.312L101.705 73.823C101.705 73.823 109.77 71.869 110.425 73.823L110.429 57.7515Z" stroke="black" stroke-width="1.2" stroke-linecap="round" stroke-linejoin="round"/>
<path d="M145.957 57.7515L158.382 62.312L154.677 73.823C154.677 73.823 146.612 71.869 145.957 73.823V57.7515Z" stroke="black" stroke-width="1.2" stroke-linecap="round" stroke-linejoin="round"/>
<path d="M122.163 55.623C122.163 55.623 124.523 60.8327 128.193 61.7016L122.28 64.5309C122.124 64.6055 121.95 64.6344 121.777 64.6144C121.605 64.5944 121.442 64.5263 121.308 64.4178C120.027 63.3649 116.588 60.1674 117.45 56.8536" stroke="black" stroke-width="1.2" stroke-linecap="round" stroke-linejoin="round"/>
<path d="M134.222 55.623C134.222 55.623 131.862 60.8327 128.193 61.7016L134.106 64.5309C134.262 64.6062 134.436 64.6356 134.608 64.6156C134.781 64.5956 134.944 64.527 135.078 64.4178C136.375 63.3649 139.801 60.1674 138.939 56.8536" stroke="black" stroke-width="1.2" stroke-linecap="round" stroke-linejoin="round"/>
<path d="M128.193 62.0215V71.5042H124.834" stroke="black" stroke-width="1.2" stroke-linecap="round" stroke-linejoin="round"/>
<path d="M125.337 66.737C125.863 66.737 126.29 66.3119 126.29 65.7875C126.29 65.263 125.863 64.8379 125.337 64.8379C124.81 64.8379 124.384 65.263 124.384 65.7875C124.384 66.3119 124.81 66.737 125.337 66.737Z" fill="black"/>
<path d="M125.337 69.7473C125.863 69.7473 126.29 69.3221 126.29 68.7977C126.29 68.2733 125.863 67.8481 125.337 67.8481C124.81 67.8481 124.384 68.2733 124.384 68.7977C124.384 69.3221 124.81 69.7473 125.337 69.7473Z" fill="black"/>
<path d="M100.561 61.3721L104.214 72.9865" stroke="black" stroke-width="1.2" stroke-linecap="round" stroke-linejoin="round"/>
<path d="M155.741 62.0215L152.168 73.3194" stroke="black" stroke-width="1.2" stroke-linecap="round" stroke-linejoin="round"/>
<g clip-path="url(#clip1_237_3517)">
<path d="M218.523 96H191.485C190.032 96 188.638 95.4198 187.609 94.3869C186.581 93.3539 186.002 91.9526 186 90.4907V37.5093C186.004 36.048 186.584 34.648 187.612 33.6155C188.64 32.583 190.032 32.0021 191.485 32H218.523C219.975 32.0021 221.367 32.5833 222.394 33.616C223.42 34.6487 223.998 36.0488 224 37.5093V90.4907C223.998 91.9512 223.42 93.3513 222.394 94.384C221.367 95.4167 219.975 95.9978 218.523 96ZM191.485 33.0517C190.31 33.0538 189.183 33.5239 188.351 34.3592C187.519 35.1944 187.05 36.327 187.046 37.5093V90.4907C187.048 91.6737 187.516 92.8075 188.349 93.6432C189.181 94.4789 190.309 94.9483 191.485 94.9483H218.523C219.698 94.9483 220.826 94.4787 221.657 93.6427C222.488 92.8067 222.955 91.6729 222.955 90.4907V37.5093C222.952 36.3277 222.485 35.1951 221.654 34.3596C220.824 33.5242 219.698 33.0538 218.523 33.0517H191.485Z" fill="black"/>
<path d="M223.453 43.1642H186.523C186.384 43.1642 186.251 43.1088 186.153 43.0102C186.055 42.9116 186 42.7778 186 42.6383V37.5255C186 36.0614 186.578 34.6572 187.606 33.6212C188.634 32.5852 190.029 32.0021 191.485 32H218.523C219.977 32.0043 221.37 32.5883 222.397 33.6241C223.424 34.6598 224 36.0628 224 37.5255V42.6383C224 42.7095 223.986 42.7799 223.958 42.8454C223.93 42.9108 223.89 42.9699 223.838 43.019C223.787 43.0682 223.727 43.1064 223.661 43.1314C223.594 43.1563 223.524 43.1675 223.453 43.1642ZM187.021 42.1125H222.93V37.5255C222.931 36.939 222.818 36.3581 222.596 35.8159C222.373 35.2737 222.047 34.7808 221.636 34.3654C221.224 33.9499 220.736 33.6201 220.197 33.3947C219.659 33.1693 219.082 33.0528 218.499 33.0517H191.485C190.307 33.0538 189.178 33.5261 188.345 34.3649C187.513 35.2036 187.046 36.3403 187.046 37.5255L187.021 42.1125Z" fill="black"/>
<path d="M195.651 39.1759C195.333 39.1759 195.022 39.081 194.757 38.9033C194.493 38.7255 194.287 38.4728 194.165 38.1771C194.043 37.8815 194.011 37.5562 194.073 37.2423C194.135 36.9284 194.289 36.6401 194.514 36.4138C194.739 36.1876 195.025 36.0335 195.337 35.971C195.649 35.9086 195.973 35.9407 196.266 36.0631C196.56 36.1856 196.812 36.3929 196.988 36.659C197.165 36.9251 197.259 37.2379 197.259 37.5579C197.259 37.9871 197.09 38.3986 196.788 38.702C196.487 39.0055 196.078 39.1759 195.651 39.1759ZM195.651 37.0402C195.545 37.0402 195.441 37.0718 195.352 37.131C195.264 37.1902 195.195 37.2744 195.154 37.373C195.113 37.4715 195.102 37.5801 195.122 37.685C195.142 37.7899 195.193 37.8865 195.267 37.9626C195.342 38.0388 195.437 38.091 195.541 38.1128C195.645 38.1346 195.753 38.1251 195.852 38.0853C195.95 38.0455 196.035 37.9773 196.095 37.8892C196.155 37.8012 196.188 37.6972 196.19 37.5903C196.188 37.448 196.13 37.3122 196.029 37.2123C195.928 37.1123 195.792 37.0564 195.651 37.0564V37.0402Z" fill="black"/>
<path d="M209.017 38.1161H200.975C200.836 38.1161 200.703 38.0608 200.605 37.9621C200.507 37.8635 200.452 37.7298 200.452 37.5903C200.452 37.4508 200.507 37.3171 200.605 37.2185C200.703 37.1198 200.836 37.0645 200.975 37.0645H209.017C209.156 37.0645 209.289 37.1198 209.387 37.2185C209.485 37.3171 209.54 37.4508 209.54 37.5903C209.54 37.7298 209.485 37.8635 209.387 37.9621C209.289 38.0608 209.156 38.1161 209.017 38.1161Z" fill="black"/>
</g>
<g opacity="0.9">
<circle cx="296.295" cy="52.8852" r="1.11475" transform="rotate(-90 296.295 52.8852)" fill="white"/>
<circle cx="301.869" cy="52.8852" r="1.11475" transform="rotate(-90 301.869 52.8852)" fill="white"/>
<circle cx="306.885" cy="52.8852" r="1.11475" transform="rotate(-90 306.885 52.8852)" fill="white"/>
<circle cx="296.295" cy="47.8686" r="1.11475" transform="rotate(-90 296.295 47.8686)" fill="white"/>
<circle cx="301.869" cy="47.8686" r="1.11475" transform="rotate(-90 301.869 47.8686)" fill="white"/>
<circle cx="306.885" cy="47.8686" r="1.11475" transform="rotate(-90 306.885 47.8686)" fill="white"/>
<circle cx="296.295" cy="42.2949" r="1.11475" transform="rotate(-90 296.295 42.2949)" fill="white"/>
<circle cx="291.279" cy="42.2949" r="1.11475" transform="rotate(-90 291.279 42.2949)" fill="white"/>
<circle cx="285.705" cy="42.2949" r="1.11475" transform="rotate(-90 285.705 42.2949)" fill="white"/>
<circle cx="301.869" cy="42.2949" r="1.11475" transform="rotate(-90 301.869 42.2949)" fill="white"/>
<circle cx="306.885" cy="42.2949" r="1.11475" transform="rotate(-90 306.885 42.2949)" fill="white"/>
<circle cx="296.295" cy="37.2788" r="1.11475" transform="rotate(-90 296.295 37.2788)" fill="white"/>
<circle cx="301.869" cy="37.2788" r="1.11475" transform="rotate(-90 301.869 37.2788)" fill="white"/>
<circle cx="306.885" cy="37.2788" r="1.11475" transform="rotate(-90 306.885 37.2788)" fill="white"/>
<circle cx="275.115" cy="31.7051" r="1.11475" transform="rotate(-90 275.115 31.7051)" fill="white"/>
<circle cx="280.688" cy="31.7051" r="1.11475" transform="rotate(-90 280.688 31.7051)" fill="white"/>
<circle cx="285.705" cy="31.7051" r="1.11475" transform="rotate(-90 285.705 31.7051)" fill="white"/>
<circle cx="285.705" cy="37.2788" r="1.11475" transform="rotate(-90 285.705 37.2788)" fill="white"/>
<circle cx="291.279" cy="31.7051" r="1.11475" transform="rotate(-90 291.279 31.7051)" fill="white"/>
<circle cx="291.279" cy="37.2788" r="1.11475" transform="rotate(-90 291.279 37.2788)" fill="white"/>
<circle cx="301.869" cy="31.7051" r="1.11475" transform="rotate(-90 301.869 31.7051)" fill="white"/>
<circle cx="296.295" cy="31.7051" r="1.11475" transform="rotate(-90 296.295 31.7051)" fill="white"/>
<circle cx="306.885" cy="31.7051" r="1.11475" transform="rotate(-90 306.885 31.7051)" fill="white"/>
<circle cx="275.115" cy="26.6885" r="1.11475" transform="rotate(-90 275.115 26.6885)" fill="white"/>
<circle cx="280.688" cy="26.6885" r="1.11475" transform="rotate(-90 280.688 26.6885)" fill="white"/>
<circle cx="285.705" cy="26.6885" r="1.11475" transform="rotate(-90 285.705 26.6885)" fill="white"/>
<circle cx="291.279" cy="26.6885" r="1.11475" transform="rotate(-90 291.279 26.6885)" fill="white"/>
<circle cx="296.295" cy="26.6885" r="1.11475" transform="rotate(-90 296.295 26.6885)" fill="white"/>
<circle cx="301.869" cy="26.6885" r="1.11475" transform="rotate(-90 301.869 26.6885)" fill="white"/>
<circle cx="306.885" cy="26.6885" r="1.11475" transform="rotate(-90 306.885 26.6885)" fill="white"/>
<circle cx="275.115" cy="21.1147" r="1.11475" transform="rotate(-90 275.115 21.1147)" fill="white"/>
<circle cx="280.688" cy="21.1147" r="1.11475" transform="rotate(-90 280.688 21.1147)" fill="white"/>
<circle cx="285.705" cy="21.1147" r="1.11475" transform="rotate(-90 285.705 21.1147)" fill="white"/>
<circle cx="291.279" cy="21.1147" r="1.11475" transform="rotate(-90 291.279 21.1147)" fill="white"/>
<circle cx="296.295" cy="21.1147" r="1.11475" transform="rotate(-90 296.295 21.1147)" fill="white"/>
<circle cx="301.869" cy="21.1147" r="1.11475" transform="rotate(-90 301.869 21.1147)" fill="white"/>
<circle cx="306.885" cy="21.1147" r="1.11475" transform="rotate(-90 306.885 21.1147)" fill="white"/>
</g>
<defs>
<clipPath id="clip0_237_3517">
<rect width="63.7209" height="29.1296" fill="white" transform="translate(19 31.6802) rotate(-17.9897)"/>
</clipPath>
<clipPath id="clip1_237_3517">
<rect width="38" height="64" fill="white" transform="translate(186 32)"/>
</clipPath>
</defs>
</svg>
