<svg width="24" height="24" viewBox="0 0 24 24" fill="none" xmlns="http://www.w3.org/2000/svg">
<path d="M22.125 21H21.75V20.625C21.75 20.3266 21.6315 20.0405 21.4205 19.8295C21.2095 19.6185 20.9234 19.5 20.625 19.5H19.125C18.3132 18.9201 17.6515 18.1549 17.195 17.2679C16.7384 16.3808 16.5001 15.3976 16.5 14.4V13.5C16.5002 13.0505 16.3991 12.6068 16.2044 12.2017C16.0096 11.7966 15.7261 11.4406 15.375 11.16V10.125C15.375 9.82663 15.2565 9.54048 15.0455 9.3295C14.8345 9.11853 14.5484 9 14.25 9V8.25C14.25 8.05109 14.171 7.86032 14.0303 7.71967C13.8897 7.57902 13.6989 7.5 13.5 7.5L12 0.75L10.5 7.5C10.3011 7.5 10.1103 7.57902 9.96967 7.71967C9.82902 7.86032 9.75 8.05109 9.75 8.25V9C9.45163 9 9.16548 9.11853 8.9545 9.3295C8.74353 9.54048 8.625 9.82663 8.625 10.125V11.16C8.27386 11.4406 7.9904 11.7966 7.79565 12.2017C7.6009 12.6068 7.49985 13.0505 7.5 13.5V14.4C7.49986 15.3976 7.26161 16.3808 6.80505 17.2679C6.34849 18.1549 5.68681 18.9201 4.875 19.5H3.375C3.07663 19.5 2.79048 19.6185 2.5795 19.8295C2.36853 20.0405 2.25 20.3266 2.25 20.625V21H1.875C1.57663 21 1.29048 21.1185 1.0795 21.3295C0.868526 21.5405 0.75 21.8266 0.75 22.125V23.25H23.25V22.125C23.25 21.8266 23.1315 21.5405 22.9205 21.3295C22.7095 21.1185 22.4234 21 22.125 21ZM13.125 19.5H10.875V16.9012C10.8751 16.4042 11.0726 15.9275 11.424 15.576L12 15L12.576 15.576C12.9275 15.9276 13.125 16.4044 13.125 16.9016V19.5ZM14.625 19.5H13.875V16.6819C13.8757 16.4356 13.8275 16.1916 13.7333 15.9641C13.639 15.7365 13.5006 15.5299 13.326 15.3563L12 14.0303L10.674 15.3563C10.4994 15.5299 10.361 15.7365 10.2667 15.9641C10.1725 16.1916 10.1243 16.4356 10.125 16.6819V19.5H9.375V16.6819C9.37408 16.3371 9.44155 15.9955 9.5735 15.6769C9.70546 15.3584 9.89928 15.0692 10.1437 14.826L11.7349 13.2349C11.8052 13.1646 11.9006 13.1251 12 13.1251C12.0994 13.1251 12.1948 13.1646 12.2651 13.2349L13.8563 14.826C14.1007 15.0692 14.2945 15.3584 14.4265 15.6769C14.5585 15.9955 14.6259 16.3371 14.625 16.6819V19.5Z" fill="#C59000"/>
<path d="M22.125 6C22.4234 6 22.7095 5.88147 22.9205 5.6705C23.1315 5.45952 23.25 5.17337 23.25 4.875C23.25 4.57663 23.1315 4.29048 22.9205 4.0795C22.7095 3.86853 22.4234 3.75 22.125 3.75C21.9944 3.75116 21.8651 3.77528 21.7429 3.82125C21.7429 3.79687 21.75 3.77437 21.75 3.75C21.75 3.35218 21.592 2.97064 21.3107 2.68934C21.0294 2.40804 20.6478 2.25 20.25 2.25C19.8522 2.25 19.4706 2.40804 19.1893 2.68934C18.908 2.97064 18.75 3.35218 18.75 3.75C18.75 3.77437 18.756 3.79687 18.7571 3.82125C18.6349 3.77528 18.5056 3.75116 18.375 3.75C18.0766 3.75 17.7905 3.86853 17.5795 4.0795C17.3685 4.29048 17.25 4.57663 17.25 4.875C17.25 5.17337 17.3685 5.45952 17.5795 5.6705C17.7905 5.88147 18.0766 6 18.375 6H22.125Z" fill="#C59000"/>
<path d="M5.625 8.25C5.92337 8.25 6.20952 8.13147 6.4205 7.9205C6.63147 7.70952 6.75 7.42337 6.75 7.125C6.75 6.82663 6.63147 6.54048 6.4205 6.3295C6.20952 6.11853 5.92337 6 5.625 6C5.49443 6.00116 5.36509 6.02528 5.24288 6.07125C5.24288 6.04688 5.25 6.02437 5.25 6C5.25 5.60218 5.09196 5.22064 4.81066 4.93934C4.52936 4.65804 4.14782 4.5 3.75 4.5C3.35218 4.5 2.97064 4.65804 2.68934 4.93934C2.40804 5.22064 2.25 5.60218 2.25 6C2.25 6.02437 2.256 6.04688 2.25713 6.07125C2.13491 6.02528 2.00557 6.00116 1.875 6C1.57663 6 1.29048 6.11853 1.0795 6.3295C0.868526 6.54048 0.75 6.82663 0.75 7.125C0.75 7.42337 0.868526 7.70952 1.0795 7.9205C1.29048 8.13147 1.57663 8.25 1.875 8.25H5.625Z" fill="#C59000"/>
</svg>
