<svg width="57" height="57" viewBox="0 0 57 57" fill="none" xmlns="http://www.w3.org/2000/svg">
<rect width="56.3636" height="56.3636" rx="28.1818" fill="#5C4EF7"/>
<g clip-path="url(#clip0_202_3517)">
<path d="M23.0142 22.4208C22.6078 22.0142 21.9143 22.1629 21.7117 22.7029L14.9866 40.6366C14.7483 41.2719 15.3705 41.8958 16.007 41.657C16.9077 41.3192 33.2179 35.2029 33.9407 34.9319C34.4782 34.7304 34.6314 34.0379 34.2228 33.6294L23.0142 22.4208ZM22.7637 24.412L26.0207 27.6689C26.246 30.3774 27.2494 32.9812 28.8855 35.1346L25.4951 36.406C22.9591 33.768 21.6649 30.0799 22.0096 26.4229L22.7637 24.412ZM20.6268 38.2316C19.845 37.3436 19.1947 36.354 18.6879 35.2806L20.6019 30.1765C21.0773 32.7872 22.2498 35.1226 23.8944 37.0062L20.6268 38.2316ZM17.9489 37.2516C18.2805 37.7996 18.6487 38.3238 19.0518 38.8223L17.083 39.5606L17.9489 37.2516ZM30.4434 34.5504C29.2547 33.1042 28.4016 31.4032 27.9438 29.5921L32.2316 33.8798L30.4434 34.5504Z" fill="white"/>
<path d="M33.3506 29.4578C33.6601 29.7673 34.1619 29.7673 34.4714 29.4578C37.4531 26.476 40.3565 27.3979 40.3855 27.4075C40.8008 27.5459 41.2496 27.3215 41.3881 26.9062C41.5266 26.4911 41.3021 26.0421 40.8868 25.9037C40.7305 25.8516 37.0174 24.6701 33.3506 28.3369C33.041 28.6464 33.041 29.1483 33.3506 29.4578Z" fill="white"/>
<path d="M27.1858 23.2931C27.4952 23.6026 27.9971 23.6027 28.3066 23.2931C31.9734 19.6263 30.7919 15.9132 30.7398 15.7569C30.6014 15.3417 30.1525 15.1171 29.7373 15.2556C29.322 15.3941 29.0976 15.8429 29.236 16.2582C29.2457 16.2872 30.1675 19.1906 27.1858 22.1723C26.8762 22.4818 26.8762 22.9836 27.1858 23.2931Z" fill="white"/>
<path d="M29.9878 24.9745C29.6782 25.284 29.6782 25.7858 29.9878 26.0953C30.2944 26.402 30.7927 26.406 31.1039 26.1C31.5133 25.896 32.7842 26.6612 33.4905 25.9552C34.1891 25.2564 33.4468 24.0114 33.6322 23.5751C34.0692 23.3892 35.3137 24.1319 36.0124 23.4333C36.7112 22.7346 35.9688 21.4895 36.1542 21.0532C36.5918 20.8672 37.8356 21.61 38.5343 20.9113C39.2331 20.2126 38.4908 18.9676 38.6762 18.5312C39.1111 18.3462 40.3581 19.0873 41.0564 18.3893C41.7623 17.6833 40.9986 16.4102 41.2011 16.0028C41.506 15.693 41.5043 15.1947 41.1964 14.8867C40.8869 14.5772 40.3851 14.5772 40.0755 14.8867C39.4508 15.5114 39.5731 16.3933 39.6907 17.0238C39.0602 16.9061 38.1783 16.7839 37.5536 17.4086C36.9289 18.0333 37.0512 18.9152 37.1688 19.5457C36.5383 19.4281 35.6563 19.3058 35.0317 19.9305C34.407 20.5552 34.5293 21.4371 34.6469 22.0676C34.0163 21.95 33.1345 21.8277 32.5098 22.4524C31.8851 23.0771 32.0073 23.959 32.125 24.5895C31.4944 24.472 30.6124 24.3498 29.9878 24.9745Z" fill="white"/>
<path d="M34.4714 18.2492C34.7809 17.9397 34.7809 17.4379 34.4714 17.1284C34.1619 16.8189 33.6601 16.8189 33.3506 17.1284C33.041 17.4379 33.041 17.9397 33.3506 18.2492C33.66 18.5588 34.1619 18.5588 34.4714 18.2492Z" fill="white"/>
<path d="M39.5152 24.0857C39.9529 24.0857 40.3078 23.7309 40.3078 23.2932C40.3078 22.8555 39.9529 22.5006 39.5152 22.5006C39.0775 22.5006 38.7227 22.8555 38.7227 23.2932C38.7227 23.7309 39.0775 24.0857 39.5152 24.0857Z" fill="white"/>
<path d="M37.834 30.5788C37.5244 30.8883 37.5244 31.3901 37.834 31.6997C38.1435 32.0092 38.6453 32.0092 38.9548 31.6997C39.2643 31.3901 39.2643 30.8883 38.9548 30.5788C38.6453 30.2693 38.1435 30.2693 37.834 30.5788Z" fill="white"/>
<path d="M26.6252 19.3701C26.9347 19.0606 26.9347 18.5588 26.6252 18.2492C26.3157 17.9397 25.8139 17.9397 25.5044 18.2492C25.1948 18.5587 25.1948 19.0606 25.5044 19.3701C25.8139 19.6796 26.3157 19.6796 26.6252 19.3701Z" fill="white"/>
</g>
<defs>
<clipPath id="clip0_202_3517">
<rect width="27.0545" height="27.0545" fill="white" transform="translate(14.6545 14.6545)"/>
</clipPath>
</defs>
</svg>
