<?xml version="1.0" encoding="utf-8"?>
<!-- Generator: Adobe Illustrator 25.2.0, SVG Export Plug-In . SVG Version: 6.00 Build 0)  -->
<svg version="1.1" id="Layer_1" xmlns="http://www.w3.org/2000/svg" xmlns:xlink="http://www.w3.org/1999/xlink" x="0px" y="0px"
	 viewBox="0 0 1500 1500" style="enable-background:new 0 0 1500 1500;" xml:space="preserve">
<style type="text/css">
	.st0{fill:#FFC000;}
	.st1{fill:#404040;}
	.st2{fill:#FFFFFF;}
</style>
<g>
	<path class="st0" d="M252.8,930c-99,0.2-179.6-80.2-180.1-178.9c-0.6-99.4,80.1-180.8,179.9-181.1c97.5-0.2,180.2,78,180.6,179.2
		C433.6,851,350.8,930.4,252.8,930z"/>
	<path class="st1" d="M873.1,768.7c4,0,7.9,0,11.9,0c4.7,0.1,6.2,1.1,7.7,5.5c6,17.6,12,35.1,18.1,52.7c0.3,1,0.6,2.1,1.1,3
		c0.8,1.5,2.2,1.6,3,0.1c0.5-0.8,0.7-1.8,1-2.7c5.7-17.3,11.5-34.6,17.2-51.8c0.2-0.7,0.5-1.4,0.7-2c0.8-3.1,3-4.6,6.1-4.7
		c2.6-0.1,5.3-0.1,7.9-0.1c4.3,0,8.7,0,13,0c4.7,0.1,6.2,1.1,7.6,5.5c5.8,17.8,11.7,35.5,17.5,53.3c0.3,1,0.7,2.1,1.2,3
		c0.8,1.3,2.1,1.3,2.9,0c0.6-1,1-2.2,1.4-3.3c5.9-17.1,11.7-34.2,17.6-51.3c0.2-0.6,0.4-1.1,0.6-1.7c1.5-4.1,3.1-5.4,7.4-5.5
		c4.9-0.1,9.9,0,14.8,0c3.4,0,6.7,0,10.1,0c4.5,0.1,5.5,1.5,4,5.9c-0.8,2.5-1.7,5-2.6,7.5c-12.4,35-24.8,70-37.3,105
		c-0.3,0.9-0.6,1.8-1,2.7c-1.1,2.7-3.1,4.2-6.1,4.2c-7.1,0-14.2,0-21.3,0c-3.7,0-5.1-1.1-6.3-4.7c-3.6-10.8-7.2-21.6-10.7-32.4
		c-2.4-7.2-4.8-14.3-7.1-21.5c-0.2-0.5-0.3-0.9-0.4-1.4c-0.4-1-0.5-2.3-1.9-2.4c-1.6-0.1-1.8,1.3-2.2,2.4
		c-4.3,13-8.6,25.9-12.9,38.9c-1.8,5.3-3.5,10.7-5.3,16c-1.3,3.9-2.7,4.9-6.9,5c-6.7,0-13.5,0-20.2,0c-3.9,0-5.3-1.1-6.6-4.8
		c-13.5-38.1-26.9-76.1-40.4-114.2c-0.2-0.6-0.5-1.1-0.6-1.7c-0.7-2.9,0.3-4.4,3.4-4.5C864,768.6,868.6,768.7,873.1,768.7
		C873.1,768.7,873.1,768.7,873.1,768.7z"/>
	<path class="st1" d="M505.9,831.4c0-18.5,0-36.9,0-55.4c0-1,0-1.9,0-2.9c0.2-2.9,1.3-4,4.3-4.4c0.8-0.1,1.7-0.1,2.5-0.1
		c27.3,0,54.5,0,81.8,0c1,0,1.9,0,2.9,0.1c2.6,0.4,3.9,1.7,3.9,4.3c0.1,7.7,0.1,15.4,0,23c0,2.8-1.5,4.1-4.2,4.4c-1,0.1-1.9,0-2.9,0
		c-15.6,0-31.2,0-46.8,0c-1.1,0-2.2,0-3.2,0.1c-2.6,0.3-3.9,1.5-4,4.1c-0.1,2.3-0.1,4.6,0,6.8c0.1,2.7,1.5,4.1,4.3,4.3
		c0.8,0.1,1.7,0,2.5,0c13.3,0,26.7,0,40,0c1,0,1.9,0,2.9,0c3.2,0.2,4.6,1.4,4.6,4.7c0.1,6.8,0,13.7,0,20.5c0,0.8,0,1.7,0,2.5
		c-0.2,3-1.4,4.3-4.5,4.5c-0.8,0.1-1.7,0-2.5,0c-13.3,0-26.7,0-40,0c-1,0-1.9,0-2.9,0c-3.1,0.2-4.3,1.4-4.5,4.5c0,0.8,0,1.7,0,2.5
		c0,10.7,0,21.4,0,32c0,0.7,0,1.4,0,2.2c-0.2,3.2-1.5,4.6-4.6,4.7c-3,0.1-6,0-9,0c-4.9,0-9.9,0-14.8,0c-4.7,0-5.7-1-5.7-5.7
		C505.9,869.3,505.9,850.3,505.9,831.4z"/>
	<path class="st1" d="M883.9,708.2c0-5.9,0-11.8,0-17.6c0-3.7-0.9-7.1-2.8-10.3c-10.7-18.4-22.3-36.1-33.3-54.3
		c-2.4-3.9-4.7-7.8-7-11.7c-0.4-0.7-0.9-1.4-1.2-2.2c-1.4-3.1-0.2-4.9,3.1-5c3.5-0.1,7,0,10.5,0c5.5,0,11.1,0.1,16.6,0
		c4.3-0.1,7.2,1.5,9.4,5.3c6.2,11.1,12.6,22.1,19,33.1c2.6,4.4,3.7,4.4,6.2,0c6.3-11,12.7-22,18.9-33.1c2-3.7,4.9-5.3,9-5.3
		c9,0.1,18,0,27,0c0.7,0,1.5,0,2.2,0.1c2.3,0.4,3.1,1.7,2.2,3.8c-0.5,1.2-1.2,2.3-1.9,3.5c-13.3,21.5-26.6,43.1-39.9,64.6
		c-2.6,4.1-3.8,8.4-3.7,13.3c0.1,11.3-0.1,22.6,0.1,33.8c0.1,4.5-1.2,6.4-6.4,6.2c-7.4-0.2-14.9,0-22.3-0.1c-4.1,0-5.3-1.2-5.4-5.4
		C883.9,720.7,883.9,714.5,883.9,708.2z"/>
	<path class="st1" d="M1130.7,607c13.8,0,27.6,0,41.4,0c0.7,0,1.4,0,2.2,0c4.2,0.1,5.4,1.2,5.5,5.3c0.1,4.3,0,8.6,0,13
		c0,2.9,0.1,5.8,0,8.6c-0.1,3.5-1.4,4.7-4.9,4.7c-6.5,0-13,0-19.5,0c-7.3,0-7.9,0.5-7.9,7.7c0,17.2,0,34.3,0,51.5
		c0,9.2,0,18.5,0,27.7c0,0.8,0,1.7,0,2.5c-0.2,3.1-1.4,4.3-4.6,4.3c-6.7,0.1-13.5,0-20.2,0c-1.6,0-3.1,0.1-4.7,0
		c-2.8-0.1-4.2-1.4-4.5-4.1c-0.1-1.1-0.1-2.2-0.1-3.2c0-26.3,0-52.5,0-78.8c0-0.8,0-1.7,0-2.5c-0.1-3.8-1.1-5-4.9-5
		c-6.7-0.1-13.5,0-20.2,0c-0.8,0-1.7,0-2.5,0c-3.3-0.1-4.8-1.5-4.9-4.9c-0.1-3.6,0-7.2,0-10.8c0-3.2,0-6.5,0-9.7
		c0-4.9,1.2-6.2,6.1-6.2C1101.7,607,1116.2,607,1130.7,607z"/>
	<path class="st1" d="M621.5,669.6c0-18.5,0-37,0-55.4c0-0.8,0-1.7,0-2.5c0.1-3.2,1.4-4.5,4.6-4.6c3.4-0.1,6.7,0,10.1,0
		c4,0,7.9,0.1,11.9,0c5.9-0.3,7.4,1.1,7.4,7.2c-0.2,15-0.1,30-0.1,45c0,11.8,0,23.5,0,35.3c0,1-0.1,1.9,0.1,2.9
		c0.3,2,1.5,3.2,3.6,3.4c1,0.1,1.9,0,2.9,0c15.1,0,30.3,0,45.4,0c0.7,0,1.4,0,2.2,0c4.3,0.1,5.6,1.4,5.6,5.6c0,6.8,0,13.7,0,20.5
		c0,0.4,0,0.7,0,1.1c-0.2,2.9-1.6,4.3-4.5,4.4c-0.6,0-1.2,0-1.8,0c-27,0-54.1,0-81.1,0c-1,0-1.9,0.1-2.9-0.1c-1.9-0.3-3-1.4-3.3-3.3
		c-0.2-1.1-0.1-2.2-0.1-3.2C621.5,707.1,621.5,688.4,621.5,669.6z"/>
	<path class="st1" d="M1067.9,670c0,18.5,0,37,0,55.4c0,0.8,0,1.7,0,2.5c-0.2,2.8-1.5,4.3-4.2,4.3c-8.5,0.1-17.1,0.1-25.6,0
		c-2.8,0-4-1.4-4.2-4.2c-0.1-0.8,0-1.7,0-2.5c0-37.1,0-74.2,0-111.2c0-6.5,0.7-7.2,7.3-7.2c7,0,13.9,0,20.9,0c4.7,0,5.9,1.3,5.9,6
		C1067.9,632.1,1067.9,651.1,1067.9,670z"/>
	<path class="st1" d="M234.9,801.6c-8.1,4.2-15.9,9-23.8,13.5c-13,7.4-26,14.9-39,22.5c-11.1,6.4-24,0-26.8-10.8
		c-0.4-1.7-0.5-3.3-0.5-5c0-47.7,0.1-95.4-0.1-143.2c-0.1-13.2,14-23.5,27.4-15.8c16.7,9.5,33.3,19.2,49.9,28.7
		c4.3,2.4,8.4,5.1,12.9,7.2c2.4-0.2,4,1.5,5.8,2.5c18.2,10.6,36.6,21.1,54.8,31.6c3.3,1.9,6.2,4.1,8.2,7.4c5.6,9.4,2.8,20.6-7,26.4
		c-15.5,9.2-31.2,18-46.7,27c-3.7,2.2-7.4,4.4-11.2,6.5C237.6,800.8,236.4,801.7,234.9,801.6z"/>
	<path class="st2" d="M234.9,801.6c0.9-1,2.2-1.5,3.3-2.1c19.2-11.1,38.4-22.2,57.6-33.2c4.7-2.7,8-6.4,9.4-11.7
		c1.9-7.4-0.9-14.9-7.2-19.3c-1.2-0.8-2.4-1.5-3.7-2.2c-18.7-10.8-37.4-21.5-56-32.3c-1.1-0.7-2.2-1.4-3.3-2.1
		c0-6.7,0.3-13.4,0-20.1c-0.4-9.6,8.1-20.1,20.9-18.2c2.8,0.4,5.2,1.6,7.6,3c28.6,16.5,57.1,33,85.7,49.5c12.2,7,24.3,14.1,36.5,21
		c4.9,2.8,8.4,6.7,9.6,12.4c1.7,7.7-1.5,15.1-8.5,19.4c-6.2,3.7-12.5,7.2-18.7,10.8c-35,20.2-70,40.4-105,60.6
		c-5.2,3-10.6,3.9-16.2,1.9c-6.9-2.4-11.6-8.8-11.8-16.1C234.9,815.7,234.9,808.6,234.9,801.6z"/>
	<path class="st1" d="M1405.3,819.1c-3.8-22.7-16.2-38.5-38-46.6c-8.3-3.1-17.1-3.8-25.9-3.8c-14.1-0.1-28.1,0-42.2,0
		c-1.1,0-2.2,0-3.2,0.2c-2.2,0.4-3.3,1.6-3.6,3.8c-0.1,0.9,0,1.9,0,2.9c0,18.6,0,37.2,0,55.8c0,18.6,0,37.2,0,55.8
		c0,0.8,0,1.7,0,2.5c0.2,2.8,1.5,4.1,4.3,4.3c0.8,0.1,1.7,0,2.5,0c14.7,0,29.3,0,44,0c4.6,0,9.1-0.2,13.6-1
		c22.8-4.3,38.6-16.8,46.1-39C1406.7,842.6,1407.2,830.8,1405.3,819.1z M1370.8,842.3c-2.5,11.5-10.2,18.3-21.8,19.7
		c-6,0.7-12,0.4-18,0.4c-3.3,0-4.5-1.5-4.5-5.1c0-8.6,0-17.3,0-25.9c0-8.4,0-16.8,0-25.2c0-4.5,1.1-5.6,5.5-5.6
		c4.8,0,9.6-0.1,14.4,0.1c13.9,0.6,22.8,8.6,25,22.3C1372.3,829.5,1372.2,835.9,1370.8,842.3z"/>
	<path class="st1" d="M858,889c-0.8-1-1.6-2.1-2.4-3.2c-7.6-9.8-15.2-19.5-22.8-29.3c-2.7-3.4-2.5-4.8,1.1-7.3
		c4.4-3.1,7.9-7,10.5-11.7c6.9-12.1,8.3-24.9,4.4-38.2c-4.3-14.5-14-24-28.4-28.6c-5.6-1.8-11.3-2.1-17.1-2.1c-16,0-32,0-47.9,0
		c-0.8,0-1.7,0-2.5,0c-3.1,0.3-4.3,1.5-4.4,4.6c-0.1,1,0,1.9,0,2.9c0,18.4,0,36.7,0,55.1c0,18.8,0,37.7,0,56.5c0,5.3,0.9,6.2,6,6.2
		c7.3,0,14.7,0,22,0c4.7,0,5.8-1.1,5.8-5.7c0-7.6,0-15.1,0-22.7c0-1,0-1.9,0-2.9c0.2-3.2,1.3-4.3,4.4-4.6c4.8-0.4,8.5,1,11.4,5.2
		c6.1,8.8,12.6,17.3,18.8,25.9c2.4,3.3,5.4,4.8,9.5,4.7c9.4-0.1,18.7,0,28.1,0c0.4,0,0.7,0,1.1,0c1.2,0,2.5,0.1,3.1-1.2
		C859.2,891.4,858.9,890.1,858,889z M814.8,821c-2.7,3.7-6.2,5.5-10.7,5.6c-2.8,0.1-5.5,0-8.3,0c-2.9,0-5.8,0-8.6,0
		c-3.5-0.1-4.9-1.4-5-4.7c-0.1-5.6-0.1-11.3,0-16.9c0.1-3.2,1.4-4.7,4.6-4.7c6.1-0.1,12.2-0.1,18.4,0.1
		C815.9,800.8,819.7,814.2,814.8,821z"/>
	<path class="st1" d="M1279.2,889.4c-0.5-0.8-1.1-1.6-1.7-2.3c-7.9-10.1-15.8-20.3-23.6-30.4c-2.8-3.7-2.7-4.8,1.2-7.5
		c4.4-3.1,7.8-7.1,10.4-11.7c6.6-11.7,8.1-24.2,4.5-37.2c-4.9-17.9-19.8-30-38.4-31.2c-12.6-0.8-25.2-0.2-37.8-0.3
		c-6.4-0.1-12.7-0.1-19.1,0c-4.2,0.1-5.3,1.3-5.4,5.4c0,0.8,0,1.7,0,2.5c0,18.2,0,36.5,0,54.7c0,19,0,37.9,0,56.9
		c0,4.7,1.1,5.7,5.7,5.8c7.6,0,15.1,0,22.7,0c4.3,0,5.3-1,5.3-5.4c0-7.9,0-15.8,0-23.7c0-1.1,0-2.2,0.2-3.2c0.4-2.1,1.5-3.1,3.6-3.4
		c4.8-0.6,8.8,0.4,11.9,4.9c6.1,8.9,12.7,17.4,19,26.2c2.4,3.3,5.4,4.8,9.5,4.7c6.7-0.1,13.5,0,20.2,0c3.1,0,6.2,0.1,9.4,0
		C1279.8,893.8,1280.7,892,1279.2,889.4z M1232.1,824.5c-2.2,1.4-4.6,2.1-7.2,2.1c-2.8,0-5.5,0-8.3,0c-2.9,0-5.8,0.1-8.6,0
		c-3.4-0.1-4.9-1.5-5-4.8c-0.1-5.5-0.1-11,0-16.5c0.1-3.4,1.5-4.9,4.8-5c6.1-0.1,12.3-0.2,18.4,0.2c5.9,0.4,9.9,4.2,11.2,10
		C1238.7,816.3,1236.8,821.5,1232.1,824.5z"/>
	<path class="st1" d="M673.3,766.5c-39.4,0.1-65.4,33.3-64.8,64.9c-0.6,32.6,26.5,64.9,64.7,65c35.6,0,65-29.4,65-64.9
		C738.2,795.9,708.9,766.4,673.3,766.5z M702.7,840.6c-3.4,11.7-11.4,19.4-23.3,22.3c-9.5,2.3-18.1-0.3-25.5-6.6
		c-7.7-6.6-11.4-15.2-11.5-21.9c0.2-18.6,10.8-31.7,25.5-34.6c10.7-2.1,19.8,1.6,27.1,9.2C703.6,817.9,706.2,828.8,702.7,840.6z"/>
	<path class="st1" d="M857.6,725.1c-11.2-25.6-22.2-51.3-33.2-76.9c-5.1-11.9-10.3-23.8-15.3-35.7c-1.3-3.1-3.2-5.2-6.6-5.2
		c-7.8-0.1-15.6-0.1-23.4,0c-3,0-5.2,1.6-6.4,4.4c-0.3,0.8-0.7,1.5-1,2.3c-15.6,36.4-31.2,72.7-46.8,109.1c-0.7,1.5-1.4,3.1-1.9,4.7
		c-0.6,2,0.2,3.6,2.1,4.3c0.9,0.4,1.9,0.3,2.8,0.3c9.1,0,18.3,0,27.4,0c3.4,0,5.7-1.4,7.1-4.5c1.3-2.8,2.7-5.6,3.9-8.5
		c1.4-3.4,3.9-5,7.6-4.9c11.2,0,22.4,0,33.5,0c3.7,0,6.1,1.6,7.6,5c1.2,2.8,2.4,5.5,3.7,8.2c1.4,3.1,3.8,4.8,7.3,4.7
		c4.6-0.1,9.1,0,13.7,0c4.3,0,8.7-0.3,13,0.1C858.1,732.8,859.8,729.9,857.6,725.1z M797.4,685.4c-2.3,0.1-4.6,0-6.8,0
		c-2.4,0-4.8,0.1-7.2,0c-2.8-0.1-3.7-1.4-2.6-4c2.6-6.6,5.4-13.1,8.1-19.6c0.1-0.3,0.3-0.7,0.5-1c0.9-1.5,1.7-1.6,2.6-0.1
		c0.3,0.5,0.5,1.1,0.7,1.6c2.6,6.2,5.2,12.4,7.7,18.6C801.7,684.1,800.9,685.3,797.4,685.4z"/>
	<path class="st1" d="M1157.5,886.7c-15.2-34.9-30.2-70-45.2-105c-1.2-2.9-2.4-5.7-3.7-8.6c-1.1-2.5-3-4.1-5.8-4.1
		c-8,0-16.1,0-24.1,0c-2.6,0-4.5,1.4-5.7,3.7c-0.4,0.9-0.8,1.7-1.2,2.6c-15.9,37-31.7,74-47.6,111c-0.4,1-0.9,2-1.2,3
		c-0.6,2.1,0.4,3.8,2.5,4.4c0.8,0.2,1.7,0.2,2.5,0.2c9.1,0,18.3,0,27.4,0c3.4,0,5.7-1.4,7.1-4.5c1.2-2.7,2.6-5.4,3.8-8.2
		c1.5-3.7,4.1-5.3,8.1-5.1c5.4,0.2,10.8,0,16.2,0c5.6,0,11.3,0.1,16.9,0c3.7-0.1,6.1,1.6,7.6,4.9c1,2.4,2.3,4.8,3.2,7.2
		c1.5,4,4.2,5.7,8.6,5.6c8.6-0.2,17.3-0.3,25.9,0C1158.4,894.2,1159.6,891.4,1157.5,886.7z M1098.2,846.9c-2.5,0.1-5,0-7.6,0
		c-2.4,0-4.8,0.1-7.2,0c-2.9-0.1-3.8-1.2-2.7-3.8c2.7-6.7,5.5-13.3,8.2-19.9c0.3-0.8,0.7-1.7,1.6-1.8c1.2-0.1,1.5,1,1.8,1.9
		c2.8,6.6,5.5,13.3,8.2,19.9C1101.5,845.7,1100.8,846.8,1098.2,846.9z"/>
	<path class="st1" d="M605.9,637.6c-6.4-18.5-23.3-30.3-42.9-30.5c-15.1-0.2-30.3,0-45.4-0.1c-2.2,0-4.3,0-6.5,0
		c-3.9,0.1-5.1,1.3-5.2,5.3c0,0.7,0,1.4,0,2.2c0,18.4,0,36.7,0,55.1c0,19.1,0,38.2,0,57.2c0,4.4,1.1,5.6,5.5,5.6
		c7.6,0,15.1,0,22.7,0c4.7,0,5.9-1.2,5.9-6c0-7.6,0-15.1,0-22.7c0-3.6,1.4-4.9,5-5.1c1.7-0.1,3.4,0,5,0c6.8-0.1,13.7,0.4,20.5-0.8
		c11-1.9,20.9-6,28-14.8C609.7,669.4,611.5,653.8,605.9,637.6z M570.6,664.1c-1.9,2-4.5,2.7-7.2,2.8c-3.1,0-6.2,0-9.4,0
		c-3.1,0-6.2,0.1-9.4,0c-3.2-0.1-4.6-1.4-4.6-4.6c-0.1-6.3-0.1-12.7,0-19c0-3,1.4-4.5,4.4-4.5c5.8-0.1,11.5-0.2,17.3,0.1
		c5.9,0.4,10.2,3.6,12.1,9.2C575.9,653.9,574.9,659.4,570.6,664.1z"/>
</g>
</svg>
