<svg width="116" height="116" viewBox="0 0 116 116" fill="none" xmlns="http://www.w3.org/2000/svg">
<g clip-path="url(#clip0_121_8830)">
<path d="M55.6656 5.12354C25.0897 5.12354 0.302979 29.9103 0.302979 60.4861C0.302979 63.7521 0.588153 66.9511 1.13048 70.0616L46.7668 115.133C49.6642 115.601 52.6357 115.849 55.6653 115.849C86.2412 115.849 111.028 91.0622 111.028 60.4863C111.028 29.9105 86.2414 5.12354 55.6656 5.12354Z" fill="#ABA8FF"/>
<path d="M71.4621 26.914C78.8523 26.914 84.8432 20.9231 84.8432 13.5329C84.8432 6.14277 78.8523 0.151855 71.4621 0.151855C64.072 0.151855 58.0811 6.14277 58.0811 13.5329C58.0811 20.9231 64.072 26.914 71.4621 26.914Z" fill="#42C3FC"/>
<path d="M77.3184 25.5662C77.2221 25.4864 77.1136 25.4184 76.9885 25.3748C73.4663 24.1484 73.7564 21.3764 74.1598 19.9885C74.2929 19.5307 74.1198 19.0458 73.732 18.7685C72.3516 17.7824 72.7872 16.2422 73.0866 15.5419C73.1949 15.2883 73.2073 15.0043 73.1135 14.7451L70.6624 7.96735C70.5612 7.68782 70.3483 7.46615 70.079 7.33983C67.044 5.91599 67.5092 2.54338 67.84 1.18484C67.8834 1.007 67.8785 0.824868 67.8333 0.653809C62.2071 2.23606 58.0811 7.40084 58.0811 13.5328C58.0811 20.9229 64.072 26.9139 71.4621 26.9139C73.5625 26.9139 75.5495 26.4287 77.3184 25.5662Z" fill="#1AA9E8"/>
<path d="M71.462 7.47168C67.4892 7.47168 64.0231 9.64009 62.1821 12.8577C61.9426 13.2764 61.9426 13.7898 62.1821 14.2085C64.0231 17.4261 67.4895 19.5946 71.462 19.5946C75.4348 19.5946 78.901 17.4261 80.7422 14.2085C80.9817 13.7898 80.9817 13.2764 80.7422 12.8577C78.901 9.64009 75.4348 7.47168 71.462 7.47168Z" fill="#E9EFFF"/>
<path d="M73.7319 18.7687C72.3514 17.7826 72.7871 16.2424 73.0865 15.5421C73.1948 15.2886 73.2072 15.0045 73.1134 14.7453L70.6623 7.96755C70.6008 7.7974 70.4942 7.65233 70.3624 7.53369C66.8565 7.89276 63.8509 9.94118 62.1821 12.8576C61.9426 13.2763 61.9426 13.7897 62.1821 14.2084C64.0231 17.426 67.4892 19.5944 71.462 19.5944C72.3792 19.5944 73.2677 19.474 74.1172 19.2566C74.0383 19.0659 73.9088 18.895 73.7319 18.7687Z" fill="#BEC8F7"/>
<path d="M113.939 35.5046C115.639 28.314 111.188 21.1069 103.997 19.4072C96.8065 17.7075 89.5994 22.1587 87.8997 29.3494C86.1999 36.54 90.6512 43.7471 97.8418 45.4468C105.032 47.1465 112.24 42.6953 113.939 35.5046Z" fill="#FF4155"/>
<path d="M105.341 36.9536C105.305 36.5089 104.977 36.1487 104.545 36.0353C104.182 35.9397 103.943 35.7146 103.823 35.5718C103.772 35.5112 103.73 35.4448 103.695 35.3736C103.485 34.942 102.273 32.6586 99.5203 31.1801C97.3948 30.0387 97.5821 28.4415 97.8913 27.5779C98.0293 27.1919 97.9259 26.7637 97.6325 26.4776C95.0176 23.9251 96.2636 21.1861 96.9976 20.0354C97.0934 19.8852 97.146 19.717 97.1598 19.5469C91.5919 21.1664 87.5215 26.3032 87.5215 32.3935C87.5215 39.7837 93.5124 45.7746 100.903 45.7746C104.89 45.7746 108.468 44.0285 110.919 41.2615C106.311 41.4586 105.467 38.5126 105.341 36.9536Z" fill="#E80054"/>
<path d="M108.086 29.3111C106.876 27.0948 104.035 26.3613 101.832 27.5957L101.294 27.8974C101.051 28.0337 100.755 28.0337 100.512 27.8974L99.8758 27.5413C97.6579 26.2985 94.8518 27.1359 93.6774 29.3906H93.6772C92.5692 31.5181 93.3149 34.1507 95.3894 35.3551C97.1388 36.3711 98.7972 37.644 100.191 39.1645C100.572 39.5801 101.233 39.5801 101.614 39.1643C103.008 37.644 104.666 36.3713 106.416 35.3551C108.516 34.1353 109.254 31.4519 108.086 29.3111Z" fill="#E9EFFF"/>
<path d="M95.3891 35.3548C97.1386 36.3708 98.797 37.6437 100.191 39.1642C100.572 39.5798 101.233 39.5798 101.614 39.164C102.62 38.0663 103.766 37.0998 104.983 36.2637C104.859 36.1577 104.71 36.0784 104.545 36.035C104.182 35.9394 103.943 35.7144 103.823 35.5715C103.771 35.511 103.73 35.4445 103.695 35.3734C103.485 34.9418 102.273 32.6583 99.5201 31.1798C97.3946 30.0384 97.5819 28.4413 97.8911 27.5776C97.9618 27.3801 97.9683 27.1718 97.9193 26.9767C96.2119 26.8848 94.5221 27.7676 93.6772 29.3901H93.6769C92.569 31.5179 93.3147 34.1504 95.3891 35.3548Z" fill="#BEC8F7"/>
<path d="M112.061 76.227C117.286 71.0022 117.286 62.531 112.061 57.3062C106.836 52.0813 98.365 52.0813 93.1401 57.3062C87.9153 62.531 87.9153 71.0022 93.1401 76.227C98.3649 81.4519 106.836 81.4519 112.061 76.227Z" fill="#FFB332"/>
<path d="M105.251 74.6593L102.046 60.1901C97.33 58.4332 99.2297 53.8286 99.2358 53.8135C93.4838 55.3121 89.2375 60.5411 89.2375 66.7625C89.2375 74.1526 95.2285 80.1436 102.619 80.1436C104.364 80.1436 106.029 79.806 107.557 79.1986C104.235 78.0886 105.251 74.6593 105.251 74.6593Z" fill="#FF9100"/>
<path d="M96.6076 60.1904H108.629C109.692 60.1904 110.561 61.0597 110.561 62.122V70.6657C110.561 71.7283 109.692 72.5973 108.629 72.5973H106.91C106.718 72.5973 106.539 72.6938 106.434 72.8543L105.25 74.6595C104.963 75.0984 104.319 75.0984 104.032 74.6595L102.848 72.8543C102.742 72.6941 102.564 72.5973 102.372 72.5973H96.6071C95.5448 72.5973 94.6755 71.728 94.6755 70.6657V62.122C94.676 61.0595 95.5453 60.1904 96.6076 60.1904Z" fill="#E9EFFF"/>
<path d="M100.115 70.6655V62.122C100.115 61.0595 100.984 60.1904 102.046 60.1904H96.6076C95.5453 60.1904 94.676 61.0597 94.676 62.122V70.6658C94.676 71.728 95.5453 72.5974 96.6076 72.5974H102.046C100.984 72.5974 100.115 71.728 100.115 70.6655Z" fill="#BEC8F7"/>
<path d="M68.0753 8.01989C67.3665 8.81892 66.9353 9.86991 66.9353 11.0221C66.9353 13.5223 68.962 15.549 71.4622 15.549C73.9623 15.549 75.989 13.5223 75.989 11.0221C75.989 9.86991 75.5579 8.81914 74.849 8.02011C73.7847 7.66466 72.646 7.47168 71.4622 7.47168C70.2783 7.47145 69.1396 7.66443 68.0753 8.01989Z" fill="#47477F"/>
<path d="M33.4573 90.8931C32.3123 91.554 30.8516 91.3701 29.905 90.4456L29.7003 90.2454L25.1987 92.8445L34.1377 102.208C34.3345 102.113 34.5302 102.013 34.7227 101.902C38.94 99.4671 40.3849 94.0745 37.95 89.8574C37.7207 89.4602 37.4649 89.0876 37.1865 88.7402L33.4573 90.8931Z" fill="#D3DCFB"/>
<path d="M29.9053 90.4453L29.7005 90.2451L25.199 92.8442L34.1379 102.208C34.335 102.113 34.5304 102.013 34.723 101.902C36.1545 101.075 37.2656 99.9072 38.0149 98.5606C31.7616 97.0125 33.4577 90.8927 33.4577 90.8927C32.3125 91.5539 30.8519 91.3698 29.9053 90.4453Z" fill="#BEC8F7"/>
<path d="M25.446 92.5562L15.3257 98.3991C23.5612 107.158 34.6157 113.235 47.0418 115.179L25.446 92.5562Z" fill="#E9EFFF"/>
<path d="M34.49 102.03L25.446 92.5557L15.3257 98.3986C18.854 102.151 22.9009 105.41 27.35 108.063C27.1076 101.158 34.49 102.03 34.49 102.03Z" fill="#D3DCFB"/>
<path d="M9.44036 65.55L6.34682 60.1918C5.40769 58.5651 3.32785 58.0078 1.70109 58.9469C0.074328 59.8861 -0.482916 61.9659 0.456218 63.5927L3.54976 68.9509L9.44036 65.55Z" fill="#E9EFFF"/>
<path d="M6.66087 60.7354C6.67284 60.8583 6.67962 60.9828 6.67962 61.1087C6.67962 63.1926 4.99027 64.8819 2.90637 64.8819C2.14575 64.8819 1.43891 64.6548 0.846191 64.2677L3.5497 68.9505L9.44031 65.5497L6.66087 60.7354Z" fill="#D3DCFB"/>
<path d="M15.6807 98.7757L30.2788 90.3474C30.0651 90.1384 29.8737 89.8998 29.7169 89.6282L14.4214 63.136C14.2645 62.8644 14.1533 62.5792 14.0795 62.2896L1.08569 69.7916C2.97255 80.9398 8.18931 90.9548 15.6807 98.7757Z" fill="#FF7186"/>
<path d="M21.334 76.5808L21.3451 75.1279L14.4216 63.136C14.2648 62.8644 14.1536 62.5792 14.0797 62.2896L1.08569 69.7916C1.99703 75.1758 3.68729 80.2944 6.0331 85.0306C6.33996 82.1228 8.28467 81.1762 8.28467 81.1762C8.28467 81.1762 12.2392 78.86 15.6823 76.9654C19.1252 75.0711 21.334 76.5808 21.334 76.5808Z" fill="#FF4155"/>
<path d="M47.051 81.9283C57.3503 77.8215 68.3962 77.2295 78.6724 79.7384L47.4632 25.6826C44.4978 35.8366 38.4623 45.1066 29.7561 51.9727C30.3972 52.247 30.9596 52.72 31.3352 53.3703L46.6302 79.8622C47.0056 80.5126 47.1339 81.2359 47.051 81.9283Z" fill="#D3DCFB"/>
<path d="M58.3787 44.5889L47.4629 25.6826C44.4977 35.8366 38.4621 45.1066 29.7559 51.9727C30.3969 52.247 30.9594 52.72 31.3349 53.3703L38.7836 66.2717C47.5022 59.9639 54.2213 52.3666 58.3787 44.5889Z" fill="#BEC8F7"/>
<path d="M45.8426 84.1776L33.6461 91.2193C32.0469 92.1427 30.0023 91.5947 29.079 89.9955L13.7837 63.5036C12.8604 61.9044 13.4084 59.8596 15.0076 58.9365L27.2041 51.8948C28.8033 50.9715 30.8481 51.5195 31.7712 53.1184L47.0663 79.6103C47.9896 81.2097 47.4416 83.2543 45.8426 84.1776Z" fill="#FF4155"/>
<path d="M31.7713 53.1185C30.848 51.5193 28.8034 50.9715 27.2043 51.8949L15.0077 58.9366C13.4085 59.8599 12.8608 61.9047 13.7839 63.5036L21.334 76.581C22.1961 72.7705 25.3576 74.4829 25.3576 74.4829L35.4924 68.6316C35.9606 64.9682 39.1929 65.9737 39.1929 65.9737L31.7713 53.1185Z" fill="#E80054"/>
<path d="M20.5816 64.5129C19.9959 64.5129 19.4262 64.209 19.1123 63.6653C18.6444 62.8548 18.9221 61.8182 19.7326 61.3503L26.9321 57.1937C27.7426 56.7255 28.7791 57.0035 29.2471 57.814C29.7151 58.6246 29.4374 59.6611 28.6268 60.1291L21.4274 64.2856C21.1605 64.4397 20.869 64.5129 20.5816 64.5129Z" fill="#FF7186"/>
<path d="M23.7044 69.9216C23.1187 69.9216 22.549 69.6177 22.2351 69.074C21.7672 68.2635 22.0449 67.2269 22.8554 66.7589L30.0549 62.6024C30.8654 62.1342 31.9019 62.4122 32.3699 63.2227C32.8379 64.0333 32.5602 65.0698 31.7496 65.5378L24.5502 69.6943C24.2833 69.8484 23.9918 69.9216 23.7044 69.9216Z" fill="#FF7186"/>
<path d="M26.827 75.3303C26.2413 75.3303 25.6716 75.0264 25.3577 74.4827C24.8897 73.6722 25.1674 72.6356 25.978 72.1676L33.1774 68.0111C33.988 67.5429 35.0245 67.8209 35.4925 68.6314C35.9605 69.442 35.6828 70.4785 34.8722 70.9465L27.6728 75.103C27.4059 75.2571 27.1144 75.3303 26.827 75.3303Z" fill="#FF7186"/>
<path d="M29.9495 80.739C29.3638 80.739 28.7941 80.4351 28.4803 79.8914C28.0123 79.0808 28.29 78.0443 29.1006 77.5763L36.3 73.4198C37.1105 72.9516 38.1471 73.2296 38.6151 74.0401C39.083 74.8507 38.8053 75.8872 37.9948 76.3552L30.7953 80.5117C30.5285 80.6658 30.237 80.739 29.9495 80.739Z" fill="#FF7186"/>
<path d="M33.0723 86.1477C32.4866 86.1477 31.9169 85.8438 31.6031 85.3001C31.1351 84.4895 31.4128 83.453 32.2234 82.985L39.4228 78.8285C40.2333 78.3603 41.2699 78.6382 41.7379 79.4488C42.2058 80.2594 41.9281 81.2959 41.1176 81.7639L33.9181 85.9204C33.6513 86.0745 33.3598 86.1477 33.0723 86.1477Z" fill="#FF7186"/>
<path d="M83.0404 81.4066C81.4139 82.3457 79.3338 81.7884 78.3947 80.1617L46.9576 25.7113C46.0185 24.0846 46.576 22.0047 48.2025 21.0656C49.829 20.1265 51.9091 20.6837 52.8482 22.3105L84.2851 76.7608C85.2244 78.3876 84.6672 80.4674 83.0404 81.4066Z" fill="#E9EFFF"/>
<path d="M60.0723 41.3548C61.243 40.6789 62.6131 40.6665 63.7522 41.1969L52.8482 22.3105C51.9091 20.6837 49.829 20.1265 48.2025 21.0656C46.576 22.0047 46.0185 24.0846 46.9576 25.7113L58.084 44.9825C58.0223 43.5454 58.7402 42.124 60.0723 41.3548Z" fill="#D3DCFB"/>
<path d="M95.6126 98.8144C92.0976 93.4218 85.9465 87.2147 78.5347 88.0971C65.8579 89.6059 34.4467 91.2815 58.2646 115.786C72.9254 115.108 86.0965 108.73 95.6126 98.8144Z" fill="#C0BEF9"/>
<path d="M4.58081 39.1147C8.78703 63.1053 39.075 24.8203 40.6808 16.3314C41.4009 12.5243 39.5448 9.9654 37.1947 8.28418C22.4585 13.4985 10.588 24.7728 4.58081 39.1147Z" fill="#C0BEF9"/>
<path d="M72.7851 12.0008C73.6978 12.0008 74.4376 11.261 74.4376 10.3483C74.4376 9.43566 73.6978 8.6958 72.7851 8.6958C71.8724 8.6958 71.1326 9.43566 71.1326 10.3483C71.1326 11.261 71.8724 12.0008 72.7851 12.0008Z" fill="#5F5F9B"/>
</g>
<defs>
<clipPath id="clip0_121_8830">
<rect width="116" height="116" fill="white"/>
</clipPath>
</defs>
</svg>
