<svg width="22" height="22" viewBox="0 0 22 22" fill="none" xmlns="http://www.w3.org/2000/svg">
<path d="M11 20C15.9706 20 20 15.9706 20 11C20 6.02944 15.9706 2 11 2C6.02944 2 2 6.02944 2 11C2 15.9706 6.02944 20 11 20Z" fill="url(#paint0_linear_171_297)"/>
<path d="M13.6367 7.83594C13.6367 6.38205 12.4539 5.19922 11 5.19922C9.54611 5.19922 8.36328 6.38205 8.36328 7.83594C8.36328 9.28982 9.54611 10.4727 11 10.4727C12.4539 10.4727 13.6367 9.28982 13.6367 7.83594ZM11 10.4727C8.383 10.4727 6.25391 12.6018 6.25391 15.2188V15.713C6.25391 15.8629 6.31768 16.0057 6.42934 16.1057C7.71387 17.2567 9.33711 17.8906 11 17.8906C12.6629 17.8906 14.2862 17.2567 15.5707 16.1057C15.6823 16.0057 15.7461 15.8628 15.7461 15.713V15.2188C15.7461 12.6018 13.617 10.4727 11 10.4727Z" fill="url(#paint1_linear_171_297)"/>
<defs>
<linearGradient id="paint0_linear_171_297" x1="11" y1="20" x2="11" y2="2" gradientUnits="userSpaceOnUse">
<stop stop-color="#5558FF"/>
<stop offset="1" stop-color="#00C0FF"/>
</linearGradient>
<linearGradient id="paint1_linear_171_297" x1="11" y1="17.8906" x2="11" y2="5.19922" gradientUnits="userSpaceOnUse">
<stop stop-color="#ADDCFF"/>
<stop offset="0.5028" stop-color="#EAF6FF"/>
<stop offset="1" stop-color="#EAF6FF"/>
</linearGradient>
</defs>
</svg>
