<svg width="24" height="24" viewBox="0 0 24 24" fill="none" xmlns="http://www.w3.org/2000/svg">
<g clip-path="url(#clip0_71_4962)">
<path d="M22.1217 22.5459H1.87847C0.430831 22.5459 -0.471607 20.9767 0.258846 19.7252L10.3804 2.38461C11.1036 1.14571 12.8952 1.14346 13.6197 2.38461L23.7413 19.7253C24.4711 20.9755 23.5706 22.5459 22.1217 22.5459Z" fill="#FF6B6B"/>
<path d="M11.7551 3.18684L1.63349 20.5275C1.52282 20.7172 1.65843 20.954 1.87841 20.954H22.1216C22.3412 20.954 22.4774 20.7175 22.3665 20.5275L12.2449 3.18684C12.1354 2.99915 11.8653 2.99803 11.7551 3.18684Z" fill="#EE5253"/>
<path d="M12.0052 16.7874C12.473 16.7874 12.8682 17.1767 12.8682 17.6374C12.8682 18.0921 12.473 18.4762 12.0052 18.4762C11.5238 18.4762 11.1321 18.0999 11.1321 17.6374C11.1321 17.1766 11.5319 16.7874 12.0052 16.7874Z" fill="#E4EAF8"/>
<path d="M12.0052 15.475C11.521 15.475 11.1829 15.2405 11.1829 14.9047V10.1635C11.1829 9.88269 11.5133 9.58203 12.0052 9.58203C12.4487 9.58203 12.8378 9.85377 12.8378 10.1635V14.9047C12.8378 15.2352 12.4877 15.475 12.0052 15.475Z" fill="#E4EAF8"/>
<path d="M1.22473 19.7252L11.3463 2.38458C11.6024 1.94578 12.0095 1.64044 12.483 1.51645C11.6936 1.30978 10.8259 1.62136 10.3805 2.38458L0.258871 19.7252C-0.470927 20.9754 0.429543 22.5459 1.8785 22.5459H2.84436C1.39662 22.5459 0.494324 20.9765 1.22473 19.7252Z" fill="#EE5253"/>
<path d="M2.59937 20.5275L12.483 3.59461L12.2449 3.18684C12.1352 2.99878 11.8651 2.9984 11.7551 3.18684L1.63351 20.5275C1.52279 20.7171 1.65845 20.954 1.87843 20.954H2.84429C2.62468 20.954 2.48846 20.7175 2.59937 20.5275Z" fill="#E24951"/>
<path d="M12.0978 17.6374C12.0978 17.35 12.2533 17.0906 12.4852 16.9359C12.3469 16.8426 12.1812 16.7874 12.0051 16.7874C11.5318 16.7874 11.132 17.1767 11.132 17.6374C11.132 18.0999 11.5236 18.4763 12.0051 18.4763C12.1798 18.4763 12.3442 18.4226 12.4818 18.3319C12.2502 18.1809 12.0978 17.9259 12.0978 17.6374Z" fill="#D8DCE5"/>
<path d="M12.1485 14.9047V10.1635C12.1485 9.99022 12.2746 9.80966 12.4864 9.69659C12.3484 9.62544 12.1812 9.58203 12.005 9.58203C11.5131 9.58203 11.1826 9.88269 11.1826 10.1635V14.9047C11.1826 15.2405 11.5208 15.475 12.005 15.475C12.1894 15.475 12.3542 15.4398 12.4878 15.378C12.2767 15.2791 12.1485 15.1112 12.1485 14.9047Z" fill="#D8DCE5"/>
</g>
<defs>
<clipPath id="clip0_71_4962">
<rect width="24" height="24" fill="white"/>
</clipPath>
</defs>
</svg>
