<svg width="74" height="74" viewBox="0 0 74 74" fill="none" xmlns="http://www.w3.org/2000/svg">
<path d="M37 74C57.4345 74 74 57.4345 74 37C74 16.5655 57.4345 0 37 0C16.5655 0 0 16.5655 0 37C0 57.4345 16.5655 74 37 74Z" fill="url(#paint0_linear_121_7886)"/>
<path d="M38.4765 27.7487C38.2665 27.8888 38.0197 27.9635 37.7672 27.9635H15.1758V54.9879C15.1758 57.1033 16.8967 58.8242 19.0121 58.8242H54.9879C57.1033 58.8242 58.8242 57.1033 58.8242 54.9879V24.5534H43.2695L38.4765 27.7487ZM35.5054 49.7053C35.3568 49.7614 35.2042 49.788 35.0542 49.788C34.5373 49.788 34.0508 49.4725 33.8576 48.9604L33.0638 46.857H27.6284L26.826 48.964C26.5747 49.6239 25.8358 49.9552 25.1759 49.7039C24.516 49.4525 24.1847 48.7137 24.436 48.0538L28.9177 36.2867C28.9213 36.2771 28.9252 36.2675 28.9291 36.2578C29.168 35.6736 29.7302 35.2957 30.3614 35.295H30.3631C30.9937 35.295 31.5559 35.6715 31.7959 36.2547C31.8006 36.2662 31.8053 36.2781 31.8097 36.2898L36.2506 48.0574C36.4998 48.7182 36.1662 49.4558 35.5054 49.7053ZM49.6478 42.5413C49.6478 44.4468 49.1015 46.2094 48.1095 47.504C47.018 48.9286 45.4415 49.7303 43.6706 49.7612C42.709 49.778 40.3001 49.7874 40.198 49.7877C40.1965 49.7877 40.1949 49.7877 40.1931 49.7877C39.8556 49.7877 39.5319 49.6543 39.2923 49.4165C39.0515 49.1776 38.9156 48.8527 38.9143 48.5135C38.9142 48.4703 38.8902 36.5762 38.8902 36.5762C38.8896 36.2366 39.024 35.9108 39.2638 35.6705C39.5037 35.4301 39.8293 35.2951 40.1688 35.2951H43.5491C47.197 35.295 49.6478 38.207 49.6478 42.5413ZM54.9879 15.1758H19.0121C16.8967 15.1758 15.1758 16.8967 15.1758 19.0121V25.4058H37.3801L42.1731 22.2106C42.3831 22.0705 42.6299 21.9958 42.8824 21.9958H58.8242V19.0119C58.8242 16.8967 57.1033 15.1758 54.9879 15.1758ZM23.2746 21.5696H21.5696C20.8634 21.5696 20.2907 20.9971 20.2907 20.2907C20.2907 19.5844 20.8632 19.0119 21.5696 19.0119H23.2746C23.9808 19.0119 24.5534 19.5844 24.5534 20.2907C24.5534 20.9971 23.9809 21.5696 23.2746 21.5696ZM30.0947 21.5696H28.3897C27.6835 21.5696 27.1109 20.9971 27.1109 20.2907C27.1109 19.5844 27.6834 19.0119 28.3897 19.0119H30.0947C30.8009 19.0119 31.3735 19.5844 31.3735 20.2907C31.3735 20.9971 30.8009 21.5696 30.0947 21.5696ZM36.9147 21.5696H35.2097C34.5035 21.5696 33.9309 20.9971 33.9309 20.2907C33.9309 19.5844 34.5034 19.0119 35.2097 19.0119H36.9147C37.6209 19.0119 38.1935 19.5844 38.1935 20.2907C38.1935 20.9971 37.6211 21.5696 36.9147 21.5696ZM30.3586 39.6886L32.0987 44.2994H28.6026L30.3586 39.6886ZM41.4676 47.2237C41.463 45.8121 41.4526 39.3171 41.4501 37.8524H43.5493C46.1601 37.8524 47.0903 40.2745 47.0903 42.5412C47.0903 43.8875 46.7313 45.0975 46.0795 45.9484C45.6498 46.5091 44.8754 47.1821 43.6259 47.2041C43.1335 47.2126 42.2264 47.2192 41.4676 47.2237Z" fill="url(#paint1_linear_121_7886)"/>
<defs>
<linearGradient id="paint0_linear_121_7886" x1="37" y1="74" x2="37" y2="0" gradientUnits="userSpaceOnUse">
<stop stop-color="#C3FFE8"/>
<stop offset="0.9973" stop-color="#F0FFF4"/>
</linearGradient>
<linearGradient id="paint1_linear_121_7886" x1="37" y1="58.8242" x2="37" y2="15.1758" gradientUnits="userSpaceOnUse">
<stop stop-color="#9CFFAC"/>
<stop offset="1" stop-color="#00B59C"/>
</linearGradient>
</defs>
</svg>
