<svg width="74" height="74" viewBox="0 0 74 74" fill="none" xmlns="http://www.w3.org/2000/svg">
<path d="M37 74C57.4345 74 74 57.4345 74 37C74 16.5655 57.4345 0 37 0C16.5655 0 0 16.5655 0 37C0 57.4345 16.5655 74 37 74Z" fill="url(#paint0_linear_121_7864)"/>
<path d="M51.3311 32.7612C50.8416 33.5161 50.225 34.1933 49.4388 34.6969C48.3539 35.3777 47.1965 35.7162 45.979 35.7162H27.5945C25.6066 38.2533 24.1729 41.3132 24.1729 44.7026C24.1729 53.2815 30.7192 58.8241 40.8481 58.8241C50.977 58.8241 57.5234 53.2815 57.5234 44.7026C57.5234 39.8521 54.6989 35.6893 51.3311 32.7612ZM38.2827 45.9863H43.4136C45.5356 45.9863 47.2617 47.7139 47.2617 49.8376C47.2617 51.9613 45.5356 53.6889 43.4136 53.6889H42.1309V54.9727C42.1309 55.6823 41.5572 56.2564 40.8481 56.2564C40.1391 56.2564 39.5654 55.6822 39.5654 54.9727V53.6889H35.7173C35.0082 53.6889 34.4346 53.1147 34.4346 52.4052C34.4346 51.6957 35.0082 51.1215 35.7173 51.1215H43.4136C44.12 51.1215 44.6963 50.5461 44.6963 49.8376C44.6963 49.1294 44.12 48.5539 43.4136 48.5539H38.2827C36.1607 48.5539 34.4346 46.8263 34.4346 44.7026C34.4346 42.5788 36.1607 40.8512 38.2827 40.8512H39.5654V39.5675C39.5654 38.8579 40.1391 38.2838 40.8481 38.2838C41.5572 38.2838 42.1309 38.858 42.1309 39.5675V40.8512H45.979C46.6881 40.8512 47.2617 41.4255 47.2617 42.135C47.2617 42.8445 46.6881 43.4187 45.979 43.4187H38.2827C37.5762 43.4187 37 43.9941 37 44.7024C37 45.4108 37.5762 45.9863 38.2827 45.9863ZM49.8271 29.2973V24.1621C49.8271 22.0383 48.101 20.3107 45.979 20.3107H39.0745L38.1474 18.4528C37.9295 18.0177 37.4861 17.7431 37 17.7431H35.7173C33.5953 17.7431 31.8691 19.4707 31.8691 21.5945V22.8782H17.7593C17.0502 22.8782 16.4766 23.4524 16.4766 24.1619V31.8646C16.4766 32.5741 17.0502 33.1483 17.7593 33.1483H45.979C48.0546 33.1486 49.8271 31.4633 49.8271 29.2973ZM40.4398 17.3019L40.6603 17.7431H45.979C46.2376 17.7431 46.4833 17.7897 46.7337 17.8196L47.1264 17.0335C47.3243 16.636 47.3044 16.1634 47.0714 15.7849C46.8359 15.4062 46.4224 15.1755 45.979 15.1755H37C38.4655 15.1757 39.7834 15.9905 40.4398 17.3019Z" fill="url(#paint1_linear_121_7864)"/>
<defs>
<linearGradient id="paint0_linear_121_7864" x1="37" y1="74" x2="37" y2="0" gradientUnits="userSpaceOnUse">
<stop stop-color="#FFE59A"/>
<stop offset="1" stop-color="#FFFFD5"/>
</linearGradient>
<linearGradient id="paint1_linear_121_7864" x1="37" y1="58.8241" x2="37" y2="15.1757" gradientUnits="userSpaceOnUse">
<stop stop-color="#FFDE00"/>
<stop offset="1" stop-color="#FD5900"/>
</linearGradient>
</defs>
</svg>
