<svg width="57" height="57" viewBox="0 0 57 57" fill="none" xmlns="http://www.w3.org/2000/svg">
<rect width="56.3636" height="56.3636" rx="28.1818" fill="#F7954E"/>
<g clip-path="url(#clip0_202_3518)">
<path d="M40.9165 31.6165H40.8108V26.4909C40.8108 26.0998 40.5254 25.767 40.1387 25.7075L34.9437 24.9083L31.839 21.1138C31.3655 20.5349 30.6649 20.2029 29.9169 20.2029H20.15C18.7806 20.2029 17.6665 21.317 17.6665 22.6864V23.5847H15.4472C15.0094 23.5847 14.6545 23.9396 14.6545 24.3773V29.45C14.6545 29.8878 15.0094 30.2427 15.4472 30.2427H17.6665V31.6165H17.6136C17.1759 31.6165 16.821 31.9714 16.821 32.4091C16.821 32.8469 17.1759 33.2017 17.6136 33.2017H20.2879C20.6527 34.891 22.1578 36.1608 23.9545 36.1608C25.7513 36.1608 27.2564 34.891 27.6212 33.2017H30.4334C30.7982 34.891 32.3033 36.1608 34.1 36.1608C35.8968 36.1608 37.4019 34.891 37.7667 33.2017H40.9165C41.3542 33.2017 41.7091 32.8469 41.7091 32.4091C41.7091 31.9714 41.3542 31.6165 40.9165 31.6165ZM17.6665 28.6574H16.2398V25.1699H17.6665V28.6574ZM26.0153 21.7881H29.9169C30.1874 21.7881 30.4408 21.9082 30.6121 22.1176L33.146 25.2145L31.4526 25.6983H29.276L28.9636 23.8243C28.8917 23.3925 28.4832 23.1007 28.0515 23.1728C27.6197 23.2447 27.328 23.6531 27.4 24.0849L27.6689 25.6983H26.0153V21.7881ZM19.2517 22.6864C19.2517 22.1911 19.6547 21.7881 20.15 21.7881H24.4301V25.6983H22.5124L22.2 23.8243C22.128 23.3925 21.7197 23.1007 21.2879 23.1728C20.8561 23.2447 20.5644 23.6531 20.6363 24.0849L20.9053 25.6983H19.2517V22.6864ZM23.9545 34.5756C22.76 34.5756 21.7881 33.6037 21.7881 32.4091C21.7881 31.2146 22.76 30.2427 23.9545 30.2427C25.1491 30.2427 26.121 31.2146 26.121 32.4091C26.121 33.6037 25.1491 34.5756 23.9545 34.5756ZM34.1 34.5756C32.9054 34.5756 31.9335 33.6037 31.9335 32.4091C31.9335 31.2146 32.9054 30.2427 34.1 30.2427C35.2946 30.2427 36.2665 31.2146 36.2665 32.4091C36.2665 33.6037 35.2946 34.5756 34.1 34.5756ZM39.2256 28.2347H38.75C38.3123 28.2347 37.9574 28.5896 37.9574 29.0273C37.9574 29.465 38.3123 29.8199 38.75 29.8199H39.2256V31.6165H37.7667C37.4019 29.9273 35.8967 28.6574 34.1 28.6574C32.3032 28.6574 30.7982 29.9273 30.4333 31.6165H27.6212C27.2564 29.9273 25.7512 28.6574 23.9545 28.6574C22.1577 28.6574 20.6527 29.9273 20.2878 31.6165H19.2517V27.2836H31.5636C31.6373 27.2836 31.7105 27.2733 31.7814 27.2531L34.5737 26.4553L39.2256 27.171V28.2347Z" fill="white"/>
<path d="M23.9545 33.2018C24.3922 33.2018 24.7471 32.8469 24.7471 32.4092C24.7471 31.9714 24.3922 31.6166 23.9545 31.6166C23.5167 31.6166 23.1619 31.9714 23.1619 32.4092C23.1619 32.8469 23.5167 33.2018 23.9545 33.2018Z" fill="white"/>
<path d="M34.1 33.2018C34.5377 33.2018 34.8926 32.8469 34.8926 32.4092C34.8926 31.9714 34.5377 31.6166 34.1 31.6166C33.6622 31.6166 33.3074 31.9714 33.3074 32.4092C33.3074 32.8469 33.6622 33.2018 34.1 33.2018Z" fill="white"/>
</g>
<defs>
<clipPath id="clip0_202_3518">
<rect width="27.0545" height="27.0545" fill="white" transform="translate(14.6545 14.6545)"/>
</clipPath>
</defs>
</svg>
