<svg width="24" height="24" viewBox="0 0 24 24" fill="none" xmlns="http://www.w3.org/2000/svg">
<g clip-path="url(#clip0_121_8180)">
<path d="M14.6142 21.5026H11.9715V20.3352C11.9715 19.9484 11.6579 19.6348 11.271 19.6348C10.8842 19.6348 10.5706 19.9484 10.5706 20.3352V21.5026H8.40367V20.3352C8.40367 19.9484 8.09006 19.6348 7.70323 19.6348C7.3164 19.6348 7.00279 19.9484 7.00279 20.3352V21.5026H4.83587V20.3352C4.83587 19.9484 4.52226 19.6348 4.13543 19.6348C3.7486 19.6348 3.43499 19.9484 3.43499 20.3352V21.5026H0.792235C0.405407 21.5026 0.0917969 21.8162 0.0917969 22.203C0.0917969 22.5899 0.405407 22.9035 0.792235 22.9035H14.6142C15.001 22.9035 15.3147 22.5899 15.3147 22.203C15.3147 21.8162 15.001 21.5026 14.6142 21.5026Z" fill="#C59000"/>
<path d="M3.53481 4.43509C3.83964 4.69075 3.91095 4.76878 3.91095 4.94911C3.91095 5.12945 3.83969 5.20748 3.53486 5.4631C3.23844 5.71166 3.19963 6.15345 3.44824 6.44987C3.58679 6.61508 3.78534 6.70026 3.98529 6.70026C4.1441 6.70026 4.3038 6.64656 4.43497 6.53654C4.78416 6.24371 5.31183 5.80122 5.31183 4.94911C5.31183 4.09701 4.78416 3.65447 4.43497 3.36169C4.13014 3.10608 4.05888 3.028 4.05888 2.84775C4.05888 2.66755 4.13014 2.58948 4.43492 2.33391C4.73135 2.0854 4.7702 1.64361 4.52164 1.34718C4.27308 1.05066 3.83129 1.01181 3.53486 1.26047C3.18567 1.55325 2.65796 1.99565 2.65796 2.84775C2.65801 3.69981 3.18567 4.1423 3.53481 4.43509Z" fill="#C59000"/>
<path d="M7.01943 4.43509C7.32427 4.69075 7.39557 4.76878 7.39557 4.94911C7.39557 5.12945 7.32431 5.20748 7.01948 5.4631C6.72306 5.71166 6.68425 6.15345 6.93286 6.44987C7.07141 6.61508 7.26996 6.70026 7.46991 6.70026C7.62872 6.70026 7.78842 6.64656 7.91959 6.53654C8.26878 6.24371 8.79645 5.80122 8.79645 4.94911C8.79645 4.09701 8.26878 3.65447 7.91959 3.36169C7.61476 3.10608 7.5435 3.028 7.5435 2.84775C7.5435 2.66755 7.61476 2.58948 7.91955 2.33391C8.21597 2.0854 8.25482 1.64361 8.00626 1.34718C7.7577 1.05066 7.31591 1.01181 7.01948 1.26047C6.67029 1.55325 6.14258 1.99565 6.14258 2.84775C6.14262 3.69981 6.67029 4.1423 7.01943 4.43509Z" fill="#C59000"/>
<path d="M10.5043 4.43509C10.8091 4.69075 10.8804 4.76878 10.8804 4.94911C10.8804 5.12945 10.8092 5.20748 10.5043 5.4631C10.2079 5.71166 10.1691 6.15345 10.4177 6.44987C10.5563 6.61508 10.7548 6.70026 10.9548 6.70026C11.1136 6.70026 11.2733 6.64656 11.4045 6.53654C11.7536 6.24371 12.2813 5.80122 12.2813 4.94911C12.2813 4.09701 11.7536 3.65447 11.4045 3.36169C11.0996 3.10608 11.0284 3.028 11.0284 2.84775C11.0284 2.66755 11.0996 2.58948 11.4044 2.33391C11.7008 2.0854 11.7397 1.64361 11.4911 1.34718C11.2426 1.05066 10.8008 1.01181 10.5043 1.26047C10.1552 1.55325 9.62744 1.99565 9.62744 2.84775C9.62744 3.69981 10.1552 4.1423 10.5043 4.43509Z" fill="#C59000"/>
<path d="M22.3657 9.3616H18.8168C17.9949 9.3616 17.313 9.97154 17.1994 10.7625H15.2754L15.3498 10.4845C15.4822 9.9898 15.3793 9.47311 15.0675 9.06691C14.7556 8.6607 14.2831 8.42773 13.771 8.42773H1.6353C1.12318 8.42773 0.650667 8.6607 0.338832 9.06691C0.0269966 9.47311 -0.0759211 9.98985 0.0564618 10.4845L1.62054 16.3294C1.92061 17.4507 2.94082 18.2338 4.10154 18.2338H11.3048C12.4654 18.2338 13.4857 17.4506 13.7858 16.3294L14.9006 12.1633H17.1994C17.313 12.9542 17.9949 13.5642 18.8168 13.5642H22.3657C23.2668 13.5642 24 12.831 24 11.9298V10.9959C24 10.0948 23.2668 9.3616 22.3657 9.3616ZM3.26961 12.0218C3.16958 11.6481 3.39148 11.264 3.76519 11.1641C4.13894 11.0639 4.52288 11.286 4.6229 11.6596L5.34958 14.3752C5.4496 14.7489 5.22771 15.1329 4.854 15.2329C4.79334 15.2492 4.7324 15.2569 4.67249 15.2569C4.36313 15.2569 4.08006 15.0504 3.99629 14.7374L3.26961 12.0218Z" fill="#C59000"/>
</g>
<defs>
<clipPath id="clip0_121_8180">
<rect width="24" height="24" fill="white"/>
</clipPath>
</defs>
</svg>
