<svg width="24" height="24" viewBox="0 0 24 24" fill="none" xmlns="http://www.w3.org/2000/svg">
<path d="M3.56274 19.4532V23.2969C3.56274 23.6852 3.87756 24.0001 4.26587 24.0001H5.90649V15.5322C4.5122 16.2854 3.56274 17.7604 3.56274 19.4532Z" fill="#C59000"/>
<path d="M18.5627 15.5322V24.0001H20.2034C20.5917 24.0001 20.9065 23.6852 20.9065 23.2969V19.4532C20.9065 17.7604 19.957 16.2854 18.5627 15.5322Z" fill="#C59000"/>
<path d="M12.2344 0C10.063 0 8.27495 1.64067 8.04175 3.75H16.4271C16.1939 1.64067 14.4059 0 12.2344 0Z" fill="#C59000"/>
<path d="M16.4534 9.60938V8.4375H8.01587V9.60938C8.01587 11.9393 9.90465 13.8281 12.2346 13.8281C14.5645 13.8281 16.4534 11.9393 16.4534 9.60938Z" fill="#C59000"/>
<path d="M9.94775 7.03125H12.6465L14.5215 5.15625H11.8228L9.94775 7.03125Z" fill="#C59000"/>
<path d="M3.4826 5.31651L4.51507 5.83274C4.56968 5.34252 4.77612 4.89773 5.0861 4.54607L4.11147 4.05876C3.76418 3.88509 3.34179 4.0259 3.16811 4.3732C2.99449 4.72049 3.13525 5.14288 3.4826 5.31651Z" fill="#C59000"/>
<path d="M4.11145 8.12896L5.08608 7.64165C4.77605 7.29 4.56966 6.8452 4.51505 6.35498L3.48258 6.87121C3.13524 7.04484 2.99447 7.46723 3.16814 7.81453C3.29133 8.06095 3.53963 8.20336 3.79758 8.20336C3.90319 8.20336 4.01053 8.17945 4.11145 8.12896Z" fill="#C59000"/>
<path d="M9.83401 5.15625H6.84399C6.32621 5.15625 5.90649 5.57597 5.90649 6.09375C5.90649 6.61153 6.32621 7.03125 6.84399 7.03125H7.95901L9.83401 5.15625Z" fill="#C59000"/>
<path d="M17.6253 5.15625H16.5103L14.6353 7.03125H17.6253C18.1431 7.03125 18.5628 6.61153 18.5628 6.09375C18.5628 5.57597 18.143 5.15625 17.6253 5.15625Z" fill="#C59000"/>
<path d="M15.0471 15V15.7031C15.0471 17.2539 13.7854 18.5156 12.2346 18.5156C10.6838 18.5156 9.42212 17.2539 9.42212 15.7031V15H8.01587C7.77667 15 7.54187 15.0192 7.31274 15.0557V24H17.1565V15.0557C16.9274 15.0192 16.6926 15 16.4534 15H15.0471Z" fill="#C59000"/>
<path d="M10.8281 15.0562V15.7029C10.8281 16.4796 11.4577 17.1091 12.2344 17.1091C13.011 17.1091 13.6406 16.4796 13.6406 15.7029V15.0562C13.191 15.1723 12.7198 15.2341 12.2344 15.2341C11.7489 15.2341 11.2778 15.1723 10.8281 15.0562Z" fill="#C59000"/>
</svg>
