<svg width="24" height="24" viewBox="0 0 24 24" fill="none" xmlns="http://www.w3.org/2000/svg">
<path d="M9.94995 20.502C10.7102 21.6282 11.4904 22.3411 11.5311 22.3779L12 22.7981L12.4689 22.3779C12.5096 22.3409 13.2907 21.6271 14.0515 20.4996C13.0988 19.9103 12.3873 19.2955 12.0009 18.9199C11.6142 19.2966 10.9032 19.9124 9.94995 20.502Z" fill="#A16969"/>
<path d="M12.0001 1.17188L12.9944 2.16614L12.0001 3.1604L11.0059 2.16614L12.0001 1.17188Z" fill="#A16969"/>
<path d="M16.2189 3.98438L17.2131 4.97864L16.2189 5.9729L15.2246 4.97864L16.2189 3.98438Z" fill="#A16969"/>
<path d="M6.78711 4.97864L7.78137 3.98438L8.77563 4.97864L7.78137 5.9729L6.78711 4.97864Z" fill="#A16969"/>
<path d="M5.67188 20.4478C8.73706 20.4478 11.2604 17.6757 11.2969 17.6353C11.2714 17.6071 8.74384 14.8228 5.67188 14.8228C2.60669 14.8228 0.036438 17.5946 0 17.6353C0.0254517 17.6633 2.59991 20.4478 5.67188 20.4478Z" fill="#A16969"/>
<path d="M18.3281 14.8228C15.2629 14.8228 12.7396 17.5946 12.7031 17.6353C12.7286 17.6633 15.2562 20.4478 18.3281 20.4478C21.3933 20.4478 23.9636 17.6757 24 17.6353C23.9745 17.6071 21.4001 14.8228 18.3281 14.8228Z" fill="#A16969"/>
<path d="M12 5.68213C11.9718 5.7074 9.1875 8.23499 9.1875 11.3071C9.1875 14.3723 11.9595 16.8957 12 16.9321C12.0282 16.9067 14.8125 14.3791 14.8125 11.3071C14.8125 8.24176 12.0405 5.71838 12 5.68213Z" fill="#A16969"/>
<path d="M18.3281 13.4163C18.7568 13.4163 19.1721 13.4666 19.576 13.5426C20.5565 11.5101 20.4543 9.22515 20.4521 9.18267C20.4225 9.18121 18.1307 9.07555 16.0926 10.0588C16.1682 10.4626 16.2188 10.8777 16.2188 11.3069C16.2188 12.2451 16.0106 13.1288 15.7024 13.9308C16.504 13.6235 17.3882 13.4163 18.3281 13.4163Z" fill="#A16969"/>
<path d="M3.54791 9.18272C3.54644 9.21238 3.44079 11.5041 4.42388 13.5425C4.82763 13.4668 5.24291 13.4163 5.67193 13.4163C6.61016 13.4163 7.49401 13.6245 8.29583 13.9327C7.98858 13.131 7.78131 12.2468 7.78131 11.3069C7.78131 10.8781 7.83184 10.463 7.90765 10.0589C5.87518 9.07835 3.5902 9.18052 3.54791 9.18272Z" fill="#A16969"/>
</svg>
