<svg width="320" height="120" viewBox="0 0 320 120" fill="none" xmlns="http://www.w3.org/2000/svg">
<rect width="320" height="120" fill="#D9E4FF"/>
<path d="M154.342 96.9938C151.752 96.9968 149.164 96.8312 146.595 96.4979C139.736 95.5967 135.699 93.8173 135.531 93.743C135.327 93.6517 135.159 93.4965 135.052 93.3013C134.946 93.1061 134.907 92.8816 134.941 92.6621C136.309 83.8244 137.5 47.2644 137.512 46.8955C137.517 46.7624 137.547 46.6315 137.602 46.5102C137.658 46.3889 137.736 46.2795 137.834 46.1885C137.932 46.0974 138.046 46.0263 138.172 45.9793C138.297 45.9323 138.43 45.9103 138.564 45.9146C138.698 45.9188 138.83 45.9493 138.952 46.0041C139.074 46.059 139.184 46.1372 139.276 46.2343C139.367 46.3314 139.439 46.4455 139.486 46.5701C139.533 46.6947 139.555 46.8273 139.551 46.9603C139.505 48.4263 138.407 82.0814 137.072 92.1716C138.484 92.6999 141.965 93.8511 146.951 94.4983C152.877 95.2671 162.174 95.4576 173.168 92.1068C171.848 81.9558 170.941 48.7884 170.903 47.34C170.9 47.2069 170.923 47.0745 170.971 46.9502C171.018 46.8259 171.091 46.7122 171.183 46.6156C171.369 46.4205 171.625 46.3068 171.896 46.2996C172.166 46.2925 172.428 46.3924 172.624 46.5773C172.821 46.7623 172.935 47.0172 172.942 47.286C172.952 47.6494 173.94 83.8271 175.307 92.6621C175.344 92.9007 175.294 93.1444 175.166 93.3497C175.038 93.5549 174.841 93.7082 174.61 93.7822C168.063 95.8914 161.225 96.975 154.342 96.9938Z" fill="black"/>
<path d="M176.009 66.4691C175.812 66.4692 175.62 66.4128 175.455 66.3065C175.29 66.2003 175.159 66.0489 175.079 65.8706L171.308 57.5139C171.198 57.2686 171.19 56.9897 171.286 56.7384C171.382 56.4872 171.575 56.2843 171.822 56.1742C172.068 56.0642 172.349 56.0562 172.602 56.1518C172.854 56.2475 173.059 56.439 173.169 56.6843L176.614 64.3181C181.147 63.3629 185.22 60.0175 186.683 58.7029L173.792 37.5173L163.85 35.2122L162.93 38.0955C162.901 38.1888 162.858 38.2771 162.802 38.3577C161.942 39.6196 160.787 40.6557 159.436 41.3773C158.084 42.0989 156.578 42.4846 155.044 42.5015C153.51 42.5184 151.996 42.1659 150.629 41.4741C149.262 40.7824 148.084 39.772 147.196 38.5293C147.142 38.4557 147.099 38.3753 147.068 38.2901L145.94 35.2082L136.213 37.5146L123.318 58.7029C124.782 60.0189 128.865 63.371 133.406 64.3222L137.23 56.3506C137.286 56.2281 137.366 56.118 137.465 56.0267C137.565 55.9353 137.681 55.8646 137.808 55.8185C137.936 55.7725 138.071 55.7521 138.206 55.7585C138.341 55.7649 138.474 55.7979 138.596 55.8558C138.718 55.9137 138.827 55.9951 138.918 56.0954C139.008 56.1958 139.077 56.3129 139.121 56.4401C139.165 56.5673 139.183 56.7019 139.175 56.8362C139.166 56.9704 139.13 57.1016 139.07 57.222L134.911 65.8922C134.817 66.0879 134.662 66.2485 134.47 66.3504C134.277 66.4523 134.057 66.4901 133.841 66.4583C127.197 65.4734 121.532 59.8311 121.294 59.5906C121.135 59.4301 121.034 59.2214 121.007 58.9975C120.98 58.7736 121.03 58.5472 121.147 58.3543L134.686 36.1026C134.756 35.9877 134.849 35.8878 134.958 35.8087C135.067 35.7296 135.191 35.6729 135.323 35.6419L146.347 33.0275C146.591 32.97 146.847 33.0034 147.067 33.1212C147.287 33.239 147.456 33.433 147.542 33.6666L148.933 37.4632C149.634 38.4076 150.551 39.173 151.608 39.6965C152.666 40.2199 153.833 40.4865 155.014 40.4742C156.195 40.4619 157.356 40.1712 158.402 39.6259C159.448 39.0806 160.348 38.2963 161.03 37.3376L162.187 33.7071C162.265 33.4648 162.433 33.2609 162.656 33.1357C162.879 33.0106 163.142 32.9734 163.391 33.0315L174.673 35.646C174.805 35.6768 174.93 35.7336 175.039 35.8129C175.149 35.8923 175.242 35.9926 175.313 36.108L188.86 58.3516C188.978 58.5445 189.027 58.7708 189 58.9948C188.974 59.2187 188.873 59.4274 188.714 59.5879C188.476 59.8284 182.81 65.4706 176.166 66.4556C176.114 66.4645 176.062 66.469 176.009 66.4691Z" fill="black"/>
<path d="M101.756 38.1074C101.678 38.0295 101.586 37.9677 101.485 37.9255C101.383 37.8833 101.275 37.8616 101.165 37.8616C101.055 37.8616 100.946 37.8833 100.845 37.9255C100.743 37.9677 100.651 38.0295 100.574 38.1074L99.6709 39.0105L98.7211 38.0746L100.801 35.9947C101.182 35.6143 101.483 35.1627 101.689 34.6657C101.895 34.1687 102.001 33.6359 102.002 33.0979C102.002 32.5599 101.896 32.0271 101.69 31.5299C101.484 31.0328 101.183 30.5811 100.802 30.2006C100.422 29.8201 99.9702 29.5182 99.4732 29.3122C98.9761 29.1062 98.4434 29.0001 97.9053 29C97.3673 28.9999 96.8345 29.1058 96.3374 29.3116C95.8403 29.5173 95.3886 29.819 95.008 30.1994L68.9702 56.2255C68.8857 56.3106 68.8203 56.4127 68.7784 56.525L66.0527 63.8621C65.9967 64.0123 65.985 64.1754 66.0192 64.332C66.0533 64.4887 66.1318 64.6321 66.2453 64.7453C66.3587 64.8586 66.5024 64.9367 66.6591 64.9706C66.8158 65.0044 66.9789 64.9924 67.1289 64.936L74.4637 62.2127C74.5766 62.1694 74.6793 62.1033 74.7655 62.0185L93.4452 43.3458L94.381 44.3074L89.3953 49.2932C89.2386 49.4502 89.1507 49.663 89.1509 49.8848C89.1511 50.1066 89.2394 50.3192 89.3964 50.4759C89.5534 50.6326 89.7662 50.7205 89.988 50.7202C90.2098 50.72 90.4224 50.6317 90.5791 50.4747L101.751 39.3006C101.831 39.2233 101.895 39.1308 101.938 39.0285C101.982 38.9262 102.004 38.8162 102.005 38.705C102.005 38.5938 101.984 38.4836 101.941 38.381C101.898 38.2783 101.835 38.1853 101.756 38.1074ZM96.1896 31.3716C96.4146 31.1464 96.6818 30.9677 96.9759 30.8457C97.2701 30.7238 97.5853 30.661 97.9037 30.6609C98.2221 30.6608 98.5374 30.7234 98.8316 30.8451C99.1258 30.9669 99.3931 31.1453 99.6183 31.3704C99.8435 31.5955 100.022 31.8627 100.144 32.1568C100.266 32.4509 100.329 32.7661 100.329 33.0845C100.329 33.4029 100.267 33.7182 100.145 34.0124C100.023 34.3066 99.8445 34.5739 99.6195 34.7991L97.5395 36.8791L94.1096 33.4515L96.1896 31.3716ZM92.9281 34.633L96.3557 38.0629L93.4452 40.9805L90.0153 37.5529L92.9281 34.633ZM69.892 58.3289L72.6598 61.0967L68.2566 62.7344L69.892 58.3289ZM74.1736 60.245L70.7507 56.8175L88.8337 38.7344L92.2613 42.1643L74.1736 60.245ZM94.615 42.1643L97.5349 39.2445L98.4824 40.1943L95.5649 43.1119L94.615 42.1643Z" fill="black"/>
<path d="M231.073 52.194L226.889 54.3901L224.878 51.7808L226.903 52.0379L227.472 50.4195L229.045 50.9137L230.068 49.057L231.073 52.194Z" fill="black"/>
<path d="M231.261 52.551L227.076 54.7471L227.285 55.1454L231.47 52.9493L231.261 52.551Z" fill="black"/>
<path d="M240.521 47.5487L240.404 47.6099L241.254 49.2298L241.371 49.1686L240.521 47.5487Z" fill="black"/>
<path d="M239.09 48.2997L238.974 48.3608L239.824 49.9808L239.941 49.9196L239.09 48.2997Z" fill="black"/>
<path d="M237.662 49.0492L237.546 49.1104L238.396 50.7303L238.513 50.6691L237.662 49.0492Z" fill="black"/>
<path d="M236.232 49.8001L236.115 49.8613L236.965 51.4813L237.082 51.4201L236.232 49.8001Z" fill="black"/>
<path d="M234.804 50.5492L234.687 50.6104L235.537 52.2303L235.654 52.1691L234.804 50.5492Z" fill="black"/>
<path d="M223.272 56.6009L223.156 56.6621L224.006 58.282L224.122 58.2209L223.272 56.6009Z" fill="black"/>
<path d="M221.842 57.3514L221.725 57.4126L222.575 59.0325L222.692 58.9714L221.842 57.3514Z" fill="black"/>
<path d="M220.414 58.1009L220.297 58.1621L221.147 59.782L221.264 59.7209L220.414 58.1009Z" fill="black"/>
<path d="M218.983 58.8519L218.867 58.9131L219.717 60.533L219.833 60.4718L218.983 58.8519Z" fill="black"/>
<path d="M217.555 59.6014L217.439 59.6626L218.289 61.2825L218.405 61.2214L217.555 59.6014Z" fill="black"/>
<path d="M240.427 74.1906C240.422 74.1846 240.416 74.1803 240.409 74.178C240.401 74.1758 240.394 74.1757 240.386 74.1779C240.204 74.2291 240.011 74.2263 239.831 74.1697C239.651 74.1131 239.49 74.0052 239.37 73.8592C239.364 73.8515 239.356 73.846 239.346 73.8438C239.336 73.8415 239.326 73.8426 239.317 73.8467C239.313 73.8488 239.309 73.8517 239.305 73.8553C239.301 73.859 239.299 73.8633 239.297 73.868C239.295 73.8727 239.294 73.8777 239.294 73.8828C239.294 73.8878 239.295 73.8928 239.297 73.8974C239.349 74.0801 239.346 74.2738 239.289 74.4549C239.233 74.636 239.124 74.7966 238.978 74.9171C238.971 74.9235 238.966 74.932 238.964 74.9413C238.962 74.9506 238.963 74.9603 238.968 74.9688C238.971 74.9778 238.979 74.9851 238.988 74.989C238.997 74.9929 239.007 74.9933 239.016 74.99C239.198 74.9391 239.39 74.9417 239.571 74.9976C239.751 75.0535 239.912 75.1602 240.033 75.3049C240.038 75.3112 240.044 75.316 240.052 75.3187C240.059 75.3214 240.067 75.3218 240.075 75.3201C240.082 75.3207 240.09 75.3192 240.096 75.3158C240.103 75.3124 240.108 75.3072 240.111 75.3009C240.11 75.2935 240.107 75.2866 240.101 75.2815C240.052 75.1007 240.056 74.9097 240.112 74.731C240.168 74.5523 240.274 74.3934 240.418 74.2729C240.424 74.2721 240.43 74.2689 240.435 74.264C240.442 74.2609 240.449 74.2554 240.453 74.2482C240.458 74.2411 240.459 74.2327 240.459 74.2244C240.458 74.2161 240.454 74.2083 240.448 74.2022C240.443 74.1961 240.435 74.192 240.427 74.1906Z" fill="black"/>
<path d="M247.152 70.6618C247.147 70.656 247.14 70.6518 247.132 70.6497C247.124 70.6477 247.116 70.648 247.109 70.6504C246.927 70.7006 246.734 70.6973 246.554 70.6407C246.374 70.5842 246.214 70.4769 246.093 70.3318C246.088 70.3221 246.079 70.3148 246.069 70.3116C246.058 70.3083 246.047 70.3094 246.037 70.3144C246.028 70.3195 246.02 70.3282 246.017 70.3386C246.014 70.349 246.015 70.3603 246.02 70.37C246.072 70.5526 246.069 70.7464 246.012 70.9274C245.955 71.1085 245.847 71.2692 245.7 71.3896C245.693 71.396 245.688 71.4045 245.686 71.4138C245.685 71.4232 245.686 71.4328 245.69 71.4414C245.694 71.4504 245.701 71.4576 245.71 71.4615C245.719 71.4655 245.729 71.4658 245.738 71.4625C245.92 71.4109 246.113 71.4132 246.294 71.4692C246.474 71.5251 246.635 71.6322 246.755 71.7775C246.761 71.7829 246.768 71.7871 246.775 71.7897C246.782 71.7924 246.79 71.7933 246.798 71.7926C246.805 71.7929 246.813 71.7912 246.82 71.7876C246.826 71.784 246.832 71.7787 246.836 71.7722C246.834 71.7651 246.831 71.7585 246.826 71.7528C246.777 71.5724 246.78 71.3816 246.835 71.2031C246.891 71.0245 246.997 70.8657 247.14 70.7455C247.148 70.7444 247.154 70.7408 247.16 70.7353C247.165 70.7304 247.169 70.7243 247.171 70.7177C247.174 70.711 247.175 70.7038 247.174 70.6967C247.173 70.6896 247.171 70.6828 247.167 70.6767C247.163 70.6707 247.158 70.6656 247.152 70.6618Z" fill="black"/>
<path d="M233.705 77.7185C233.7 77.7126 233.693 77.7083 233.686 77.706C233.679 77.7037 233.671 77.7037 233.664 77.7058C233.482 77.7571 233.289 77.7543 233.108 77.6977C232.928 77.6411 232.768 77.5332 232.648 77.3872C232.641 77.3791 232.632 77.3735 232.622 77.3715C232.612 77.3694 232.601 77.371 232.592 77.376C232.584 77.381 232.577 77.3887 232.574 77.3979C232.57 77.4071 232.57 77.4172 232.573 77.4267C232.625 77.6089 232.623 77.8025 232.567 77.9835C232.51 78.1646 232.402 78.3251 232.255 78.4451C232.247 78.4512 232.242 78.4598 232.24 78.4694C232.237 78.479 232.239 78.4891 232.243 78.4981C232.245 78.5027 232.248 78.5069 232.251 78.5104C232.255 78.5139 232.259 78.5167 232.264 78.5185C232.269 78.5204 232.274 78.5213 232.279 78.5212C232.284 78.5211 232.289 78.52 232.293 78.5179C232.475 78.4671 232.668 78.4697 232.848 78.5256C233.029 78.5814 233.189 78.6881 233.311 78.8329C233.315 78.8392 233.322 78.844 233.329 78.8466C233.337 78.8493 233.345 78.8498 233.353 78.848C233.36 78.8486 233.367 78.8471 233.374 78.8437C233.38 78.8404 233.385 78.8352 233.389 78.8289C233.388 78.8214 233.384 78.8146 233.379 78.8095C233.324 78.624 233.326 78.4266 233.383 78.2421C233.441 78.0576 233.552 77.8942 233.702 77.7725C233.708 77.7712 233.714 77.7681 233.719 77.7636C233.722 77.7556 233.722 77.7468 233.72 77.7386C233.717 77.7304 233.712 77.7233 233.705 77.7185Z" fill="black"/>
<path d="M253.367 63.993C253.324 64.0155 253.274 64.0205 253.228 64.0068C253.204 64.0009 253.182 63.9891 253.164 63.9725C253.15 63.9542 253.139 63.9336 253.132 63.9117C253.117 63.8928 253.106 63.8714 253.099 63.8486C253.097 63.8241 253.1 63.7996 253.107 63.776C253.119 63.7423 253.139 63.7125 253.167 63.6902C253.195 63.6679 253.229 63.654 253.264 63.6503C253.288 63.6474 253.312 63.6494 253.335 63.6562C253.358 63.6643 253.379 63.6764 253.397 63.6918C253.413 63.7101 253.424 63.7317 253.431 63.755C253.446 63.7726 253.457 63.7933 253.462 63.8157C253.466 63.8396 253.464 63.8639 253.456 63.887C253.449 63.91 253.437 63.9312 253.421 63.949C253.406 63.9677 253.388 63.9827 253.367 63.993Z" fill="black"/>
<path d="M242.935 80.2499C242.912 80.2067 242.908 80.1563 242.922 80.1098C242.937 80.0633 242.969 80.0244 243.012 80.0018C243.055 79.9798 243.106 79.9757 243.152 79.9901C243.198 80.0045 243.237 80.0365 243.26 80.0791C243.283 80.1223 243.288 80.1726 243.273 80.2192C243.259 80.2657 243.226 80.3046 243.183 80.3272C243.14 80.3499 243.089 80.3544 243.043 80.3399C242.996 80.3254 242.957 80.293 242.935 80.2499ZM240.516 81.485C240.494 81.4931 240.47 81.4967 240.445 81.4954C240.421 81.4941 240.398 81.4879 240.376 81.4774C240.354 81.4668 240.335 81.4521 240.319 81.4339C240.303 81.4158 240.291 81.3947 240.284 81.3718C240.275 81.3491 240.272 81.325 240.273 81.3009C240.274 81.2768 240.281 81.2532 240.291 81.2315C240.302 81.2098 240.316 81.1905 240.335 81.1745C240.353 81.1586 240.374 81.1465 240.397 81.1389C240.443 81.1232 240.493 81.1263 240.536 81.1475C240.58 81.1687 240.614 81.2063 240.63 81.2521C240.644 81.2936 240.643 81.3388 240.627 81.3796C240.611 81.4204 240.581 81.4541 240.542 81.4747L240.518 81.4874L240.516 81.485ZM245.391 78.7441C245.362 78.7049 245.35 78.656 245.358 78.6081C245.365 78.5601 245.391 78.517 245.43 78.4882C245.469 78.4603 245.518 78.4488 245.566 78.4561C245.614 78.4634 245.657 78.4889 245.686 78.5273C245.715 78.5665 245.726 78.6154 245.719 78.6634C245.712 78.7113 245.686 78.7544 245.647 78.7833L245.623 78.796C245.584 78.8162 245.54 78.822 245.497 78.8125C245.455 78.803 245.417 78.7788 245.391 78.7441ZM237.703 82.2273C237.68 82.2318 237.655 82.2317 237.632 82.2268C237.608 82.222 237.586 82.2125 237.566 82.199C237.547 82.1854 237.53 82.1681 237.517 82.148C237.504 82.1279 237.495 82.1054 237.49 82.0818C237.486 82.058 237.486 82.0336 237.492 82.01C237.497 81.9864 237.506 81.964 237.52 81.9441C237.534 81.9243 237.551 81.9073 237.572 81.8942C237.592 81.8811 237.615 81.8722 237.638 81.8679C237.686 81.8594 237.735 81.8699 237.774 81.8971C237.814 81.9243 237.842 81.9661 237.851 82.0134C237.858 82.0519 237.853 82.0917 237.835 82.1269C237.818 82.1621 237.79 82.1909 237.755 82.2091C237.739 82.2177 237.721 82.2238 237.703 82.2273ZM247.6 76.885C247.582 76.8685 247.568 76.8486 247.559 76.8267C247.55 76.8047 247.545 76.781 247.544 76.7571C247.544 76.7332 247.549 76.7095 247.558 76.6874C247.567 76.6653 247.581 76.6453 247.598 76.6286C247.632 76.5941 247.679 76.5745 247.727 76.574C247.776 76.5735 247.822 76.5922 247.857 76.626C247.874 76.643 247.888 76.6633 247.897 76.6856C247.906 76.7079 247.911 76.7318 247.911 76.756C247.911 76.7802 247.906 76.8041 247.897 76.8264C247.888 76.8487 247.874 76.869 247.857 76.8861C247.842 76.8971 247.826 76.9057 247.809 76.9116C247.775 76.9317 247.736 76.9404 247.697 76.9363C247.658 76.9322 247.621 76.9156 247.592 76.8888L247.6 76.885ZM234.819 82.533C234.795 82.5337 234.771 82.5296 234.748 82.521C234.726 82.5124 234.706 82.4995 234.688 82.4829C234.671 82.4664 234.657 82.4466 234.647 82.4246C234.638 82.4027 234.633 82.379 234.632 82.3551C234.631 82.3067 234.649 82.2597 234.682 82.2244C234.715 82.1891 234.761 82.1682 234.809 82.1663C234.833 82.1656 234.857 82.1697 234.879 82.1783C234.901 82.1869 234.922 82.1998 234.939 82.2164C234.957 82.2329 234.97 82.2527 234.98 82.2747C234.99 82.2967 234.995 82.3203 234.995 82.3442C234.997 82.3787 234.988 82.4129 234.971 82.4428C234.954 82.4727 234.929 82.4971 234.898 82.513C234.872 82.5282 234.842 82.5364 234.811 82.5368L234.819 82.533ZM249.494 74.7167C249.475 74.7028 249.458 74.6851 249.445 74.6648C249.433 74.6444 249.424 74.6217 249.421 74.598C249.417 74.5744 249.418 74.5502 249.424 74.5269C249.429 74.5036 249.439 74.4817 249.454 74.4624C249.467 74.4429 249.485 74.4263 249.506 74.4137C249.526 74.4011 249.549 74.3927 249.572 74.3889C249.596 74.3851 249.62 74.3861 249.643 74.3917C249.667 74.3974 249.689 74.4076 249.708 74.4218C249.728 74.4356 249.745 74.4533 249.758 74.4739C249.771 74.4944 249.779 74.5174 249.783 74.5413C249.787 74.5653 249.786 74.5898 249.78 74.6134C249.775 74.6369 249.764 74.6591 249.75 74.6786C249.733 74.7006 249.712 74.719 249.688 74.7326C249.657 74.7508 249.622 74.7594 249.586 74.7572C249.55 74.7551 249.515 74.7423 249.487 74.7206L249.494 74.7167ZM231.912 82.395C231.864 82.389 231.82 82.3642 231.79 82.3259C231.76 82.2876 231.746 82.239 231.752 82.1908C231.759 82.1429 231.784 82.0994 231.822 82.0696C231.86 82.0398 231.908 82.0259 231.956 82.031C232.005 82.037 232.048 82.0618 232.078 82.1001C232.108 82.1383 232.122 82.1869 232.116 82.2352C232.113 82.2647 232.102 82.2929 232.085 82.3173C232.068 82.3418 232.046 82.3618 232.02 82.3757C231.986 82.3967 231.947 82.4065 231.907 82.4037L231.912 82.395ZM251.035 72.2818C250.992 72.2592 250.96 72.2204 250.945 72.174C250.931 72.1276 250.935 72.0774 250.958 72.0343C250.981 71.9913 251.019 71.959 251.066 71.9446C251.112 71.9301 251.162 71.9346 251.205 71.9571C251.248 71.9797 251.281 72.0185 251.295 72.0649C251.31 72.1113 251.305 72.1615 251.283 72.2046C251.265 72.2376 251.238 72.2646 251.206 72.2822C251.179 72.298 251.15 72.3072 251.119 72.3086C251.088 72.3101 251.058 72.3038 251.03 72.2905L251.035 72.2818ZM229.062 81.8277C229.039 81.8208 229.018 81.8093 228.999 81.794C228.981 81.7787 228.965 81.7599 228.954 81.7386C228.943 81.7174 228.936 81.6941 228.934 81.6703C228.932 81.6464 228.935 81.6223 228.942 81.5994C228.949 81.5765 228.96 81.5551 228.976 81.5367C228.991 81.5182 229.01 81.5029 229.031 81.4918C229.052 81.4806 229.076 81.4738 229.099 81.4717C229.123 81.4696 229.147 81.4723 229.17 81.4796C229.193 81.4866 229.215 81.4981 229.233 81.5134C229.252 81.5287 229.267 81.5475 229.278 81.5687C229.289 81.59 229.296 81.6132 229.298 81.6371C229.3 81.661 229.297 81.6851 229.29 81.7079C229.283 81.7321 229.272 81.7547 229.256 81.7742C229.24 81.7937 229.22 81.8098 229.198 81.8214C229.177 81.8335 229.153 81.8411 229.129 81.8437C229.105 81.8463 229.08 81.8438 229.057 81.8364L229.062 81.8277ZM252.195 69.6471C252.173 69.6401 252.151 69.6286 252.133 69.6133C252.114 69.598 252.099 69.5792 252.088 69.558C252.077 69.5367 252.07 69.5135 252.068 69.4896C252.066 69.4657 252.068 69.4416 252.076 69.4188C252.083 69.3941 252.095 69.3711 252.111 69.3512C252.127 69.3313 252.147 69.3149 252.17 69.3029C252.192 69.291 252.217 69.2838 252.243 69.2818C252.269 69.2798 252.294 69.2831 252.319 69.2913C252.365 69.3064 252.403 69.3389 252.426 69.382C252.449 69.4251 252.454 69.4754 252.44 69.522C252.424 69.5659 252.392 69.6024 252.351 69.6244C252.328 69.6414 252.302 69.6531 252.274 69.6585C252.247 69.6639 252.218 69.663 252.191 69.6557L252.195 69.6471ZM226.331 80.8447C226.288 80.8237 226.254 80.787 226.237 80.742C226.219 80.6969 226.22 80.647 226.238 80.6023C226.258 80.5579 226.295 80.5231 226.34 80.5057C226.385 80.4882 226.436 80.4895 226.48 80.5092C226.525 80.5291 226.56 80.5657 226.577 80.6112C226.594 80.6566 226.593 80.7071 226.573 80.7516C226.557 80.789 226.528 80.8194 226.492 80.8378C226.467 80.8507 226.44 80.8579 226.412 80.8591C226.384 80.8603 226.357 80.8554 226.331 80.8447ZM252.957 66.8717C252.909 66.8626 252.867 66.835 252.839 66.7948C252.812 66.7547 252.801 66.7052 252.81 66.6574C252.815 66.6339 252.823 66.6115 252.836 66.5915C252.849 66.5715 252.866 66.5542 252.886 66.5407C252.906 66.5272 252.928 66.5177 252.951 66.5128C252.975 66.5079 252.999 66.5077 253.022 66.5122C253.069 66.521 253.111 66.5479 253.139 66.5873C253.167 66.6266 253.178 66.6753 253.17 66.7227C253.165 66.7504 253.154 66.7765 253.137 66.7992C253.121 66.8218 253.099 66.8404 253.074 66.8534C253.036 66.8757 252.991 66.8839 252.947 66.8768L252.957 66.8717Z" fill="black"/>
<path d="M223.94 79.4637C223.897 79.486 223.847 79.4909 223.801 79.4775C223.756 79.4618 223.718 79.4297 223.695 79.3875C223.68 79.3693 223.668 79.3477 223.662 79.3244C223.66 79.3005 223.662 79.2763 223.668 79.2531C223.683 79.2076 223.716 79.1697 223.758 79.1474C223.801 79.1251 223.85 79.12 223.896 79.1333C223.92 79.141 223.941 79.1526 223.961 79.1676C223.975 79.1866 223.987 79.208 223.994 79.2308C224.016 79.2739 224.02 79.3238 224.005 79.3697C223.99 79.4157 223.958 79.454 223.915 79.4765L223.94 79.4637Z" fill="black"/>
<path d="M244.55 47.1937C244.508 47.2162 244.458 47.2212 244.412 47.2075C244.388 47.2016 244.366 47.1898 244.348 47.1731C244.334 47.1549 244.323 47.1343 244.316 47.1124C244.301 47.0935 244.29 47.0721 244.283 47.0493C244.281 47.0248 244.284 47.0003 244.291 46.9767C244.302 46.9429 244.323 46.9132 244.351 46.8909C244.379 46.8686 244.412 46.8547 244.448 46.851C244.472 46.848 244.496 46.8501 244.519 46.8569C244.542 46.865 244.563 46.8771 244.581 46.8925C244.597 46.9108 244.608 46.9324 244.614 46.9557C244.629 46.9732 244.64 46.994 244.646 47.0164C244.65 47.0403 244.648 47.0646 244.64 47.0877C244.633 47.1107 244.621 47.1319 244.605 47.1497C244.59 47.1683 244.572 47.1834 244.55 47.1937Z" fill="black"/>
<path d="M241.86 45.8211C241.815 45.8013 241.781 45.7646 241.763 45.7192C241.746 45.6738 241.747 45.6233 241.767 45.5788C241.788 45.535 241.825 45.501 241.87 45.484C241.916 45.4671 241.966 45.4686 242.01 45.4881C242.032 45.4982 242.052 45.5124 242.068 45.5301C242.085 45.5478 242.098 45.5685 242.106 45.5912C242.114 45.6138 242.118 45.6378 242.118 45.6619C242.117 45.6861 242.111 45.7098 242.101 45.7317C242.084 45.7684 242.055 45.7986 242.019 45.818C241.995 45.8303 241.967 45.8369 241.94 45.8374C241.912 45.838 241.885 45.8324 241.86 45.8211ZM215.292 59.7635C215.268 59.7597 215.246 59.751 215.225 59.7382C215.204 59.7253 215.187 59.7084 215.173 59.6885C215.159 59.6687 215.149 59.6462 215.144 59.6225C215.139 59.5988 215.139 59.5743 215.143 59.5505C215.154 59.5034 215.182 59.462 215.222 59.4347C215.261 59.4075 215.31 59.3965 215.358 59.404C215.406 59.413 215.448 59.4407 215.475 59.4808C215.503 59.521 215.513 59.5704 215.504 59.6183C215.499 59.6453 215.488 59.6708 215.472 59.6928C215.456 59.7148 215.434 59.7328 215.41 59.7453C215.374 59.7653 215.332 59.7718 215.292 59.7635ZM239.182 44.8505C239.159 44.8435 239.138 44.8321 239.119 44.8168C239.101 44.8015 239.086 44.7827 239.074 44.7614C239.063 44.7402 239.056 44.7169 239.054 44.693C239.052 44.6691 239.055 44.6451 239.062 44.6222C239.069 44.5993 239.081 44.5779 239.096 44.5594C239.111 44.5409 239.13 44.5257 239.151 44.5146C239.173 44.5034 239.196 44.4966 239.22 44.4945C239.244 44.4924 239.268 44.4951 239.291 44.5024C239.314 44.5094 239.335 44.5208 239.353 44.5361C239.372 44.5514 239.387 44.5702 239.398 44.5915C239.409 44.6127 239.416 44.636 239.418 44.6599C239.42 44.6838 239.418 44.7078 239.41 44.7307C239.404 44.7547 239.393 44.7771 239.378 44.7964C239.362 44.8157 239.343 44.8316 239.321 44.8429C239.277 44.8634 239.228 44.8661 239.182 44.8505ZM216.002 56.9781C215.977 56.9715 215.954 56.9597 215.934 56.9436C215.914 56.9275 215.897 56.9074 215.885 56.8846C215.873 56.8618 215.866 56.8367 215.864 56.811C215.862 56.7853 215.866 56.7595 215.875 56.7352C215.882 56.7123 215.893 56.6909 215.908 56.6725C215.924 56.654 215.942 56.6387 215.964 56.6276C215.985 56.6164 216.008 56.6096 216.032 56.6075C216.056 56.6054 216.08 56.6081 216.103 56.6154C216.126 56.6224 216.147 56.6339 216.166 56.6492C216.184 56.6645 216.199 56.6833 216.211 56.7045C216.222 56.7258 216.229 56.749 216.231 56.7729C216.233 56.7968 216.23 56.8209 216.223 56.8437C216.216 56.8662 216.205 56.8871 216.19 56.9051C216.175 56.9231 216.156 56.9379 216.135 56.9485C216.095 56.9743 216.046 56.9832 215.999 56.9733L216.002 56.9781ZM236.387 44.2883C236.363 44.2857 236.34 44.2783 236.319 44.2665C236.298 44.2548 236.279 44.2389 236.264 44.2199C236.249 44.2009 236.239 44.179 236.232 44.1557C236.226 44.1324 236.224 44.108 236.228 44.0841C236.234 44.0359 236.258 43.992 236.297 43.962C236.335 43.9321 236.383 43.9185 236.432 43.9243C236.48 43.9302 236.524 43.9551 236.554 43.9934C236.584 44.0316 236.597 44.0802 236.592 44.1285C236.588 44.158 236.577 44.1861 236.561 44.2106C236.544 44.2351 236.521 44.2551 236.495 44.269C236.461 44.2852 236.422 44.2903 236.385 44.2834L236.387 44.2883ZM217.118 54.3234C217.075 54.3007 217.043 54.2619 217.028 54.2155C217.014 54.1691 217.018 54.1189 217.041 54.0758C217.063 54.0328 217.102 54.0006 217.148 53.9861C217.195 53.9716 217.245 53.9761 217.288 53.9986C217.331 54.0212 217.363 54.06 217.378 54.1064C217.392 54.1528 217.388 54.203 217.365 54.2461C217.348 54.2791 217.321 54.3061 217.288 54.3237C217.261 54.3367 217.231 54.3429 217.201 54.342C217.171 54.3411 217.142 54.3331 217.115 54.3185L217.118 54.3234ZM233.54 44.1565C233.516 44.1572 233.492 44.1532 233.469 44.1446C233.447 44.136 233.427 44.123 233.409 44.1065C233.392 44.0899 233.378 44.0701 233.369 44.0481C233.359 44.0262 233.354 44.0025 233.353 43.9786C233.353 43.9546 233.357 43.9308 233.365 43.9084C233.374 43.886 233.387 43.8656 233.403 43.8483C233.42 43.8309 233.44 43.8171 233.462 43.8075C233.484 43.7978 233.507 43.7927 233.531 43.7923C233.555 43.7916 233.579 43.7957 233.601 43.8042C233.624 43.8128 233.644 43.8258 233.662 43.8423C233.679 43.8589 233.693 43.8787 233.702 43.9007C233.712 43.9226 233.717 43.9463 233.718 43.9702C233.718 44.0044 233.709 44.038 233.692 44.0674C233.675 44.0968 233.649 44.1207 233.619 44.1365C233.592 44.1471 233.563 44.1506 233.535 44.1468L233.54 44.1565ZM218.624 51.8695C218.605 51.8556 218.588 51.8379 218.575 51.8175C218.563 51.7971 218.554 51.7744 218.551 51.7508C218.547 51.7271 218.548 51.7029 218.553 51.6796C218.559 51.6564 218.569 51.6344 218.584 51.6151C218.613 51.5761 218.656 51.5501 218.705 51.5427C218.753 51.5353 218.802 51.5472 218.842 51.5757C218.88 51.6047 218.906 51.6478 218.913 51.6957C218.92 51.7435 218.908 51.7923 218.88 51.8314C218.862 51.8536 218.84 51.8724 218.816 51.8866C218.784 51.9021 218.748 51.9079 218.713 51.9031C218.678 51.8984 218.645 51.8833 218.619 51.8598L218.624 51.8695ZM230.705 44.4514C230.682 44.4564 230.657 44.4565 230.634 44.4518C230.61 44.4471 230.588 44.4377 230.568 44.4241C230.548 44.4105 230.531 44.393 230.518 44.3727C230.505 44.3524 230.497 44.3297 230.493 44.3059C230.488 44.2824 230.488 44.2582 230.493 44.2347C230.498 44.2112 230.507 44.189 230.521 44.1692C230.534 44.1494 230.552 44.1325 230.572 44.1195C230.592 44.1064 230.615 44.0975 230.638 44.0933C230.662 44.0889 230.686 44.0893 230.71 44.0944C230.734 44.0994 230.756 44.1091 230.776 44.1229C230.796 44.1366 230.813 44.1541 230.826 44.1744C230.839 44.1947 230.848 44.2174 230.852 44.2412C230.859 44.2797 230.853 44.3193 230.836 44.3544C230.819 44.3896 230.791 44.4184 230.757 44.4369C230.738 44.4431 230.719 44.4447 230.7 44.4417L230.705 44.4514ZM220.48 49.6689C220.463 49.6519 220.45 49.6318 220.44 49.6097C220.431 49.5875 220.427 49.5638 220.427 49.5398C220.427 49.5158 220.432 49.4921 220.441 49.47C220.45 49.448 220.464 49.428 220.481 49.4112C220.498 49.3941 220.518 49.3805 220.541 49.3713C220.563 49.362 220.587 49.3572 220.611 49.3572C220.635 49.3572 220.659 49.3619 220.682 49.3711C220.704 49.3804 220.724 49.3939 220.741 49.411C220.758 49.4279 220.772 49.448 220.781 49.4702C220.79 49.4923 220.795 49.5161 220.795 49.5401C220.794 49.564 220.79 49.5877 220.78 49.6098C220.771 49.6319 220.757 49.6519 220.74 49.6687C220.725 49.6795 220.709 49.6881 220.692 49.6942C220.657 49.7128 220.616 49.7195 220.577 49.7132C220.538 49.7069 220.502 49.6879 220.475 49.6591L220.48 49.6689ZM227.948 45.1767C227.902 45.1923 227.852 45.1892 227.808 45.168C227.765 45.1468 227.731 45.1092 227.715 45.0635C227.707 45.0408 227.703 45.0166 227.704 44.9924C227.705 44.9682 227.711 44.9445 227.722 44.9227C227.732 44.9009 227.747 44.8815 227.766 44.8656C227.784 44.8498 227.805 44.8379 227.828 44.8306C227.874 44.8149 227.925 44.818 227.968 44.8392C228.012 44.8604 228.045 44.898 228.061 44.9438C228.075 44.9851 228.073 45.0298 228.057 45.0701C228.041 45.1104 228.011 45.1437 227.972 45.1639L227.948 45.1767ZM222.651 47.7737C222.623 47.7345 222.611 47.6856 222.618 47.6376C222.625 47.5897 222.651 47.5466 222.69 47.5177C222.73 47.4898 222.778 47.4783 222.826 47.4856C222.874 47.4929 222.917 47.5185 222.946 47.5569C222.975 47.596 222.987 47.6449 222.979 47.6929C222.972 47.7408 222.946 47.7839 222.907 47.8128L222.883 47.8255C222.843 47.8461 222.796 47.8512 222.753 47.8399C222.709 47.8285 222.671 47.8015 222.646 47.7639L222.651 47.7737ZM225.081 46.2292C225.058 46.186 225.053 46.1356 225.068 46.0891C225.082 46.0426 225.115 46.0037 225.158 45.9811C225.179 45.9696 225.202 45.9624 225.226 45.96C225.25 45.9575 225.274 45.9599 225.297 45.9668C225.32 45.9738 225.341 45.9853 225.36 46.0006C225.378 46.0159 225.394 46.0347 225.405 46.056C225.428 46.0991 225.432 46.1495 225.418 46.196C225.403 46.2426 225.371 46.2814 225.328 46.3041C225.306 46.3156 225.281 46.3226 225.257 46.3246C225.232 46.3266 225.207 46.3236 225.183 46.3157C225.16 46.3077 225.138 46.2951 225.12 46.2786C225.101 46.2621 225.086 46.242 225.076 46.2195L225.081 46.2292Z" fill="black"/>
<path d="M215.101 62.621C215.058 62.6432 215.009 62.6481 214.962 62.6347C214.94 62.6272 214.918 62.6151 214.9 62.5991C214.885 62.5816 214.874 62.5608 214.869 62.5384C214.853 62.5201 214.842 62.4986 214.835 62.4753C214.833 62.4521 214.835 62.4286 214.843 62.4064C214.857 62.3605 214.89 62.3222 214.932 62.2998C214.975 62.2774 215.025 62.2726 215.071 62.2866C215.094 62.2927 215.116 62.3036 215.134 62.3185C215.149 62.3375 215.16 62.3588 215.167 62.3816C215.181 62.3999 215.192 62.4205 215.199 62.4424C215.202 62.4785 215.195 62.5148 215.177 62.5465C215.16 62.5783 215.133 62.6042 215.101 62.621Z" fill="black"/>
<path d="M243.846 81.621C254.044 76.2691 257.973 63.6633 252.621 53.4652C247.269 43.2671 234.663 39.3385 224.465 44.6904C214.267 50.0423 210.339 62.6481 215.69 72.8461C221.042 83.0442 233.648 86.9729 243.846 81.621Z" stroke="black" stroke-miterlimit="10"/>
<path d="M252.137 60.193L221.635 76.2002" stroke="black" stroke-miterlimit="10"/>
<path d="M247.247 50.8742L216.745 66.8813" stroke="black" stroke-miterlimit="10"/>
<g opacity="0.9">
<circle cx="296.295" cy="52.8852" r="1.11475" transform="rotate(-90 296.295 52.8852)" fill="white"/>
<circle cx="301.869" cy="52.8852" r="1.11475" transform="rotate(-90 301.869 52.8852)" fill="white"/>
<circle cx="306.885" cy="52.8852" r="1.11475" transform="rotate(-90 306.885 52.8852)" fill="white"/>
<circle cx="296.295" cy="47.8686" r="1.11475" transform="rotate(-90 296.295 47.8686)" fill="white"/>
<circle cx="301.869" cy="47.8686" r="1.11475" transform="rotate(-90 301.869 47.8686)" fill="white"/>
<circle cx="306.885" cy="47.8686" r="1.11475" transform="rotate(-90 306.885 47.8686)" fill="white"/>
<circle cx="296.295" cy="42.2949" r="1.11475" transform="rotate(-90 296.295 42.2949)" fill="white"/>
<circle cx="291.279" cy="42.2949" r="1.11475" transform="rotate(-90 291.279 42.2949)" fill="white"/>
<circle cx="285.705" cy="42.2949" r="1.11475" transform="rotate(-90 285.705 42.2949)" fill="white"/>
<circle cx="301.869" cy="42.2949" r="1.11475" transform="rotate(-90 301.869 42.2949)" fill="white"/>
<circle cx="306.885" cy="42.2949" r="1.11475" transform="rotate(-90 306.885 42.2949)" fill="white"/>
<circle cx="296.295" cy="37.2788" r="1.11475" transform="rotate(-90 296.295 37.2788)" fill="white"/>
<circle cx="301.869" cy="37.2788" r="1.11475" transform="rotate(-90 301.869 37.2788)" fill="white"/>
<circle cx="306.885" cy="37.2788" r="1.11475" transform="rotate(-90 306.885 37.2788)" fill="white"/>
<circle cx="275.115" cy="31.7051" r="1.11475" transform="rotate(-90 275.115 31.7051)" fill="white"/>
<circle cx="280.688" cy="31.7051" r="1.11475" transform="rotate(-90 280.688 31.7051)" fill="white"/>
<circle cx="285.705" cy="31.7051" r="1.11475" transform="rotate(-90 285.705 31.7051)" fill="white"/>
<circle cx="285.705" cy="37.2788" r="1.11475" transform="rotate(-90 285.705 37.2788)" fill="white"/>
<circle cx="291.279" cy="31.7051" r="1.11475" transform="rotate(-90 291.279 31.7051)" fill="white"/>
<circle cx="291.279" cy="37.2788" r="1.11475" transform="rotate(-90 291.279 37.2788)" fill="white"/>
<circle cx="301.869" cy="31.7051" r="1.11475" transform="rotate(-90 301.869 31.7051)" fill="white"/>
<circle cx="296.295" cy="31.7051" r="1.11475" transform="rotate(-90 296.295 31.7051)" fill="white"/>
<circle cx="306.885" cy="31.7051" r="1.11475" transform="rotate(-90 306.885 31.7051)" fill="white"/>
<circle cx="275.115" cy="26.6885" r="1.11475" transform="rotate(-90 275.115 26.6885)" fill="white"/>
<circle cx="280.688" cy="26.6885" r="1.11475" transform="rotate(-90 280.688 26.6885)" fill="white"/>
<circle cx="285.705" cy="26.6885" r="1.11475" transform="rotate(-90 285.705 26.6885)" fill="white"/>
<circle cx="291.279" cy="26.6885" r="1.11475" transform="rotate(-90 291.279 26.6885)" fill="white"/>
<circle cx="296.295" cy="26.6885" r="1.11475" transform="rotate(-90 296.295 26.6885)" fill="white"/>
<circle cx="301.869" cy="26.6885" r="1.11475" transform="rotate(-90 301.869 26.6885)" fill="white"/>
<circle cx="306.885" cy="26.6885" r="1.11475" transform="rotate(-90 306.885 26.6885)" fill="white"/>
<circle cx="275.115" cy="21.1147" r="1.11475" transform="rotate(-90 275.115 21.1147)" fill="white"/>
<circle cx="280.688" cy="21.1147" r="1.11475" transform="rotate(-90 280.688 21.1147)" fill="white"/>
<circle cx="285.705" cy="21.1147" r="1.11475" transform="rotate(-90 285.705 21.1147)" fill="white"/>
<circle cx="291.279" cy="21.1147" r="1.11475" transform="rotate(-90 291.279 21.1147)" fill="white"/>
<circle cx="296.295" cy="21.1147" r="1.11475" transform="rotate(-90 296.295 21.1147)" fill="white"/>
<circle cx="301.869" cy="21.1147" r="1.11475" transform="rotate(-90 301.869 21.1147)" fill="white"/>
<circle cx="306.885" cy="21.1147" r="1.11475" transform="rotate(-90 306.885 21.1147)" fill="white"/>
</g>
</svg>
