<svg width="24" height="24" viewBox="0 0 24 24" fill="none" xmlns="http://www.w3.org/2000/svg">
<g clip-path="url(#clip0_121_8056)">
<path d="M23.2969 11.2969H18.6282V12.7031H23.2969C23.6852 12.7031 24 12.3883 24 12C24 11.6117 23.6852 11.2969 23.2969 11.2969Z" fill="#A16969"/>
<path d="M18.5428 5.49895C18.5358 5.49192 18.5292 5.48488 18.5222 5.47785C16.9322 3.88785 14.8186 3.0127 12.5705 3.0127H9.74063C9.55406 3.0127 9.37547 3.08676 9.24328 3.21848L6.98391 5.47785C6.84 5.62223 6.76547 5.82145 6.78 6.02488C6.79219 6.19645 6.86672 6.35676 6.98813 6.47629C7.85203 7.33926 8.87578 7.98426 9.99234 8.38457H15.5147C16.6322 7.98379 17.6564 7.33785 18.5208 6.47395C18.7997 6.19645 18.787 5.7652 18.5428 5.49895ZM16.5188 9.79082H2.91234V9.74067C2.91234 9.35254 2.59781 9.03754 2.20922 9.03754C1.82109 9.03754 1.50609 9.35254 1.50609 9.74067V9.79082H0.703125C0.315 9.79082 0 10.1054 0 10.4939V13.5061C0 13.8947 0.315 14.2093 0.703125 14.2093H1.08469C1.32984 14.2093 1.55813 14.319 1.71141 14.5102C1.86469 14.701 1.92188 14.9475 1.86891 15.1866L0.769688 20.1319C0.72375 20.34 0.774375 20.558 0.907969 20.7244C1.04109 20.8908 1.24313 20.9874 1.45641 20.9874H4.46859C4.79156 20.9874 5.07281 20.768 5.15063 20.4549L5.77078 17.9752H7.05844C8.07422 17.9752 8.95547 17.2871 9.20156 16.3018L9.53625 14.9625H11.0995L10.5647 17.1015C10.5122 17.3115 10.5595 17.5341 10.6927 17.7047C10.8258 17.8754 11.0302 17.9752 11.2467 17.9752H14.2594C14.5819 17.9752 14.8631 17.7554 14.9414 17.4422L15.5616 14.9625H16.5188C16.9069 14.9625 17.2219 14.6475 17.2219 14.2594V10.4939C17.2219 10.1054 16.9069 9.79082 16.5188 9.79082ZM7.8375 15.9605C7.74797 16.3186 7.42734 16.569 7.05844 16.569H6.12234L6.52406 14.9625H8.08688L7.8375 15.9605Z" fill="#A16969"/>
</g>
<defs>
<clipPath id="clip0_121_8056">
<rect width="24" height="24" fill="white"/>
</clipPath>
</defs>
</svg>
