<svg width="24" height="24" viewBox="0 0 24 24" fill="none" xmlns="http://www.w3.org/2000/svg">
<g clip-path="url(#clip0_121_8130)">
<path d="M18.7178 23.2037C18.7268 23.0015 18.7309 22.7981 18.7305 22.5937H4.3046L17.6913 17.1592C17.5254 16.721 17.3405 16.289 17.1399 15.8654L3.65462 21.3398L13.8879 11.1065C13.5697 10.7654 13.2346 10.4303 12.8935 10.1122L2.65017 20.3555L8.10861 6.8477C7.68453 6.64777 7.25243 6.46355 6.81348 6.29925L1.40637 19.6801V5.26995C0.937285 5.26489 0.443262 5.33867 9.86179e-05 5.16406V23.2852C-0.00322956 23.4818 0.0779123 23.6614 0.208602 23.7915C0.337651 23.9199 0.515122 24 0.707875 24H18.8379C18.7487 23.7495 18.7056 23.48 18.7178 23.2037Z" fill="#3E91F3"/>
<path d="M23.9391 13.7969C23.7835 12.0632 23.338 10.3869 22.615 8.8146C21.8667 7.18702 20.8398 5.71428 19.5627 4.43729C18.2857 3.16026 16.813 2.13335 15.1855 1.38498C13.6132 0.662011 11.9368 0.216551 10.2031 0.0608766C6.72012 -0.251738 3.20688 0.646824 0.311224 2.59114C0.0495639 2.76683 -0.0632191 3.09514 0.0352668 3.39459C0.133753 3.69398 0.419132 3.89114 0.734231 3.87736C3.0341 3.77602 5.47285 4.22293 7.78753 5.17033C10.2254 6.16823 12.448 7.6607 14.3937 9.60637C16.3393 11.552 17.8318 13.7747 18.8297 16.2125C19.7771 18.5272 20.2242 20.9662 20.1227 23.2658C20.1087 23.5807 20.3061 23.8663 20.6054 23.9647C20.6778 23.9886 20.7518 24 20.825 24C21.0546 24 21.2756 23.8872 21.4088 23.6888C23.3532 20.7932 24.2518 17.2801 23.9391 13.7969Z" fill="#3E91F3"/>
</g>
<defs>
<clipPath id="clip0_121_8130">
<rect width="24" height="24" fill="white"/>
</clipPath>
</defs>
</svg>
