<svg width="74" height="74" viewBox="0 0 74 74" fill="none" xmlns="http://www.w3.org/2000/svg">
<path d="M37 74C57.4345 74 74 57.4345 74 37C74 16.5655 57.4345 0 37 0C16.5655 0 0 16.5655 0 37C0 57.4345 16.5655 74 37 74Z" fill="url(#paint0_linear_121_7854)"/>
<path d="M53.6892 48.554C53.1486 48.554 52.6373 48.6609 52.1476 48.8166C54.4511 45.8693 55.9285 42.2455 56.1917 38.2837H49.6197C49.2035 38.2837 48.8124 38.082 48.5716 37.7433C48.331 37.4035 48.2707 36.9686 48.4087 36.5762C48.9945 34.8728 47.7378 33.1487 45.9865 33.1487C44.2325 33.1487 42.979 34.8741 43.5643 36.5762C43.7022 36.9686 43.6421 37.4037 43.4013 37.7433C43.1606 38.0818 42.7694 38.2837 42.3531 38.2837H38.2837V40.8513C41.1145 40.8513 43.4188 43.1544 43.4188 45.9864C43.4188 48.8185 41.1145 51.1216 38.2837 51.1216V56.1916C42.2453 55.9285 45.8692 54.451 48.8164 52.1477C48.6608 52.6374 48.554 53.1486 48.554 53.6892C48.554 56.5213 50.8582 58.8242 53.6892 58.8242C56.52 58.8242 58.8242 56.5211 58.8242 53.6892C58.8242 50.8569 56.52 48.554 53.6892 48.554ZM20.3108 25.446C20.8514 25.446 21.3627 25.3391 21.8524 25.1834C19.5489 28.1307 18.0715 31.7545 17.8083 35.7163H24.3803C24.7965 35.7163 25.1876 35.918 25.4284 36.2567C25.669 36.5965 25.7293 37.0314 25.5913 37.4238C25.0055 39.1272 26.2622 40.8513 28.0135 40.8513C29.7675 40.8513 31.021 39.1259 30.4357 37.4238C30.2978 37.0314 30.3579 36.5963 30.5987 36.2567C30.8394 35.9182 31.2306 35.7163 31.6469 35.7163H35.7163V33.1487C32.8855 33.1487 30.5812 30.8456 30.5812 28.0135C30.5812 25.1814 32.8855 22.8784 35.7163 22.8784V17.8084C31.7547 18.0715 28.1308 19.549 25.1836 21.8523C25.3392 21.3626 25.446 20.8514 25.446 20.3108C25.446 17.4787 23.1418 15.1758 20.3108 15.1758C17.48 15.1758 15.1758 17.4789 15.1758 20.3108C15.1758 23.1431 17.48 25.446 20.3108 25.446ZM33.1487 28.0135C33.1487 29.7223 34.964 31.0011 36.5738 30.4344C36.9675 30.2952 37.4012 30.3591 37.7422 30.5974C38.0807 30.8381 38.2837 31.2293 38.2837 31.6454V35.7161H40.8513C40.8513 32.884 43.1556 30.5811 45.9865 30.5811C48.8175 30.5811 51.1216 32.884 51.1216 35.7161H56.1917C55.9285 31.7544 54.4511 28.1306 52.1476 25.1833C52.6373 25.3389 53.1486 25.4459 53.6892 25.4459C56.52 25.4459 58.8242 23.1429 58.8242 20.3108C58.8242 17.4789 56.52 15.1758 53.6892 15.1758C50.8584 15.1758 48.554 17.4789 48.554 20.3108C48.554 20.8514 48.6609 21.3626 48.8164 21.8523C45.8692 19.5489 42.2453 18.0715 38.2837 17.8084V24.3816C38.2837 24.7978 38.0807 25.1889 37.7422 25.4297C37.4012 25.6716 36.9673 25.7342 36.5738 25.5926C34.9664 25.0249 33.1487 26.3047 33.1487 28.0135ZM40.8513 45.9864C40.8513 44.2789 39.036 42.9926 37.4262 43.5655C37.0351 43.7071 36.5988 43.6444 36.2578 43.4024C35.9193 43.1618 35.7163 42.7706 35.7163 42.3544V38.2837H33.1487C33.1487 41.1158 30.8444 43.4188 28.0135 43.4188C25.1825 43.4188 22.8784 41.1158 22.8784 38.2837H17.8083C18.0715 42.2455 19.5489 45.8693 21.8524 48.8166C21.3627 48.6609 20.8514 48.554 20.3108 48.554C17.48 48.554 15.1758 50.8569 15.1758 53.689C15.1758 56.5211 17.48 58.8242 20.3108 58.8242C23.1416 58.8242 25.446 56.5211 25.446 53.6892C25.446 53.1486 25.3391 52.6374 25.1836 52.1477C28.1308 54.4511 31.7547 55.9285 35.7163 56.1916V49.6184C35.7163 49.2022 35.9193 48.8111 36.2578 48.5703C36.5988 48.3308 37.0351 48.272 37.4262 48.4074C39.0385 48.9803 40.8513 47.6965 40.8513 45.9864Z" fill="url(#paint1_linear_121_7854)"/>
<defs>
<linearGradient id="paint0_linear_121_7854" x1="37" y1="74" x2="37" y2="0" gradientUnits="userSpaceOnUse">
<stop stop-color="#ADDCFF"/>
<stop offset="0.5028" stop-color="#EAF6FF"/>
<stop offset="1" stop-color="#EAF6FF"/>
</linearGradient>
<linearGradient id="paint1_linear_121_7854" x1="37" y1="58.8242" x2="37" y2="15.1758" gradientUnits="userSpaceOnUse">
<stop stop-color="#00C0FF"/>
<stop offset="1" stop-color="#5558FF"/>
</linearGradient>
</defs>
</svg>
