<svg width="57" height="57" viewBox="0 0 57 57" fill="none" xmlns="http://www.w3.org/2000/svg">
<rect width="56.3636" height="56.3636" rx="28.1818" fill="#1F7CFF"/>
<g clip-path="url(#clip0_20_1730)">
<path d="M15.4967 20.829C15.6995 20.829 15.9024 20.7517 16.0571 20.5969C17.3837 19.2703 18.9185 18.229 20.6187 17.5021C21.0212 17.33 21.208 16.8642 21.0359 16.4617C20.8638 16.0591 20.3981 15.8724 19.9956 16.0445C18.1087 16.8512 16.4064 18.0057 14.9363 19.4759C14.6267 19.7855 14.6267 20.2873 14.9363 20.5969C15.091 20.7516 15.2939 20.829 15.4967 20.829Z" fill="white"/>
<path d="M35.7498 17.5042C37.4481 18.231 38.9811 19.2715 40.3065 20.5968C40.4613 20.7516 40.6641 20.829 40.8669 20.829C41.0698 20.829 41.2726 20.7516 41.4274 20.5968C41.7369 20.2873 41.7369 19.7854 41.4274 19.4759C39.9586 18.0072 38.2582 16.8535 36.3735 16.0468C35.9709 15.8746 35.5051 16.0611 35.3329 16.4636C35.1607 16.8661 35.3473 17.3319 35.7498 17.5042Z" fill="white"/>
<path d="M20.4192 19.3486C19.4856 19.8289 18.6085 20.4262 17.8122 21.1241C17.483 21.4126 17.45 21.9134 17.7385 22.2426C17.8952 22.4214 18.1144 22.5128 18.3349 22.5128C18.5203 22.5128 18.7066 22.4481 18.857 22.3163C19.5561 21.7037 20.3256 21.1794 21.1443 20.7583C21.5336 20.558 21.6868 20.0801 21.4866 19.6909C21.2863 19.3015 20.8084 19.1483 20.4192 19.3486Z" fill="white"/>
<path d="M35.2192 20.7582C36.038 21.1794 36.8076 21.7036 37.5066 22.3162C37.657 22.4481 37.8432 22.5128 38.0287 22.5128C38.2491 22.5128 38.4684 22.4214 38.6251 22.2426C38.9136 21.9134 38.8806 21.4126 38.5514 21.1241C37.7553 20.4263 36.8781 19.8289 35.9445 19.3486C35.555 19.1484 35.0774 19.3015 34.877 19.6908C34.6768 20.08 34.83 20.5579 35.2192 20.7582Z" fill="white"/>
<path d="M40.9165 35.6276H40.3352C39.3154 35.6276 38.4858 34.7979 38.4858 33.7781V33.4611H39.0142H39.8068C40.2445 33.4611 40.5994 33.1062 40.5994 32.6685C40.5994 32.2307 40.2445 31.8759 39.8068 31.8759V30.872C39.8068 25.4818 35.4215 21.0965 30.0312 21.0965H28.974V19.5113H31.0881C31.5258 19.5113 31.8807 19.1564 31.8807 18.7186C31.8807 18.2809 31.5258 17.926 31.0881 17.926H25.2756C24.8378 17.926 24.483 18.2809 24.483 18.7186C24.483 19.1564 24.8378 19.5113 25.2756 19.5113H27.3888V21.0965H26.3324C20.9421 21.0965 16.5568 25.4818 16.5568 30.872V31.8759C16.1191 31.8759 15.7642 32.2307 15.7642 32.6685C15.7642 33.1062 16.1191 33.4611 16.5568 33.4611H17.3494H17.8778V33.7781C17.8778 34.7979 17.0482 35.6276 16.0284 35.6276H15.4472C15.0094 35.6276 14.6545 35.9824 14.6545 36.4202V39.5906C14.6545 40.0284 15.0094 40.3832 15.4472 40.3832H40.9165C41.3542 40.3832 41.7091 40.0284 41.7091 39.5906V36.4202C41.7091 35.9824 41.3542 35.6276 40.9165 35.6276ZM18.142 30.872C18.142 26.3559 21.8162 22.6817 26.3324 22.6817H30.0312C34.5474 22.6817 38.2216 26.3559 38.2216 30.872V31.8759H37.6932H18.6705H18.142V30.872ZM16.2398 38.798V37.2128H30.8767C31.3144 37.2128 31.6693 36.8579 31.6693 36.4202C31.6693 35.9824 31.3144 35.6276 30.8767 35.6276H18.9213C19.264 35.0933 19.4631 34.4586 19.4631 33.7781V33.4611H36.9006V33.7781C36.9006 34.4586 37.0996 35.0933 37.4423 35.6276H34.3114C33.8736 35.6276 33.5187 35.9824 33.5187 36.4202C33.5187 36.8579 33.8736 37.2128 34.3114 37.2128H40.1239V38.798H16.2398Z" fill="white"/>
</g>
<defs>
<clipPath id="clip0_20_1730">
<rect width="27.0545" height="27.0545" fill="white" transform="translate(14.6545 14.6545)"/>
</clipPath>
</defs>
</svg>
