<svg width="24" height="24" viewBox="0 0 24 24" fill="none" xmlns="http://www.w3.org/2000/svg">
<path d="M13.4062 16.9688C11.4678 16.9688 9.89062 18.546 9.89062 20.4844C9.89062 22.4228 11.4678 24 13.4062 24C15.3447 24 16.9219 22.4228 16.9219 20.4844C16.9219 18.546 15.3447 16.9688 13.4062 16.9688ZM14.1094 21.1875H12.7031V19.7812H14.1094V21.1875Z" fill="#3E91F3"/>
<path d="M16.9219 0H11.2969C8.81447 0 6.5797 1.51598 5.53833 3.73589C6.38785 3.22031 7.42017 2.90625 8.48438 2.90625H19.7344C20.7986 2.90625 21.8309 3.22031 22.6804 3.73589C21.639 1.51598 19.4043 0 16.9219 0Z" fill="#3E91F3"/>
<path d="M19.7344 4.3125H8.48438C6.15802 4.3125 4.21875 6.20489 4.21875 8.53125C4.21875 10.8576 6.15802 12.75 8.48438 12.75H9.89062C11.3793 12.75 12.7299 11.9714 13.5051 10.6667L14.1094 9.64842L14.7136 10.6667C15.4889 11.9714 16.8395 12.75 18.3281 12.75H19.7344C22.0607 12.75 24 10.8576 24 8.53125C24 6.20489 22.0607 4.3125 19.7344 4.3125Z" fill="#3E91F3"/>
<path d="M14.1094 12.2246C13.3438 13.1094 12.3354 13.7123 11.2173 13.9852C11.8613 14.9473 12.9194 15.5624 14.1094 15.5624C15.2994 15.5624 16.3574 14.9473 17.0016 13.9852C15.8833 13.7123 14.8746 13.1093 14.1094 12.2246Z" fill="#3E91F3"/>
<path d="M8.71387 19.0781H7.78125C5.06297 19.0781 2.8125 16.8745 2.8125 14.1562V12.75H0V14.1562C0 18.4278 3.50972 21.8906 7.78125 21.8906H8.71387C8.57887 21.4421 8.48438 20.9763 8.48438 20.4844C8.48438 19.9925 8.57887 19.5267 8.71387 19.0781Z" fill="#3E91F3"/>
<path d="M2.8125 9.9375H0V11.3438H2.8125V9.9375Z" fill="#3E91F3"/>
<path d="M2.8125 0H0V8.53125H2.8125V0Z" fill="#3E91F3"/>
</svg>
