<svg width="24" height="24" viewBox="0 0 24 24" fill="none" xmlns="http://www.w3.org/2000/svg">
<circle cx="12" cy="12" r="11.5" stroke="white"/>
<path d="M16.6667 8.00486C16.2315 8.33111 15.7495 8.58064 15.2395 8.74384C14.9657 8.40937 14.6019 8.17231 14.1972 8.06471C13.7925 7.95712 13.3665 7.98418 12.9768 8.14225C12.5871 8.30031 12.2524 8.58174 12.0181 8.94849C11.7838 9.31523 11.6612 9.74959 11.6667 10.1928V10.6758C10.8679 10.6978 10.0764 10.5096 9.36266 10.1278C8.6489 9.74608 8.03507 9.1827 7.57584 8.48785C7.57584 8.48785 5.75766 12.8348 9.84857 14.7668C8.91244 15.442 7.79727 15.7805 6.66675 15.7327C10.7577 18.1477 15.7577 15.7327 15.7577 10.1783C15.7572 10.0438 15.7451 9.90958 15.7213 9.77744C16.1852 9.2913 16.5126 8.67753 16.6667 8.00486Z" fill="white"/>
</svg>
