<svg width="24" height="24" viewBox="0 0 24 24" fill="none" xmlns="http://www.w3.org/2000/svg">
<g clip-path="url(#clip0_121_8123)">
<path d="M21.1661 4.64911C22.4478 4.64911 23.4907 3.60621 23.4907 2.32453C23.4907 1.04285 22.4477 0 21.1661 0C19.8845 0 18.8416 1.0429 18.8416 2.32458C18.8416 3.60626 19.8845 4.64911 21.1661 4.64911Z" fill="#3E91F3"/>
<path d="M4.65955 21.3333C5.97939 21.6499 9.04176 22.1535 12.1972 22.6376C12.2444 22.6612 12.2897 22.6868 12.3409 22.7049C12.4791 22.7537 12.6199 22.7767 12.7586 22.7767C12.8319 22.7767 12.9038 22.7687 12.9747 22.7561C17.1045 23.3829 21.1636 23.9478 21.4677 23.9905C21.5149 23.997 21.5612 24.0001 21.6074 24.0001C22.101 24.0001 22.5317 23.6357 22.6021 23.1331C22.678 22.5827 22.2944 22.0751 21.7447 21.9987C21.6753 21.9891 18.1465 21.4981 14.301 20.9222L16.1235 15.7488L21.8085 17.7431C22.193 17.8768 22.6182 17.8175 22.9509 17.5823C23.2831 17.3465 23.4806 16.9645 23.4806 16.5574V6.60884C23.4806 6.26857 23.343 5.9429 23.0982 5.70617C22.8544 5.46944 22.5398 5.34377 22.1834 5.35286L12.8319 5.65493C12.6676 5.65997 12.5128 5.69866 12.371 5.76099V4.90053C12.371 4.62312 12.1459 4.39795 11.8685 4.39795C11.591 4.39795 11.3659 4.62312 11.3659 4.90053V6.42394L1.98824 6.72248C1.71082 6.73152 1.49317 6.96326 1.50174 7.24067C1.51031 7.51309 1.73342 7.72717 2.00385 7.72717C2.00936 7.72717 2.01441 7.72717 2.01993 7.72717L11.3649 7.42962V8.92134C11.3649 9.19875 11.59 9.42392 11.8675 9.42392C12.1449 9.42392 12.3701 9.19875 12.3701 8.92134V8.06187C12.5364 8.13477 12.7194 8.17598 12.9123 8.16641L19.0924 7.96689V14.1274L15.7707 12.9623C15.1163 12.7332 14.4001 13.0769 14.1699 13.7303L11.7719 20.5371C8.92823 20.0963 6.28598 19.656 5.12897 19.3786C2.79792 18.8193 2.4863 17.8276 2.4833 17.818C2.49334 17.8527 2.49434 17.8723 2.49434 17.8723L0.509033 18.1905C0.54572 18.4187 0.972929 20.4487 4.65955 21.3333Z" fill="#3E91F3"/>
</g>
<defs>
<clipPath id="clip0_121_8123">
<rect width="24" height="24" fill="white"/>
</clipPath>
</defs>
</svg>
