<svg width="24" height="24" viewBox="0 0 24 24" fill="none" xmlns="http://www.w3.org/2000/svg">
<g clip-path="url(#clip0_121_8045)">
<path d="M18.9683 5.66325C19.8633 5.29225 20.2882 4.26592 19.9172 3.37087C19.5462 2.47582 18.5198 2.051 17.6248 2.422C16.7297 2.793 16.3049 3.81933 16.6759 4.71437C17.0469 5.60942 18.0732 6.03425 18.9683 5.66325Z" fill="#A16969"/>
<path d="M21.1914 2.7903C21.3594 3.17594 21.4532 3.60109 21.4532 4.04791C21.4532 4.09089 21.4516 4.13345 21.4499 4.17602C22.3015 3.95697 23.1519 3.70886 24.0001 3.43136V1.94922C23.066 2.26647 22.1294 2.54659 21.1914 2.7903Z" fill="#A16969"/>
<path d="M15.3669 5.23975C15.2164 4.87169 15.1328 4.4695 15.1328 4.04791C15.1328 3.98069 15.1356 3.91412 15.1398 3.84789C14.0906 3.94197 13.0433 3.98964 12 3.98964C8.02134 3.98964 3.9862 3.3033 0 1.94922V3.43136C3.98522 4.73519 8.01783 5.39589 12 5.39589C13.119 5.39589 14.2421 5.34367 15.3669 5.23975Z" fill="#A16969"/>
<path d="M5.93424 10.8934C6.97607 10.8934 7.82063 10.0488 7.82063 9.007C7.82063 7.96517 6.97607 7.12061 5.93424 7.12061C4.89242 7.12061 4.04785 7.96517 4.04785 9.007C4.04785 10.0488 4.89242 10.8934 5.93424 10.8934Z" fill="#A16969"/>
<path d="M5.93102 12.2993C5.19734 12.2993 4.60254 12.8941 4.60254 13.6278V17.8309H9.25104C10.0277 17.8309 10.6573 17.2013 10.6573 16.4246C10.6573 15.648 10.0277 15.0184 9.25104 15.0184H7.25946V13.6278C7.25946 12.8941 6.66471 12.2993 5.93102 12.2993Z" fill="#A16969"/>
<path d="M10.8831 14.1366C11.2803 14.4207 11.6006 14.8052 11.8068 15.2531L17.7769 7.1652C17.2842 7.08387 16.8298 6.88826 16.4415 6.60645L10.8831 14.1366Z" fill="#A16969"/>
<path d="M4.60254 20.6445C4.60254 21.4212 5.23212 22.0508 6.00879 22.0508H6.47754V19.2383H4.60254V20.6445Z" fill="#A16969"/>
<path d="M14.1296 19.2383H7.88379V22.0508H14.1296C14.9062 22.0508 15.5358 21.4212 15.5358 20.6445C15.5358 19.8679 14.9062 19.2383 14.1296 19.2383Z" fill="#A16969"/>
</g>
<defs>
<clipPath id="clip0_121_8045">
<rect width="24" height="24" fill="white"/>
</clipPath>
</defs>
</svg>
