<svg width="74" height="74" viewBox="0 0 74 74" fill="none" xmlns="http://www.w3.org/2000/svg">
<path d="M37 74C57.4345 74 74 57.4345 74 37C74 16.5655 57.4345 0 37 0C16.5655 0 0 16.5655 0 37C0 57.4345 16.5655 74 37 74Z" fill="url(#paint0_linear_121_7897)"/>
<path d="M43.4186 22.8785H35.7161V33.1486H43.4186V22.8785ZM43.4186 35.7162H35.7161V45.9863H43.4186V35.7162ZM58.5531 23.3725C58.3098 23.0603 57.9362 22.8786 57.5401 22.8786H45.9862V33.1487H56.618L58.7862 24.4732C58.8815 24.0895 58.7962 23.6834 58.5531 23.3725ZM54.1401 43.0627L55.9762 35.7162H45.9862V45.9863H50.4017C52.1794 45.9863 53.7163 44.7815 54.1401 43.0627ZM33.1485 33.1486V22.8785H23.1392L22.6628 20.7322C22.2441 18.9721 20.697 17.7434 18.8992 17.7434H16.4595C15.7499 17.7434 15.1758 18.3176 15.1758 19.0271C15.1758 19.7368 15.75 20.3109 16.4595 20.3109H18.8992C19.511 20.3109 20.02 20.7183 20.1604 21.3075L22.8131 33.1486H33.1485ZM54.9726 48.5537H24.1623C23.4553 48.5537 22.8786 47.9783 22.8786 47.27C22.8786 46.5616 23.4553 45.9863 24.1623 45.9863H33.1487V35.7162H23.3911L25.124 43.4187H24.1624C22.0387 43.4187 20.3111 45.1463 20.3111 47.27C20.3111 49.3937 22.0387 51.1213 24.1624 51.1213H25.6826C25.5388 51.5248 25.4462 51.9528 25.4462 52.405C25.4462 54.5288 27.1738 56.2564 29.2975 56.2564C31.4212 56.2564 33.1488 54.5288 33.1488 52.405C33.1488 51.9528 33.0562 51.5248 32.9124 51.1213H46.223C46.0792 51.5248 45.9865 51.9528 45.9865 52.405C45.9865 54.5288 47.7141 56.2564 49.8379 56.2564C51.9616 56.2564 53.6892 54.5288 53.6892 52.405C53.6892 51.9528 53.5965 51.5248 53.4527 51.1213H54.9729C55.6824 51.1213 56.2566 50.5471 56.2566 49.8376C56.2563 49.1279 55.6821 48.5537 54.9726 48.5537Z" fill="url(#paint1_linear_121_7897)"/>
<defs>
<linearGradient id="paint0_linear_121_7897" x1="37" y1="74" x2="37" y2="0" gradientUnits="userSpaceOnUse">
<stop stop-color="#FFC2CC"/>
<stop offset="1" stop-color="#FFF2F4"/>
</linearGradient>
<linearGradient id="paint1_linear_121_7897" x1="37.0001" y1="56.2564" x2="37.0001" y2="17.7434" gradientUnits="userSpaceOnUse">
<stop stop-color="#FFA68D"/>
<stop offset="1" stop-color="#FD3A84"/>
</linearGradient>
</defs>
</svg>
