<svg xmlns="http://www.w3.org/2000/svg" viewBox="0 0 151.4403 96.6675"><defs><style>.cls-1{fill:#ffba00;}.cls-1,.cls-2,.cls-4,.cls-5,.cls-6,.cls-7,.cls-8{fill-rule:evenodd;}.cls-3{fill:#d14d09;}.cls-4{fill:#a93e07;}.cls-5{fill:#893205;}.cls-6,.cls-9{fill:#fff;}.cls-7{fill:#d0d1d2;}.cls-8{fill:#ababab;}</style></defs><g id="Layer_2" data-name="Layer 2"><g id="Layer_1-2" data-name="Layer 1"><path class="cls-1" d="M9.3438,59.7764,1.8659,56.4916A3.0756,3.0756,0,0,1,.0118,53.3721l.5666-6.6937Q2.2244,27.2368,3.857,7.7939L4.2643,2.863A3.1134,3.1134,0,0,1,7.3737,0H144.9685a3.1157,3.1157,0,0,1,3.113,2.9154l3.3517,51.0619a3.0735,3.0735,0,0,1-1.8765,3.0688l-7.4591,3.22V85.0212a3.0139,3.0139,0,0,1-.92,2.2119l-8.5694,8.5241a3.0291,3.0291,0,0,1-2.5934.8829A441.9434,441.9434,0,0,0,65.5409,93.416a407.7956,407.7956,0,0,0-44.1057,3.1927,3.029,3.029,0,0,1-2.6031-.8824l-8.5694-8.5289a3.014,3.014,0,0,1-.9189-2.2113v-25.21Z"/><path class="cls-2" d="M21.033,93.515l-8.57-8.5289V57.7392l-9.343-4.104.5667-6.6938Q5.3336,27.4967,6.9663,8.0507L7.3737,3.12H144.9685L148.32,54.1817l-9.3424,4.0334V85.0212l-8.57,8.5241c-33.5043-4.2562-73.8017-4.6559-109.3753-.03Z"/><path class="cls-3" d="M28.6658,76.4458v3.2449l-10.9227.0107V57.7769c3.6292-.2208,7.27-.48,10.9227-.7393v3.2559c-2.609.16-5.2186.3308-7.8156.4742v8.6831L18.617,70.9721l8.5065-2.7048v3.2063L20.85,73.4162v3.1507l7.8156-.1211Zm37.6158-4.6743v3.4271q-5.4792.1152-10.9344.2982V55.2217q5.4612-.2563,10.9344-.4186v3.41c-2.6091.0721-5.2178.1435-7.8152.2654v6.0562l-2.0939,1.4125c2.0874-.7234,6.2682-2.1328,8.3667-2.8284v3.4106c-2.0985.6846-4.1859,1.374-6.2728,2.0914v3.3719c2.5974-.0939,5.2061-.1546,7.8152-.2209Zm2.2926-6.0758,7.1581-2.3343v-5.292l-4.72.05v6.0239l-2.4384,1.5528Zm-.6809-10.9428c3.6525-.055,7.3052-.0995,10.9576-.0831V66.0155l-2.7827.7676,2.7827,8.2993-3.3162-.0105-2.4931-7.3727-2.029.6124v6.81c-1.0437.0054-2.0877.0272-3.1193.0439V54.7529ZM80.4282,75.0937V54.6812c1.0317.0113,2.0752.0218,3.1192.0328V75.1158c-1.044-.0167-2.0875-.0167-3.1192-.0221Zm15.6308-3.09v3.3993q-5.4792-.1739-10.9344-.2594v-20.39q5.46.14,10.9344.3864v3.3936l-7.8157-.2872V64.44L85.929,65.6484l8.5876-2.3474v3.3939l-6.2733,1.71v3.3772c2.5976.05,5.2069.1377,7.8157.2208Zm1.6-16.7978c1.2756.0825,2.5625.1593,3.8494.2372q2.0007,3.17,4.0009,6.3409V55.68c1.0321.0715,2.0755.1491,3.1192.22V75.8665c-1.0437-.0443-2.0871-.0828-3.1192-.1327V67.6276q-2.3653-3.7095-4.7195-7.4226V75.5629q-1.5656-.0663-3.1308-.1214V55.2056Zm20.3967,14.48,3.1193.1655V76.352h0q-5.4975-.2074-10.97-.4249V56.0112q5.4783.397,10.97.8441v4.8612c-1.0435-.076-2.0872-.1539-3.1193-.22V59.885c-1.5769-.1049-3.1544-.2208-4.7313-.3362V72.7314c1.5769.0725,3.1544.155,4.7313.2157V69.6858Zm15.6424,6.8757v3.14l-10.9576-.083V56.971c3.6527.2707,7.3052.5629,10.9576.8059v3.1566c-2.6206-.1485-5.23-.32-7.8267-.4912v8.9671l-2.126,1.2325,8.3871-2.1041v3.1348l-6.2611,1.5948v3.1949l7.8267.0992Zm-89.47-10.1426,6.4222-2.3236V58.864c-1.577.0884-3.1542.1715-4.7195.2644v6.1793l-1.7027,1.1112ZM42.8121,55.9945c3.653-.254,7.3058-.4749,10.9582-.7011V66.5459l-7.839,2.61v6.6931l-3.1192.127V55.9945Zm-4.534,11.4726c.9745.7614,1.9709,1.5452,2.9574,2.312v6.258c-1.0437.0442-2.0877.0884-3.1192.127V71.5289c-.7773-.6236-1.577-1.2416-2.3542-1.86-.8.684-1.5883,1.39-2.3771,2.0752V76.33c-1.0438.0334-2.0759.0666-3.1193.1051V70.3035c.9859-.8442,1.9828-1.7051,2.9687-2.5714-.9859-.7449-1.9828-1.49-2.9687-2.2351V56.9214c1.0434-.0881,2.0755-.1653,3.1193-.237v7.0194L35.196,65.1l-.3829,1.2362c.7772-.7067,2.5259-2.208,3.3032-2.9251v-7.08c1.0315-.0878,2.0755-.16,3.1192-.231v8.7628c-.9865.8716-1.9829,1.7382-2.9574,2.6044Z"/><path class="cls-4" d="M133.105,77.1472l-7.8268-.099V72.8065l6.2614-1.5948V69.2935l-6.2614,1.5347-1.9449.5011V79.03l9.7717.0734V77.1472Zm-7.8268-8.1746V67.5641q-.9687-.123-1.9449-.2379v2.3163l1.9449-.67ZM18.3361,71.6836v7.424l9.7364-.01v-2.05l-7.8154.1208v-4.19L26.53,71.0362V69.6393q-1.51.1821-2.8806.3552l-5.3135,1.6891ZM38.71,75.5482q.9665-.0384,1.9333-.0794v-5.4q-1.117-.8694-2.2306-1.7444-2.9475.2963-5.633.5933-.9572.8325-1.9205,1.6585V75.82q.966-.034,1.933-.0647V71.4733l.2046-.1774c.7954-.69,1.58-1.3933,2.38-2.0779l.3719-.3177.3829.3045c.7835.623,1.5755,1.2353,2.3562,1.8611l.2222.1787v4.3036Zm4.6962-7.7049v7.516l1.9324-.0791v-6.552l4.28-1.4252c-2.1328.1743-4.2081.3551-6.2127.54ZM65.6883,72.38c-2.4.06-4.8011.1186-7.2006.2056l-.6146.0218v-4.41l.4-.1375q2.5542-.8779,5.1213-1.715-3.8051.2173-7.4545.4766v8.062q4.8737-.159,9.7481-.2653V72.38Zm3.7635-6.3467-.9657.3149v8.2139c.6443-.011,1.2889-.0223,1.9332-.0288V67.8705l3.0007-.9051L75.9607,74.48l2.0651.0066-2.72-8.1082,2.3437-.6464c-2.7652.078-5.5029.1792-8.1981.3014Zm11.57,8.47c.6443.0028,1.289.0048,1.9333.0116V65.6141q-.9687.0158-1.9333.0363v8.8529Zm4.6962.0561q4.8744.0792,9.7481.2313V72.578c-2.4109-.0771-4.8218-.1562-7.2332-.2021l-.582-.0114V67.9524l6.2728-1.71v-.6579q-2.7165-.0306-5.4263-.023l-2.7794.76v8.2386Zm12.5348-8.9028V74.87q.972.0362,1.9443.0748V65.71c-.648-.019-1.2958-.0386-1.9443-.0536Zm6.8536.2356.9034,1.4159.0933.146v7.7133q.9655.0429,1.9323.0806V66.037q-1.4608-.08-2.929-.1448Zm13.5431,4.4186v3.2525l-.616-.0235c-1.5789-.06-3.1569-.144-4.7356-.2158l-.5663-.0255V66.3338q-.9648-.07-1.9332-.1329v9.1559q4.8922.1917,9.784.3793V70.4132l-1.9329-.1024Z"/><polygon class="cls-5" points="18.743 76.327 18.99 78.19 19.703 78.47 18.743 78.47 18.743 76.327 18.743 76.327"/><polygon class="cls-5" points="31.142 73.286 31.388 75.149 32.101 75.429 31.142 75.429 31.142 73.286 31.142 73.286"/><polygon class="cls-5" points="38.882 73.206 39.129 75.07 39.842 75.349 38.882 75.349 38.882 73.206 38.882 73.206"/><polygon class="cls-5" points="43.606 73.056 43.853 74.92 44.576 75.12 43.606 75.199 43.606 73.056 43.606 73.056"/><polygon class="cls-5" points="56.2 72.448 56.446 74.311 57.17 74.511 56.2 74.591 56.2 72.448 56.2 72.448"/><polygon class="cls-5" points="68.669 72.208 68.916 74.071 69.624 74.381 68.669 74.35 68.669 72.208 68.669 72.208"/><polygon class="cls-5" points="75.485 72.377 76.341 73.991 77.049 74.301 76.094 74.271 75.485 72.377 75.485 72.377"/><polygon class="cls-5" points="81.266 72.127 81.513 74.011 82.221 74.325 81.266 74.294 81.266 72.127 81.266 72.127"/><polygon class="cls-5" points="85.954 72.141 86.201 74.025 86.909 74.339 85.954 74.308 85.954 72.141 85.954 72.141"/><polygon class="cls-5" points="98.496 72.421 98.743 74.305 99.451 74.618 98.496 74.587 98.496 72.421 98.496 72.421"/><polygon class="cls-5" points="106.306 72.721 106.553 74.604 107.261 74.918 106.306 74.887 106.306 72.721 106.306 72.721"/><polygon class="cls-5" points="111.04 72.9 111.287 74.784 111.995 75.098 111.04 75.067 111.04 72.9 111.04 72.9"/><polygon class="cls-5" points="123.628 76.605 123.874 78.489 124.583 78.803 123.628 78.772 123.628 76.605 123.628 76.605"/><polygon class="cls-6" points="18.271 60.352 18.518 58.489 20.095 57.985 18.271 58.209 18.271 60.352 18.271 60.352"/><polygon class="cls-6" points="30.653 59.354 30.9 57.491 32.477 56.986 30.653 57.211 30.653 59.354 30.653 59.354"/><polygon class="cls-6" points="38.523 58.871 38.77 57.008 40.347 56.503 38.523 56.728 38.523 58.871 38.523 58.871"/><polygon class="cls-6" points="43.397 58.631 43.644 56.768 45.22 56.263 43.397 56.488 43.397 58.631 43.397 58.631"/><polygon class="cls-6" points="55.861 57.753 56.107 55.889 57.684 55.385 55.861 55.61 55.861 57.753 55.861 57.753"/><polygon class="cls-6" points="68.364 57.267 68.611 55.403 70.846 55.119 68.364 55.124 68.364 57.267 68.364 57.267"/><polygon class="cls-6" points="80.772 57.259 81.019 55.396 82.345 55.113 80.772 55.116 80.772 57.259 80.772 57.259"/><polygon class="cls-6" points="85.48 57.26 85.727 55.397 87.054 55.114 85.48 55.117 85.48 57.26 85.48 57.26"/><polygon class="cls-6" points="98.047 57.862 98.294 55.999 99.621 55.716 98.047 55.719 98.047 57.862 98.047 57.862"/><polygon class="cls-6" points="105.825 58.182 106.071 56.318 107.398 56.035 105.825 56.039 105.825 58.182 105.825 58.182"/><polygon class="cls-6" points="110.584 58.571 110.831 56.708 112.157 56.425 110.584 56.428 110.584 58.571 110.584 58.571"/><polygon class="cls-6" points="123.374 59.678 123.62 57.815 124.947 57.532 123.374 57.535 123.374 59.678 123.374 59.678"/><path class="cls-3" d="M127.3574,21.5555q1.2909-2.8173,2.5387-5.6543,1.6532-3.7779,3.2372-7.5852l.1185-.286h6.9018l-.2563.6361c-1.1,2.7314-2.19,5.4678-3.335,8.18L130.38,30.5005l4.0436-2.9931q1.6825,4.0546,3.3554,8.1139c1.601,3.8684,3.229,7.7255,4.8223,11.5971l.3132.7614-.8129-.1276q-2.985-.4672-5.9713-.9255l-.2565-.04-.1-.2395c-1.0883-2.607-2.1549-5.2231-3.2409-7.831q-1.3933-3.3471-2.8012-6.6878c-.5423,1.1344-1.0905,2.2658-1.6347,3.3991.0771,1.616.1661,3.2317.2557,4.8472.0915,1.6543.1828,3.3086.2616,4.9635l.0264.5538-.55-.0725c-1.845-.2438-3.6938-.4573-5.5437-.66l-.3923-.0431-.02-.394q-.1372-2.7373-.2613-5.4751c-.0851-1.8246-.1786-3.6494-.2617-5.474-.1913-4.2075-.3722-8.4155-.5748-12.6224-.2027-4.2114-.392-8.4234-.601-12.6346l-.0241-.4861h6.2008l.0272.434c.1568,2.4967.2875,4.9952.4184,7.4934.0978,1.8663.203,3.7318.2988,5.5981Z"/><path class="cls-4" d="M121.82,28.0763q.1272,2.8377.2548,5.6758c.0831,1.8247.1766,3.6487.2617,5.4734s.1695,3.6491.2611,5.4734h0c1.8532.2039,3.7054.4173,5.5539.6614h0c-.0788-1.6538-.17-3.3069-.2614-4.96-.09-1.6166-.1788-3.2335-.2559-4.8509l-.0054-.1168.0507-.1054c.5437-1.1333,1.0919-2.2644,1.6342-3.3982l.0468-.0978-.1378.102.7917-1.7484q-4.0708-1.1667-8.1944-2.1084Zm9.32,2.4378q2.3224.6841,4.6239,1.4434.7933,1.9206,1.5873,3.8407c1.6008,3.8681,3.229,7.7249,4.8218,11.5965h0q-2.9849-.4673-5.9718-.9258c-1.0873-2.6073-2.1549-5.2228-3.2408-7.831q-1.3933-3.3467-2.8018-6.6883l-.2265-.5415,1.2079-.894Z"/><path class="cls-6" d="M103.5209,28.713c.0345,1.5267.0595,3.0538.0958,4.5808.0391,1.6534.1046,3.3063.1437,4.96l.0119.502-.5015-.0289c-1.8229-.1046-3.6462-.21-5.47-.2954l-.432-.02-.0094-.4325c-.1046-4.9119-.1962-9.8241-.3-14.7359s-.1961-9.8269-.3007-14.74l-.01-.4731h6.1881l.0142.4484c.0782,2.4866.1567,4.9731.2222,7.46l.14,5.3306-4.8047,2.848c2.3839-.5789,9.6137-2.4532,11.9968-3.0342q-.1106-3.0478-.2214-6.0959c-.0785-2.1584-.157-4.3167-.248-6.4744l-.02-.4827h6.1918l.02.4419c.235,5.1335.45,10.268.6794,15.402.2288,5.1305.4309,10.2617.6795,15.3913l.0258.5329-.5312-.0493c-1.83-.17-3.6618-.3141-5.4941-.4544l-.4141-.0317-.0134-.4153c-.0651-2.0339-.1437-4.0672-.2219-6.1007-.0715-1.853-.1318-3.7063-.2013-5.5594-2.4055.5049-4.8112,1.0086-7.2144,1.5257ZM24.7254,14.2912q-3.57.0672-7.1388.1377-.4949,6.5859-1.014,13.17c-.3384,4.3424-.6885,8.6836-1.0162,13.0266,2.4758-.29,4.9547-.5533,7.4336-.8155.1-1.628.22-3.2548.3161-4.883l.0238-.3994.3985-.0346q2.7519-.2385,5.5063-.4479l.5332-.0408-.036.5338c-.1173,1.7354-.2154,3.4716-.3265,5.2075-.1111,1.734-.2087,3.4687-.3135,5.2033l-.0236.388-.3863.0443Q18.8791,46.5,9.1048,47.8537l-.5738.079.0491-.5768q1.6467-19.45,3.28-38.901l.0351-.4249h19.461l-.03.4909q-.2346,3.9-.47,7.8l-.0257.4249-.4256.01q-2.6715.0638-5.3427.1361l-.5057.0144.03-.5051c.0425-.7036.0932-1.4066.1386-2.11Zm26.342,24.3113q-9.6586.5669-19.3033,1.349l-.5307.0434.0309-.5318q.4508-7.7475.9148-15.4944.4511-7.7514.9017-15.5025L33.106,8.03H52.565l-.0164.479q-.2547,7.4151-.5227,14.83-.2646,7.4081-.5228,14.8169l-.0144.4218-.4213.0247Zm-4.95-24.6192q-3.57.0373-7.14.0868-.2271,4.8629-.4895,9.7248c-.1738,3.2107-.3237,6.423-.506,9.6332,2.4483-.1539,4.8969-.3013,7.3466-.428q.1895-4.7694.4016-9.538c.1367-3.1592.2733-6.3187.3875-9.4788ZM67.3051,26.38c-2.4377.654-4.87,1.328-7.3031,2.001q-.0561,2.27-.1225,4.54c-.0456,1.6251-.0782,3.2508-.1174,4.8761l-.01.436-.4356.0156c-1.8286.0663-3.6567.1474-5.4845.23l-.4994.0224.0158-.5q.2352-7.3781.47-14.7555c.157-4.9227.3268-9.8444.4836-14.7671L54.316,8.03H73.7874l-.0036.4669c-.04,4.8356-.0916,9.6709-.1308,14.5065-.039,4.8328-.0915,9.6656-.1309,14.4987l-.0037.4524-.4524.0068q-2.7378.0408-5.4762.0739l-.4751.006.0062-.475c.0261-1.9673.0785-3.9343.1043-5.9015.0235-1.7617.0471-3.5235.08-5.2849ZM55.4909,23.8c2.412-.67,9.4805-2.59,11.8951-3.2516.0266-2.2389.0807-4.4774.0977-6.7165q-3.5594.0111-7.1183.0312c-.0366,1.4769-.0771,2.9537-.1066,4.4309l-.0525,2.8108L55.4909,23.8Zm33.3817-9.9556q-3.5644-.0158-7.1289-.0247.0166,4.5918.0111,9.1837v9.186c2.4355.03,4.87.0737,7.3057.1151-.0043-1.4536-.0267-2.9069-.0386-4.3606l-.0036-.477.4768.01q2.7063.0587,5.4119.1324l.44.0113.0105.4405c.0394,1.633.0329,3.2666.0655,4.9q.0489,2.444.1043,4.888l.0119.49-.49-.0164q-9.6209-.3261-19.2478-.3773l-.4637-.002L75.34,37.48c.0264-4.83.0655-9.66.0916-14.4909.0261-4.8328.0655-9.6656.0916-14.4987l.0025-.4606H94.9931l.0119.4507c.0655,2.4458.1049,4.892.144,7.338l.0077.4757-.4757-.0051q-2.6647-.0294-5.33-.0507l-.46-.0029v-.46c0-.6438-.0085-1.2878-.0187-1.9313Z"/><path class="cls-7" d="M111.6214,38.8326h0c1.8349.1407,3.6692.285,5.5015.455h0c-.199-4.1074-.3682-8.2159-.5454-12.3245-5.7906-1.13-11.62-1.9556-17.4242-2.5268l-.5361.131-1.0621.2577q.1365,6.5723.267,13.144c1.8258.085,3.65.191,5.4751.2956h0c-.0394-1.6534-.1046-3.3063-.1437-4.96-.0363-1.527-.0613-3.054-.0958-4.581l-.0085-.383.3741-.08q3.6057-.7756,7.2165-1.5262l.5374-.1128.02.5488c.0695,1.853.13,3.706.2013,5.559.0785,2.0341.1567,4.0686.2222,6.1035ZM10.4045,31.3239q2.5732-.5948,5.5074-1.2191-.4128,5.2426-.8172,10.4857l-.0423.56.5579-.0652c2.4741-.29,4.9513-.5531,7.4285-.815l.39-.0411.0241-.3909c.1-1.6285.2193-3.2556.316-4.8844h0q2.75-.2378,5.5015-.4473c-.1176,1.7356-.2155,3.4727-.3268,5.209-.1112,1.7345-.209,3.47-.3136,5.2049h0q-9.8084,1.12-19.5879,2.4741.6795-8.0354,1.3629-16.0708ZM32.462,27.0518q2.6511-.4175,5.4331-.8084c-.1227,2.3862-.24,4.773-.3758,7.1586l-.03.5211.521-.0327c2.4466-.1539,4.8937-.3013,7.3417-.428l.4218-.0218.017-.4221q.1553-3.908.3269-7.8154,2.6562-.3,5.398-.56-.2411,6.7482-.4754,13.4968-9.6642.5678-19.3138,1.35h0q.3609-6.2193.7353-12.4382Zm21.7828-2.6537c.32-.0272.6387-.0558.9592-.0831l.0171.0406.2159-.06c5.715-.4643,11.6618-.7739,17.7495-.8706q-.0583,7.0366-.1273,14.0732v0q-2.7373.0408-5.4754.0737h0c.0261-1.9672.0785-3.9339.1046-5.9012q.0348-2.6412.08-5.2826l.0117-.6154-.5947.16c-2.439.6542-4.8725,1.3286-7.3066,2.0018l-.3308.0915-.0085.3433q-.0561,2.27-.1225,4.5389c-.0456,1.6259-.0782,3.2519-.1176,4.8781h0c-1.83.066-3.659.1474-5.4882.23h0l.434-13.6176Zm21.6479-1q2.6835-.0135,5.3992.0315v9.2177l.4572.0057c2.4347.03,4.8691.0734,7.3035.1148l.4725.0082-.0014-.4725c-.0043-1.4545-.027-2.9087-.0386-4.3631h0q2.7051.0586,5.41.1324v0c.0394,1.6322.0325,3.2652.0654,4.8975q.0489,2.4451.1043,4.89h0q-9.6273-.3245-19.2614-.3773c.0255-4.695.0632-9.39.0893-14.0851Z"/><path class="cls-6" d="M121.0679,8.7148l.4374,5.5936.2347-5.0156s4.3262-.5006,4.1873-.4689-4.8594-.1091-4.8594-.1091Z"/><path class="cls-6" d="M133.6614,8.4561l-1.75,5.0309,2.4222-4.453s4.5683-.6335,4.4294-.6018-5.1015.0239-5.1015.0239Z"/><polygon class="cls-8" points="10.589 39.322 10.784 45.588 18.593 45.374 9.98 46.52 10.589 39.322 10.589 39.322"/><polygon class="cls-8" points="32.704 31.627 33.258 37.892 41.035 38.242 32.453 38.824 32.704 31.627 32.704 31.627"/><polygon class="cls-8" points="54.555 30.141 54.812 36.743 58.417 37.35 54.297 37.503 54.555 30.141 54.555 30.141"/><polygon class="cls-8" points="68.148 29.813 68.226 36.672 71.835 37.197 67.89 37.174 68.148 29.813 68.148 29.813"/><polygon class="cls-8" points="76.491 29.578 76.568 36.437 80.178 36.962 76.233 36.939 76.491 29.578 76.491 29.578"/><polygon class="cls-8" points="97.941 30.215 98.487 37.137 102.143 37.975 98.151 37.639 97.941 30.215 97.941 30.215"/><polygon class="cls-8" points="111.732 31.005 112.278 37.927 115.935 38.764 111.943 38.429 111.732 31.005 111.732 31.005"/><polygon class="cls-5" points="122.659 37.007 123.205 43.929 126.862 44.766 122.87 44.431 122.659 37.007 122.659 37.007"/><polygon class="cls-5" points="133.971 39.991 136.768 45.616 140.284 46.821 136.433 46.118 133.971 39.991 133.971 39.991"/><path class="cls-9" d="M85.5058,49.2675v1.9767c-2.1268-.09-4.2534-.1449-6.3737-.1965V41.0451c2.12.0644,4.2469.1318,6.3737.241v1.9856c-1.519-.08-3.0384-.1349-4.55-.18V45.27l-.9751.7192c1.2149-.3373,3.4055-.9567,4.621-1.2745v1.9826c-1.2155.3112-2.431.6489-3.6459.98V49.104c1.512.0448,3.0314.0963,4.55.1635Z"/><path class="cls-9" d="M71.8335,41.0451c.601-.0124,1.2087-.019,1.8162-.0258v4.0782l-1.018.8087c.9182-.3016,2.8545-.87,3.7727-1.1528V41.0128c.6012.01,1.2087.0164,1.8164.023V51.0381c-.6077-.0032-1.2152-.0094-1.8164-.0159V46.781c-.9182.2662-1.8366.5457-2.7547.8286v3.4191c-.6075.0062-1.2152.0128-1.8162.0256V41.0451Z"/><path class="cls-9" d="M70.9153,41.0547V43.05c-.763.0192-1.5193.0479-2.2753.07v8.007c-.6078.02-1.2152.0386-1.8162.0519V43.1884c-.77.0354-1.5324.0774-2.2955.1187V41.3215c2.1269-.1157,4.2537-.1931,6.387-.2668Z"/><path class="cls-7" d="M79.4774,50.711c1.8949.0462,3.79.0966,5.6832.1729V49.5984c-1.4049-.06-2.81-.1072-4.2154-.1494l-.3354-.01V47.4137l.2549-.0695,1.241-.3392c-.8765-.0554-1.7544-.0956-2.6283-.1233V50.711ZM67.1691,47.1827v3.6436q.5629-.0144,1.1256-.0329V47.105q-.5808.0375-1.1256.0777Zm5.01-.2738v3.7933q.5627-.01,1.1254-.0153V47.3544l.2435-.0748q.7186-.2211,1.4377-.4388c-.96.0116-1.8992.0354-2.8066.0681Zm4.5709-.076V50.68q.5625.006,1.1256.0105V46.8439q-.566-.008-1.1256-.011Z"/><polygon class="cls-8" points="67.296 49.431 67.44 50.516 67.855 50.679 67.296 50.679 67.296 49.431 67.296 49.431"/><polygon class="cls-8" points="72.347 49.303 72.491 50.388 72.906 50.551 72.347 50.551 72.347 49.303 72.347 49.303"/><polygon class="cls-8" points="76.901 49.297 77.044 50.382 77.459 50.545 76.901 50.545 76.901 49.297 76.901 49.297"/><polygon class="cls-8" points="79.582 49.338 79.725 50.423 80.14 50.586 79.582 50.586 79.582 49.338 79.582 49.338"/><path class="cls-6" d="M59.4413,45.0643v2.8783a182.252,182.252,0,0,0-23.3725,1.7643V46.8054a183.5744,183.5744,0,0,1,23.3725-1.7411Zm30.6708,0v2.8783a182.2549,182.2549,0,0,1,23.3726,1.7643V46.8054a183.576,183.576,0,0,0-23.3726-1.7411Z"/><path class="cls-7" d="M36.5487,48.0262v1.1362a184.5561,184.5561,0,0,1,22.4127-1.6988V46.3467a183.3642,183.3642,0,0,0-22.4127,1.68Zm76.456,0a183.3611,183.3611,0,0,0-22.4126-1.68v1.1169a184.5529,184.5529,0,0,1,22.4126,1.6988V48.0262Z"/><polygon class="cls-8" points="36.688 48.359 36.7 49.005 37.823 48.854 36.868 48.785 36.688 48.359 36.688 48.359"/><polygon class="cls-8" points="112.838 48.359 112.826 49.005 111.703 48.854 112.659 48.785 112.838 48.359 112.838 48.359"/></g></g></svg>