<svg width="320" height="120" viewBox="0 0 320 120" fill="none" xmlns="http://www.w3.org/2000/svg">
<rect width="320" height="120" fill="#FFC37B"/>
<g clip-path="url(#clip0_237_3516)">
<path d="M51.0795 89.3681L51.0449 104.56C51.0421 105.807 52.0536 106.821 53.3043 106.823L92.4712 106.912C93.7219 106.915 94.738 105.906 94.7409 104.659L94.7754 89.467C94.7782 88.2196 93.7667 87.206 92.516 87.2032L53.3491 87.1146C52.0985 87.1118 51.0823 88.1207 51.0795 89.3681Z" stroke="black" stroke-miterlimit="10"/>
<path d="M51.0696 93.1348L51.0515 100.69C50.7963 100.689 50.5438 100.639 50.3083 100.541C50.0728 100.443 49.8589 100.3 49.6789 100.119C49.4989 99.9388 49.3563 99.7248 49.2592 99.4895C49.1621 99.2541 49.1124 99.002 49.113 98.7475L49.113 95.0682C49.1136 94.8137 49.1645 94.5618 49.2627 94.3269C49.3609 94.092 49.5045 93.8787 49.6853 93.6992C49.8662 93.5196 50.0807 93.3774 50.3166 93.2805C50.5526 93.1837 50.8054 93.1342 51.0605 93.1348L51.0696 93.1348Z" stroke="black" stroke-miterlimit="10"/>
<path d="M58.7373 88.5741L58.6988 105.288L54.8491 105.288C54.2269 105.286 53.6308 105.039 53.1914 104.599C52.7521 104.16 52.5054 103.564 52.5054 102.944L52.5325 90.9186C52.5331 90.611 52.5945 90.3065 52.713 90.0226C52.8316 89.7386 53.0051 89.4808 53.2235 89.2637C53.442 89.0466 53.7012 88.8746 53.9864 88.7574C54.2715 88.6403 54.577 88.5803 54.8854 88.5809L58.7373 88.5741ZM58.529 105.114L58.5675 88.7412L54.8786 88.7412C54.301 88.7406 53.7468 88.9686 53.3375 89.3751C52.9282 89.7816 52.6974 90.3334 52.6956 90.9095L52.6684 102.935C52.6684 103.51 52.8972 104.062 53.3047 104.47C53.7122 104.878 54.2652 105.108 54.8424 105.11L58.529 105.114Z" stroke="black" stroke-miterlimit="10"/>
<path d="M65.6962 88.5902L65.6577 105.304L59.4507 105.291L59.4892 88.5767L65.6962 88.5902ZM65.4879 105.13L65.5264 88.7574L59.659 88.7438L59.6205 105.117L65.4879 105.13Z" stroke="black" stroke-miterlimit="10"/>
<path d="M72.655 88.6039L72.6165 105.318L66.4094 105.304L66.4479 88.5903L72.655 88.6039ZM72.4466 105.146L72.4851 88.7733L66.6155 88.7597L66.5793 105.133L72.4466 105.146Z" stroke="black" stroke-miterlimit="10"/>
<path d="M79.6139 88.6195L79.5754 105.333L73.3684 105.32L73.4046 88.606L79.6139 88.6195ZM79.4056 105.162L79.4418 88.7889L73.5745 88.7754L73.5382 105.148L79.4056 105.162Z" stroke="black" stroke-miterlimit="10"/>
<path d="M86.5705 88.6351L86.5342 105.349L80.325 105.336L80.3634 88.6216L86.5705 88.6351ZM86.3644 105.177L86.4006 88.8045L80.5333 88.791L80.497 105.164L86.3644 105.177Z" stroke="black" stroke-miterlimit="10"/>
<path d="M93.5249 90.9888L93.4977 103.014C93.4959 103.635 93.2469 104.231 92.8053 104.669C92.3637 105.107 91.7657 105.353 91.1426 105.352L87.293 105.352L87.3315 88.6376L91.1811 88.6376C91.803 88.6394 92.3988 88.8868 92.838 89.3258C93.2773 89.7648 93.5243 90.3596 93.5249 90.9798L93.5249 90.9888ZM87.4537 105.18L91.1426 105.18C91.7206 105.181 92.2754 104.953 92.6852 104.547C93.0949 104.14 93.3261 103.588 93.3279 103.012L93.3551 90.9866C93.3545 90.4109 93.1251 89.8589 92.7172 89.4516C92.3092 89.0443 91.7561 88.8149 91.1789 88.8137L87.4922 88.8137L87.4537 105.18Z" stroke="black" stroke-miterlimit="10"/>
</g>
<g clip-path="url(#clip1_237_3516)">
<path d="M161.27 71.3202H91.8399C91.6683 71.3176 91.5045 71.2483 91.3832 71.127C91.2618 71.0056 91.1925 70.8418 91.1899 70.6702V28.9702C91.1899 27.9093 91.6114 26.8919 92.3615 26.1418C93.1117 25.3916 94.1291 24.9702 95.1899 24.9702H157.97C159.031 24.9702 160.048 25.3916 160.798 26.1418C161.549 26.8919 161.97 27.9093 161.97 28.9702V70.6702C161.97 70.76 161.952 70.8488 161.916 70.9311C161.88 71.0134 161.828 71.0874 161.762 71.1485C161.696 71.2095 161.619 71.2563 161.534 71.2859C161.449 71.3154 161.359 71.3271 161.27 71.3202ZM92.4999 70.0402H160.63V28.9702C160.627 28.2629 160.345 27.5853 159.845 27.0851C159.345 26.585 158.667 26.3029 157.96 26.3002H95.1699C94.4609 26.3002 93.7807 26.5812 93.2784 27.0816C92.7761 27.5821 92.4926 28.2612 92.4899 28.9702L92.4999 70.0402Z" fill="black"/>
<path d="M157 67.04H96.12C95.9484 67.0374 95.7846 66.9681 95.6632 66.8468C95.5419 66.7254 95.4726 66.5616 95.47 66.39V29.92C95.47 29.7476 95.5385 29.5823 95.6604 29.4604C95.7823 29.3385 95.9476 29.27 96.12 29.27H157C157.172 29.27 157.338 29.3385 157.46 29.4604C157.581 29.5823 157.65 29.7476 157.65 29.92V66.4C157.645 66.5698 157.574 66.7312 157.453 66.8504C157.332 66.9696 157.17 67.0375 157 67.04ZM96.77 65.74H156.35V30.57H96.77V65.74Z" fill="black"/>
<path d="M161.27 77.7H91.84C89.17 77.7 87 75.97 87 73.85V70.67C87 70.4976 87.0685 70.3323 87.1904 70.2104C87.3123 70.0885 87.4776 70.02 87.65 70.02H165.5C165.672 70.02 165.838 70.0885 165.96 70.2104C166.082 70.3323 166.15 70.4976 166.15 70.67V73.85C166.11 75.97 163.94 77.7 161.27 77.7ZM88.27 71.32V73.85C88.27 75.23 89.89 76.39 91.81 76.39H161.24C163.16 76.39 164.78 75.23 164.78 73.85V71.32H88.27Z" fill="black"/>
<path d="M126.56 75.8999C126.167 75.8998 125.782 75.7836 125.454 75.566C125.126 75.3484 124.87 75.0389 124.717 74.6764C124.565 74.3138 124.522 73.9143 124.595 73.5278C124.669 73.1412 124.854 72.7848 125.129 72.5032C125.404 72.2217 125.755 72.0273 126.14 71.9446C126.525 71.8619 126.925 71.8944 127.291 72.0382C127.657 72.1819 127.973 72.4304 128.199 72.7527C128.424 73.075 128.55 73.4566 128.56 73.8499C128.56 74.385 128.351 74.899 127.977 75.2821C127.604 75.6651 127.095 75.8868 126.56 75.8999ZM126.56 73.1099C126.411 73.1079 126.264 73.1505 126.14 73.2321C126.015 73.3138 125.917 73.4308 125.859 73.5683C125.801 73.7057 125.785 73.8573 125.814 74.0037C125.843 74.1501 125.914 74.2847 126.02 74.3902C126.125 74.4956 126.26 74.5673 126.406 74.5959C126.553 74.6245 126.704 74.6088 126.842 74.5508C126.979 74.4928 127.096 74.3952 127.178 74.2703C127.259 74.1455 127.302 73.9991 127.3 73.8499C127.3 73.6536 127.222 73.4654 127.083 73.3266C126.944 73.1879 126.756 73.1099 126.56 73.1099Z" fill="black"/>
</g>
<path d="M57.846 27V40.7365H40.6634V27H30V75.4982H68.5093V27H57.846Z" stroke="#231F20" stroke-width="2" stroke-linejoin="round"/>
<path d="M30 30.9146H40.6634" stroke="#231F20" stroke-width="2" stroke-linejoin="round"/>
<path d="M57.8459 30.9146H68.5093" stroke="#231F20" stroke-width="2" stroke-linejoin="round"/>
<path d="M40.6633 36.7666H57.8459" stroke="#231F20" stroke-width="2" stroke-linejoin="round"/>
<path d="M68.5094 70.9678H60.9119" stroke="#231F20" stroke-width="2" stroke-linejoin="round"/>
<path d="M37.5975 70.9678H30" stroke="#231F20" stroke-width="2" stroke-linejoin="round"/>
<path d="M189.43 54.3299C189.506 54.3396 189.584 54.3396 189.66 54.3299C189.817 54.3329 189.972 54.2848 190.1 54.1929C190.228 54.101 190.323 53.9701 190.37 53.8199C190.876 52.304 191.908 51.0196 193.28 50.1999C193.365 50.1493 193.439 50.0826 193.497 50.0034C193.556 49.9243 193.599 49.8343 193.623 49.7387C193.647 49.6431 193.652 49.5436 193.638 49.446C193.624 49.3484 193.591 49.2546 193.54 49.1699C193.489 49.0852 193.423 49.0113 193.344 48.9524C193.264 48.8934 193.174 48.8507 193.079 48.8266C192.983 48.8024 192.884 48.7973 192.786 48.8116C192.688 48.8259 192.595 48.8593 192.51 48.9099C190.829 49.9147 189.565 51.4906 188.95 53.3499C188.914 53.4455 188.898 53.5475 188.903 53.6496C188.908 53.7517 188.934 53.8516 188.979 53.9434C189.023 54.0352 189.087 54.1168 189.164 54.1833C189.242 54.2497 189.332 54.2996 189.43 54.3299Z" fill="black"/>
<path d="M205.52 75.2202H188.84C188.641 75.2202 188.45 75.2992 188.31 75.4399C188.169 75.5805 188.09 75.7713 188.09 75.9702C188.09 76.1691 188.169 76.3599 188.31 76.5005C188.45 76.6412 188.641 76.7202 188.84 76.7202H205.52C205.719 76.7202 205.91 76.6412 206.05 76.5005C206.191 76.3599 206.27 76.1691 206.27 75.9702C206.27 75.7713 206.191 75.5805 206.05 75.4399C205.91 75.2992 205.719 75.2202 205.52 75.2202Z" fill="black"/>
<path d="M205.52 85.1299H188.84C188.641 85.1299 188.45 85.2089 188.31 85.3495C188.169 85.4902 188.09 85.681 188.09 85.8799C188.09 86.0788 188.169 86.2696 188.31 86.4102C188.45 86.5509 188.641 86.6299 188.84 86.6299H205.52C205.719 86.6299 205.91 86.5509 206.05 86.4102C206.191 86.2696 206.27 86.0788 206.27 85.8799C206.27 85.681 206.191 85.4902 206.05 85.3495C205.91 85.2089 205.719 85.1299 205.52 85.1299Z" fill="black"/>
<path d="M205.52 95.0601H188.84C188.641 95.0601 188.45 95.1391 188.31 95.2797C188.169 95.4204 188.09 95.6111 188.09 95.8101C188.09 96.009 188.169 96.1997 188.31 96.3404C188.45 96.481 188.641 96.5601 188.84 96.5601H205.52C205.719 96.5601 205.91 96.481 206.05 96.3404C206.191 96.1997 206.27 96.009 206.27 95.8101C206.27 95.6111 206.191 95.4204 206.05 95.2797C205.91 95.1391 205.719 95.0601 205.52 95.0601Z" fill="black"/>
<path d="M205.52 65.3101H188.84C188.641 65.3101 188.45 65.3891 188.31 65.5297C188.169 65.6704 188.09 65.8611 188.09 66.0601C188.09 66.259 188.169 66.4497 188.31 66.5904C188.45 66.731 188.641 66.8101 188.84 66.8101H205.52C205.719 66.8101 205.91 66.731 206.05 66.5904C206.191 66.4497 206.27 66.259 206.27 66.0601C206.27 65.8611 206.191 65.6704 206.05 65.5297C205.91 65.3891 205.719 65.3101 205.52 65.3101Z" fill="black"/>
<path d="M205.52 56.73H188.84C188.641 56.73 188.45 56.809 188.31 56.9496C188.169 57.0903 188.09 57.2811 188.09 57.48C188.09 57.6789 188.169 57.8696 188.31 58.0103C188.45 58.1509 188.641 58.23 188.84 58.23H205.52C205.719 58.23 205.91 58.1509 206.05 58.0103C206.191 57.8696 206.27 57.6789 206.27 57.48C206.27 57.2811 206.191 57.0903 206.05 56.9496C205.91 56.809 205.719 56.73 205.52 56.73Z" fill="black"/>
<path d="M209.36 63.22V59.67C209.357 59.2318 209.25 58.8006 209.046 58.4126C208.843 58.0246 208.549 57.6911 208.19 57.44V56.25C208.189 54.0567 207.533 51.9136 206.305 50.0961C205.078 48.2785 203.334 46.8695 201.3 46.05V45.3H202.25V40.75C202.25 40.0207 201.96 39.3212 201.445 38.8055C200.929 38.2897 200.229 38 199.5 38H194.86C194.131 38 193.431 38.2897 192.915 38.8055C192.4 39.3212 192.11 40.0207 192.11 40.75V45.3H193.06V46.06C191.024 46.8779 189.278 48.2863 188.049 50.1039C186.819 51.9216 186.161 54.0655 186.16 56.26V57.45C185.803 57.7028 185.512 58.0369 185.31 58.4247C185.109 58.8125 185.002 59.2428 185 59.68V63.23C185.002 63.6658 185.109 64.0947 185.31 64.4809C185.512 64.8671 185.803 65.1994 186.16 65.45V67.45C185.803 67.7022 185.511 68.0362 185.309 68.4241C185.107 68.8121 185.001 69.2427 185 69.68V73.23C185.002 73.6658 185.109 74.0947 185.31 74.4809C185.512 74.8671 185.803 75.1994 186.16 75.45V77.45C185.803 77.7006 185.512 78.0329 185.31 78.4191C185.109 78.8053 185.002 79.2342 185 79.67V83.22C185.001 83.6573 185.107 84.0879 185.309 84.4759C185.511 84.8638 185.803 85.1978 186.16 85.45V87.45C185.803 87.7006 185.512 88.0329 185.31 88.4191C185.109 88.8053 185.002 89.2342 185 89.67V93.22C185.002 93.6571 185.109 94.0875 185.31 94.4753C185.512 94.8631 185.803 95.1973 186.16 95.45V99.69H208.16V95.45C208.519 95.1984 208.812 94.8647 209.015 94.4768C209.219 94.0889 209.327 93.658 209.33 93.22V89.67C209.328 89.2332 209.22 88.8034 209.016 88.417C208.813 88.0306 208.519 87.6989 208.16 87.45V85.45C208.52 85.2001 208.815 84.8668 209.019 84.4785C209.222 84.0903 209.329 83.6585 209.33 83.22V79.67C209.328 79.2332 209.22 78.8034 209.016 78.417C208.813 78.0306 208.519 77.6989 208.16 77.45V75.45C208.519 75.2011 208.813 74.8694 209.016 74.483C209.22 74.0966 209.328 73.6668 209.33 73.23V69.68C209.329 69.2415 209.222 68.8097 209.019 68.4214C208.815 68.0332 208.52 67.6999 208.16 67.45V65.45C208.526 65.2035 208.826 64.8717 209.035 64.4832C209.244 64.0947 209.356 63.6612 209.36 63.22ZM193.61 42.22V40.77C193.61 40.4385 193.742 40.1205 193.976 39.8861C194.211 39.6517 194.528 39.52 194.86 39.52H199.5C199.832 39.52 200.149 39.6517 200.384 39.8861C200.618 40.1205 200.75 40.4385 200.75 40.77V43.82H193.61V42.22ZM207.86 63.22C207.858 63.4544 207.79 63.6834 207.662 63.8801C207.534 64.0767 207.353 64.2328 207.14 64.33L206.69 64.52V68.34L207.14 68.54C207.354 68.6362 207.536 68.792 207.664 68.9889C207.791 69.1858 207.859 69.4153 207.86 69.65V73.2C207.86 73.4335 207.792 73.662 207.664 73.8574C207.536 74.0527 207.354 74.2066 207.14 74.3L206.69 74.5V78.32L207.14 78.52C207.354 78.6134 207.536 78.7672 207.664 78.9626C207.792 79.158 207.86 79.3865 207.86 79.62V83.17C207.859 83.4047 207.791 83.6342 207.664 83.8311C207.536 84.028 207.354 84.1838 207.14 84.28L206.69 84.48V88.3L207.14 88.49C207.353 88.5872 207.534 88.7433 207.662 88.9399C207.79 89.1366 207.858 89.3656 207.86 89.6V93.15C207.859 93.3847 207.791 93.6142 207.664 93.8111C207.536 94.0079 207.354 94.1638 207.14 94.26L206.69 94.46V98.12H187.69V94.46L187.25 94.26C187.036 94.1638 186.854 94.0079 186.726 93.8111C186.599 93.6142 186.531 93.3847 186.53 93.15V89.6C186.532 89.3656 186.6 89.1366 186.728 88.9399C186.856 88.7433 187.037 88.5872 187.25 88.49L187.69 88.3V84.48L187.25 84.28C187.036 84.1838 186.854 84.028 186.726 83.8311C186.599 83.6342 186.531 83.4047 186.53 83.17V79.62C186.53 79.3865 186.598 79.158 186.726 78.9626C186.854 78.7672 187.036 78.6134 187.25 78.52L187.69 78.32V74.5L187.25 74.3C187.036 74.2066 186.854 74.0527 186.726 73.8574C186.598 73.662 186.53 73.4335 186.53 73.2V69.65C186.531 69.4153 186.599 69.1858 186.726 68.9889C186.854 68.792 187.036 68.6362 187.25 68.54L187.69 68.34V64.52L187.25 64.33C187.037 64.2328 186.856 64.0767 186.728 63.8801C186.6 63.6834 186.532 63.4544 186.53 63.22V59.67C186.531 59.4353 186.599 59.2058 186.726 59.0089C186.854 58.812 187.036 58.6562 187.25 58.56L187.69 58.36V56.25C187.69 54.2722 188.304 52.3433 189.449 50.7307C190.594 49.1181 192.213 47.9016 194.08 47.25L194.59 47.08V45.28H199.83V47.06L200.34 47.23C202.206 47.8821 203.823 49.0989 204.967 50.7117C206.11 52.3244 206.723 54.2531 206.72 56.23V58.34L207.17 58.54C207.384 58.6362 207.566 58.792 207.694 58.9889C207.821 59.1858 207.889 59.4153 207.89 59.65L207.86 63.22Z" fill="black"/>
<path d="M242.391 111C242.275 110.998 242.163 110.953 242.08 110.873C241.998 110.791 241.952 110.68 241.951 110.565V58.4355C241.951 58.32 241.997 58.2092 242.08 58.1275C242.162 58.0459 242.274 58 242.391 58H279.69C280.564 58.0018 281.401 58.3461 282.019 58.9576C282.637 59.5691 282.985 60.3979 282.986 61.2627V107.744C282.985 108.608 282.637 109.436 282.019 110.047C281.401 110.657 280.563 111 279.69 111H242.377H242.391ZM242.844 58.8709V110.129H279.717C280.034 110.13 280.347 110.069 280.64 109.95C280.933 109.831 281.199 109.656 281.423 109.435C281.648 109.214 281.826 108.952 281.948 108.663C282.07 108.374 282.133 108.064 282.134 107.751V61.2627C282.134 60.6283 281.879 60.02 281.426 59.5715C280.973 59.1229 280.358 58.8709 279.717 58.8709H242.844Z" fill="black"/>
<path d="M242.404 111H238.919C237.879 110.998 236.882 110.588 236.147 109.86C235.413 109.131 235 108.144 235 107.114V61.8857C235 60.8563 235.413 59.869 236.147 59.1405C236.882 58.4119 237.879 58.0018 238.919 58H242.404C242.521 58 242.633 58.0459 242.715 58.1275C242.798 58.2092 242.844 58.32 242.844 58.4355V110.565C242.844 110.68 242.798 110.791 242.715 110.872C242.633 110.954 242.521 111 242.404 111ZM238.919 58.8709C238.112 58.8727 237.339 59.1911 236.77 59.7563C236.2 60.3215 235.88 61.0873 235.88 61.8857V107.114C235.88 107.913 236.2 108.679 236.77 109.244C237.339 109.809 238.112 110.127 238.919 110.129H241.964V58.8709H238.919Z" fill="black"/>
<path d="M278.425 82.956H246.526C246.41 82.956 246.298 82.9101 246.215 82.8284C246.133 82.7468 246.086 82.636 246.086 82.5205V67.2724C246.086 67.1569 246.133 67.0461 246.215 66.9645C246.298 66.8828 246.41 66.8369 246.526 66.8369H278.425C278.542 66.8369 278.655 66.8826 278.738 66.964C278.822 67.0455 278.87 67.1563 278.872 67.2724V82.5272C278.868 82.6421 278.819 82.7512 278.736 82.8312C278.653 82.9113 278.541 82.956 278.425 82.956ZM246.966 82.0851H277.985V67.7078H246.966V82.0851Z" fill="black"/>
<path d="M277.971 102.726H261.789C261.672 102.726 261.56 102.68 261.477 102.598C261.395 102.517 261.349 102.406 261.349 102.29C261.349 102.175 261.395 102.064 261.477 101.983C261.56 101.901 261.672 101.855 261.789 101.855H277.971C278.088 101.855 278.2 101.901 278.282 101.983C278.365 102.064 278.411 102.175 278.411 102.29C278.411 102.406 278.365 102.517 278.282 102.598C278.2 102.68 278.088 102.726 277.971 102.726Z" fill="black"/>
<path d="M277.971 106.089H261.789C261.672 106.089 261.56 106.043 261.477 105.962C261.395 105.88 261.349 105.769 261.349 105.654C261.349 105.538 261.395 105.427 261.477 105.346C261.56 105.264 261.672 105.218 261.789 105.218H277.971C278.088 105.218 278.2 105.264 278.282 105.346C278.365 105.427 278.411 105.538 278.411 105.654C278.411 105.769 278.365 105.88 278.282 105.962C278.2 106.043 278.088 106.089 277.971 106.089Z" fill="black"/>
<path d="M277.971 99.363H261.789C261.68 99.3497 261.581 99.2978 261.509 99.217C261.437 99.1362 261.397 99.032 261.397 98.9242C261.397 98.8163 261.437 98.7122 261.509 98.6314C261.581 98.5505 261.68 98.4986 261.789 98.4854H277.971C278.079 98.4986 278.179 98.5505 278.251 98.6314C278.323 98.7122 278.363 98.8163 278.363 98.9242C278.363 99.032 278.323 99.1362 278.251 99.217C278.179 99.2978 278.079 99.3497 277.971 99.363Z" fill="black"/>
<path d="M274.838 72.9935H250.107C249.99 72.9935 249.878 72.9476 249.796 72.866C249.713 72.7843 249.667 72.6735 249.667 72.558C249.667 72.4426 249.713 72.3318 249.796 72.2501C249.878 72.1685 249.99 72.1226 250.107 72.1226H274.838C274.954 72.1226 275.066 72.1685 275.149 72.2501C275.231 72.3318 275.278 72.4426 275.278 72.558C275.278 72.6735 275.231 72.7843 275.149 72.866C275.066 72.9476 274.954 72.9935 274.838 72.9935Z" fill="black"/>
<path d="M268.584 77.6766H256.367C256.25 77.6766 256.139 77.6307 256.056 77.5491C255.974 77.4674 255.927 77.3566 255.927 77.2411C255.927 77.1256 255.974 77.0149 256.056 76.9332C256.139 76.8515 256.25 76.8057 256.367 76.8057H268.584C268.7 76.8057 268.812 76.8515 268.895 76.9332C268.977 77.0149 269.024 77.1256 269.024 77.2411C269.024 77.3566 268.977 77.4674 268.895 77.5491C268.812 77.6307 268.7 77.6766 268.584 77.6766Z" fill="black"/>
<g opacity="0.9">
<circle cx="296.295" cy="52.8852" r="1.11475" transform="rotate(-90 296.295 52.8852)" fill="white"/>
<circle cx="301.869" cy="52.8852" r="1.11475" transform="rotate(-90 301.869 52.8852)" fill="white"/>
<circle cx="306.885" cy="52.8852" r="1.11475" transform="rotate(-90 306.885 52.8852)" fill="white"/>
<circle cx="296.295" cy="47.8686" r="1.11475" transform="rotate(-90 296.295 47.8686)" fill="white"/>
<circle cx="301.869" cy="47.8686" r="1.11475" transform="rotate(-90 301.869 47.8686)" fill="white"/>
<circle cx="306.885" cy="47.8686" r="1.11475" transform="rotate(-90 306.885 47.8686)" fill="white"/>
<circle cx="296.295" cy="42.2949" r="1.11475" transform="rotate(-90 296.295 42.2949)" fill="white"/>
<circle cx="291.279" cy="42.2949" r="1.11475" transform="rotate(-90 291.279 42.2949)" fill="white"/>
<circle cx="285.705" cy="42.2949" r="1.11475" transform="rotate(-90 285.705 42.2949)" fill="white"/>
<circle cx="301.869" cy="42.2949" r="1.11475" transform="rotate(-90 301.869 42.2949)" fill="white"/>
<circle cx="306.885" cy="42.2949" r="1.11475" transform="rotate(-90 306.885 42.2949)" fill="white"/>
<circle cx="296.295" cy="37.2788" r="1.11475" transform="rotate(-90 296.295 37.2788)" fill="white"/>
<circle cx="301.869" cy="37.2788" r="1.11475" transform="rotate(-90 301.869 37.2788)" fill="white"/>
<circle cx="306.885" cy="37.2788" r="1.11475" transform="rotate(-90 306.885 37.2788)" fill="white"/>
<circle cx="275.115" cy="31.7051" r="1.11475" transform="rotate(-90 275.115 31.7051)" fill="white"/>
<circle cx="280.688" cy="31.7051" r="1.11475" transform="rotate(-90 280.688 31.7051)" fill="white"/>
<circle cx="285.705" cy="31.7051" r="1.11475" transform="rotate(-90 285.705 31.7051)" fill="white"/>
<circle cx="285.705" cy="37.2788" r="1.11475" transform="rotate(-90 285.705 37.2788)" fill="white"/>
<circle cx="291.279" cy="31.7051" r="1.11475" transform="rotate(-90 291.279 31.7051)" fill="white"/>
<circle cx="291.279" cy="37.2788" r="1.11475" transform="rotate(-90 291.279 37.2788)" fill="white"/>
<circle cx="301.869" cy="31.7051" r="1.11475" transform="rotate(-90 301.869 31.7051)" fill="white"/>
<circle cx="296.295" cy="31.7051" r="1.11475" transform="rotate(-90 296.295 31.7051)" fill="white"/>
<circle cx="306.885" cy="31.7051" r="1.11475" transform="rotate(-90 306.885 31.7051)" fill="white"/>
<circle cx="275.115" cy="26.6885" r="1.11475" transform="rotate(-90 275.115 26.6885)" fill="white"/>
<circle cx="280.688" cy="26.6885" r="1.11475" transform="rotate(-90 280.688 26.6885)" fill="white"/>
<circle cx="285.705" cy="26.6885" r="1.11475" transform="rotate(-90 285.705 26.6885)" fill="white"/>
<circle cx="291.279" cy="26.6885" r="1.11475" transform="rotate(-90 291.279 26.6885)" fill="white"/>
<circle cx="296.295" cy="26.6885" r="1.11475" transform="rotate(-90 296.295 26.6885)" fill="white"/>
<circle cx="301.869" cy="26.6885" r="1.11475" transform="rotate(-90 301.869 26.6885)" fill="white"/>
<circle cx="306.885" cy="26.6885" r="1.11475" transform="rotate(-90 306.885 26.6885)" fill="white"/>
<circle cx="275.115" cy="21.1147" r="1.11475" transform="rotate(-90 275.115 21.1147)" fill="white"/>
<circle cx="280.688" cy="21.1147" r="1.11475" transform="rotate(-90 280.688 21.1147)" fill="white"/>
<circle cx="285.705" cy="21.1147" r="1.11475" transform="rotate(-90 285.705 21.1147)" fill="white"/>
<circle cx="291.279" cy="21.1147" r="1.11475" transform="rotate(-90 291.279 21.1147)" fill="white"/>
<circle cx="296.295" cy="21.1147" r="1.11475" transform="rotate(-90 296.295 21.1147)" fill="white"/>
<circle cx="301.869" cy="21.1147" r="1.11475" transform="rotate(-90 301.869 21.1147)" fill="white"/>
<circle cx="306.885" cy="21.1147" r="1.11475" transform="rotate(-90 306.885 21.1147)" fill="white"/>
</g>
<defs>
<clipPath id="clip0_237_3516">
<rect width="20.0229" height="45.8858" fill="white" transform="translate(49 107.023) rotate(-90)"/>
</clipPath>
<clipPath id="clip1_237_3516">
<rect width="79.11" height="52.7" fill="white" transform="translate(87 25)"/>
</clipPath>
</defs>
</svg>
