<svg width="74" height="74" viewBox="0 0 74 74" fill="none" xmlns="http://www.w3.org/2000/svg">
<path d="M37 74C57.4345 74 74 57.4345 74 37C74 16.5655 57.4345 0 37 0C16.5655 0 0 16.5655 0 37C0 57.4345 16.5655 74 37 74Z" fill="url(#paint0_linear_121_7890)"/>
<path d="M58.8242 37C58.8242 33.4538 55.9457 30.5684 52.4053 30.5684H45.9864V29.282C45.9864 28.5711 45.4122 27.9957 44.7027 27.9957H29.2974C28.5878 27.9957 28.0136 28.5709 28.0136 29.282V30.5684H24.6939L22.5025 28.3726C22.001 27.8701 21.1886 27.8701 20.6872 28.3726C20.1857 28.8752 20.1857 29.689 20.6872 30.1916L21.0036 30.5085C19.1615 30.2209 17.7435 28.6345 17.7435 26.7094C17.7435 24.5814 19.4711 22.8504 21.5948 22.8504H28.0138V24.1367C28.0138 24.8477 28.588 25.423 29.2975 25.423H44.7028C45.4123 25.423 45.9865 24.8478 45.9865 24.1367V18.9914C45.9865 18.2805 45.4123 17.7051 44.7028 17.7051H29.2974C28.5878 17.7051 28.0136 18.2803 28.0136 18.9914V20.2777H21.5947C18.0543 20.2777 15.1758 23.1632 15.1758 26.7094C15.1758 30.09 17.8003 32.84 21.112 33.092L20.6869 33.5178C20.1854 34.0203 20.1854 34.8343 20.6869 35.3367C21.1884 35.8393 22.0008 35.8393 22.5022 35.3367L24.6936 33.1409H28.0133V34.4272C28.0133 35.1381 28.5876 35.7135 29.2971 35.7135H44.7024C45.4119 35.7135 45.9861 35.1381 45.9861 34.4272V33.1409H52.405C54.5288 33.1409 56.2563 34.8719 56.2563 36.9999C56.2563 38.9249 54.8382 40.5114 52.9963 40.799L53.3127 40.482C53.8142 39.9795 53.8142 39.1655 53.3127 38.6631C52.8111 38.1606 51.9987 38.1606 51.4974 38.6631L49.3063 40.859H45.9865V39.5727C45.9865 38.8617 45.4123 38.2863 44.7028 38.2863H29.2974C28.5878 38.2863 28.0136 38.8617 28.0136 39.5727V40.859H21.5947C18.0543 40.859 15.1758 43.7444 15.1758 47.2906C15.1758 50.6712 17.8003 53.4211 21.112 53.6733L20.6869 54.0992C20.1854 54.6017 20.1854 55.4156 20.6869 55.9181C21.1884 56.4207 22.0008 56.4207 22.5022 55.9181L24.6936 53.7224H28.0133V55.0087C28.0133 55.7197 28.5876 56.2951 29.2971 56.2951H44.7024C45.4119 56.2951 45.9861 55.7198 45.9861 55.0087V49.8633C45.9861 49.1523 45.4119 48.577 44.7024 48.577H29.2974C28.5878 48.577 28.0136 49.1522 28.0136 49.8633V51.1496H24.6939L22.5025 48.9539C22.001 48.4514 21.1886 48.4514 20.6872 48.9539C20.1857 49.4564 20.1857 50.2703 20.6872 50.7728L21.0036 51.0899C19.1615 50.8022 17.7435 49.2158 17.7435 47.2908C17.7435 45.1627 19.4711 43.4318 21.5948 43.4318H28.0138V44.7181C28.0138 45.4291 28.588 46.0044 29.2975 46.0044H44.7028C45.4123 46.0044 45.9865 45.4292 45.9865 44.7181V43.4318H49.3063L51.4976 45.6275C51.9992 46.13 52.8114 46.13 53.313 45.6275C53.8145 45.125 53.8145 44.3111 53.313 43.8086L52.8879 43.3828C56.1997 43.1304 58.8242 40.3806 58.8242 37Z" fill="url(#paint1_linear_121_7890)"/>
<defs>
<linearGradient id="paint0_linear_121_7890" x1="37" y1="74" x2="37" y2="0" gradientUnits="userSpaceOnUse">
<stop stop-color="#C3FFE8"/>
<stop offset="0.9973" stop-color="#F0FFF4"/>
</linearGradient>
<linearGradient id="paint1_linear_121_7890" x1="37" y1="56.2949" x2="37" y2="17.7051" gradientUnits="userSpaceOnUse">
<stop stop-color="#9CFFAC"/>
<stop offset="1" stop-color="#00B59C"/>
</linearGradient>
</defs>
</svg>
