<svg width="16" height="24" viewBox="0 0 16 24" fill="none" xmlns="http://www.w3.org/2000/svg">
<path d="M8 12.9668C6.05178 12.9668 4.4668 14.5518 4.4668 16.5C4.4668 18.4482 6.05178 20.0332 8 20.0332C9.94822 20.0332 11.5332 18.4482 11.5332 16.5C11.5332 14.5518 9.94822 12.9668 8 12.9668ZM8 18.6152C6.83366 18.6152 5.88477 17.6663 5.88477 16.5C5.88477 15.3337 6.83366 14.3848 8 14.3848C9.16634 14.3848 10.1152 15.3337 10.1152 16.5C10.1152 17.6663 9.16634 18.6152 8 18.6152Z" fill="#A16969"/>
<path d="M10.7565 8.05688C11.8172 7.23366 12.5 5.94666 12.5 4.5C12.5 2.01473 10.4853 0 8.00002 0C5.51475 0 3.50002 2.01473 3.50002 4.5C3.50002 5.94666 4.1828 7.23366 5.24353 8.05688C2.70408 9.13167 0.922363 11.6466 0.922363 14.5777V24H15.0777V14.5777C15.0777 11.6466 13.2959 9.13172 10.7565 8.05688ZM8.00002 2.29688C9.16636 2.29688 10.1152 3.24577 10.1152 4.41211C10.1152 5.57845 9.16636 6.52734 8.00002 6.52734C6.83367 6.52734 5.88478 5.57845 5.88478 4.41211C5.88478 3.24577 6.83367 2.29688 8.00002 2.29688ZM8.00002 21.4395C5.27639 21.4395 3.06057 19.2236 3.06057 16.5C3.06057 13.7764 5.27639 11.5605 8.00002 11.5605C10.7236 11.5605 12.9395 13.7764 12.9395 16.5C12.9395 19.2236 10.7236 21.4395 8.00002 21.4395Z" fill="#A16969"/>
<path d="M8 17.209C8.39156 17.209 8.70898 16.8916 8.70898 16.5C8.70898 16.1084 8.39156 15.791 8 15.791C7.60844 15.791 7.29102 16.1084 7.29102 16.5C7.29102 16.8916 7.60844 17.209 8 17.209Z" fill="#A16969"/>
<path d="M8 5.12109C8.39156 5.12109 8.70898 4.80367 8.70898 4.41211C8.70898 4.02055 8.39156 3.70312 8 3.70312C7.60844 3.70312 7.29102 4.02055 7.29102 4.41211C7.29102 4.80367 7.60844 5.12109 8 5.12109Z" fill="#A16969"/>
</svg>
