<svg width="24" height="24" viewBox="0 0 24 24" fill="none" xmlns="http://www.w3.org/2000/svg">
<path d="M17.6719 15H16.2188C14.5387 15 13.1719 13.6332 13.1719 11.9531C13.1719 11.307 12.6462 10.7812 12 10.7812C11.3538 10.7812 10.8281 11.307 10.8281 11.9531C10.8281 13.6332 9.4613 15 7.78125 15H6.32812C2.8388 15 0 12.1612 0 8.67188C0 6.21642 1.99767 4.21875 4.45312 4.21875H19.5469C22.0023 4.21875 24 6.21642 24 8.67188C24 12.1612 21.1612 15 17.6719 15Z" fill="#3E91F3"/>
<path d="M8.02256 19.7812H7.07812C6.68981 19.7812 6.375 20.0961 6.375 20.4844V21.8906C6.375 22.2789 6.68981 22.5938 7.07812 22.5938H8.02256C7.86652 22.1537 7.78125 21.6804 7.78125 21.1875C7.78125 20.6946 7.86652 20.2213 8.02256 19.7812Z" fill="#3E91F3"/>
<path d="M18.6095 17.9061C18.6095 18.9416 17.77 19.7811 16.7345 19.7811H15.9775C16.1336 20.2211 16.2189 20.6944 16.2189 21.1873C16.2189 21.6802 16.1336 22.1535 15.9775 22.5936H16.7345C19.3233 22.5936 21.422 20.4949 21.422 17.9061V15.4341C20.5699 15.9085 19.6194 16.2266 18.6095 16.3491V17.9061Z" fill="#3E91F3"/>
<path d="M21.4219 3.12014V0.703125C21.4219 0.314812 21.1071 0 20.7188 0H19.3125C18.9242 0 18.6094 0.314812 18.6094 0.703125V2.8125H19.5469C20.2023 2.8125 20.8329 2.92069 21.4219 3.12014Z" fill="#3E91F3"/>
<path d="M12 18.375C10.4492 18.375 9.1875 19.6367 9.1875 21.1875C9.1875 22.7383 10.4492 24 12 24C13.5508 24 14.8125 22.7383 14.8125 21.1875C14.8125 19.6367 13.5508 18.375 12 18.375ZM12 21.8906C11.6117 21.8906 11.2969 21.5758 11.2969 21.1875C11.2969 20.7992 11.6117 20.4844 12 20.4844C12.3883 20.4844 12.7031 20.7992 12.7031 21.1875C12.7031 21.5758 12.3883 21.8906 12 21.8906Z" fill="#3E91F3"/>
</svg>
