<svg width="36" height="36" viewBox="0 0 36 36" fill="none" xmlns="http://www.w3.org/2000/svg">
<circle cx="18" cy="18" r="18" fill="white"/>
<path fill-rule="evenodd" clip-rule="evenodd" d="M25.8138 11.4292C26.6743 11.6653 27.352 12.3611 27.582 13.2447C28 14.8461 28 18.1875 28 18.1875C28 18.1875 28 21.5288 27.582 23.1303C27.352 24.0139 26.6743 24.7097 25.8138 24.946C24.2542 25.375 18 25.375 18 25.375C18 25.375 11.7458 25.375 10.1861 24.946C9.32557 24.7097 8.64784 24.0139 8.41784 23.1303C8 21.5288 8 18.1875 8 18.1875C8 18.1875 8 14.8461 8.41784 13.2447C8.64784 12.3611 9.32557 11.6653 10.1861 11.4292C11.7458 11 18 11 18 11C18 11 24.2542 11 25.8138 11.4292ZM16.125 15.375V21.625L21.125 18.5001L16.125 15.375Z" fill="black"/>
</svg>
